<?xml version="1.0" encoding="UTF-8"?>
<svg width="135px" height="50px" viewBox="0 0 135 50" version="1.1" xmlns="http://www.w3.org/2000/svg" xmlns:xlink="http://www.w3.org/1999/xlink">
    <!-- Generator: Sketch 61.2 (89653) - https://sketch.com -->
    <title>Group 77</title>
    <desc>Created with Sketch.</desc>
    <defs>
        <linearGradient x1="-4.11719787e-05%" y1="0.131253373%" x2="0.0688428371%" y2="0.131253373%" id="linearGradient-1">
            <stop stop-color="#FF9200" offset="1e-05%"></stop>
            <stop stop-color="#F36D00" offset="29%"></stop>
            <stop stop-color="#F4680B" offset="32%"></stop>
            <stop stop-color="#F83C72" offset="57%"></stop>
            <stop stop-color="#FC1CBE" offset="78%"></stop>
            <stop stop-color="#FE08ED" offset="93%"></stop>
            <stop stop-color="#FF00FF" offset="100%"></stop>
        </linearGradient>
        <linearGradient x1="-0.0607425369%" y1="17.8413373%" x2="99.0198464%" y2="17.2222046%" id="linearGradient-2">
            <stop stop-color="#FFB900" offset="1e-05%"></stop>
            <stop stop-color="#F38000" offset="33.755317%"></stop>
            <stop stop-color="#F83C72" offset="56.728965%"></stop>
            <stop stop-color="#FC1CBE" offset="78%"></stop>
            <stop stop-color="#FE08ED" offset="93%"></stop>
            <stop stop-color="#FF00FF" offset="100%"></stop>
        </linearGradient>
        <linearGradient x1="23.6645898%" y1="12.8644718%" x2="26.1958994%" y2="2.97154011%" id="linearGradient-3">
            <stop stop-color="#EE0A3F" offset="0%"></stop>
            <stop stop-color="#EE0A3F" stop-opacity="0" offset="100%"></stop>
        </linearGradient>
        <linearGradient x1="-1.66382316%" y1="87.5169875%" x2="109.071008%" y2="5.12909646%" id="linearGradient-4">
            <stop stop-color="#EE0A3F" offset="0%"></stop>
            <stop stop-color="#EE0A3F" stop-opacity="0" offset="100%"></stop>
        </linearGradient>
        <linearGradient x1="24.5214222%" y1="10.3292933%" x2="25.7577774%" y2="3.29936707%" id="linearGradient-5">
            <stop stop-color="#ED6600" offset="0%"></stop>
            <stop stop-color="#F98200" offset="100%"></stop>
        </linearGradient>
        <linearGradient x1="35.8192186%" y1="66.404135%" x2="89.9048933%" y2="7.8592247%" id="linearGradient-6">
            <stop stop-color="#ED6600" offset="0%"></stop>
            <stop stop-color="#F98200" offset="100%"></stop>
        </linearGradient>
    </defs>
    <g id="Page-1" stroke="none" stroke-width="1" fill="none" fill-rule="evenodd">
        <g id="WPHelper_Woocommerce_LienketTMDT_preview_all" transform="translate(-635.000000, -821.000000)">
            <g id="Group-77" transform="translate(635.000000, 821.000000)">
                <rect id="Rectangle-Copy-37" fill="#0E0F6F" x="0" y="0" width="135" height="50" rx="4"></rect>
                <g id="Lazada_(2019)" transform="translate(19.000000, 14.000000)" fill-rule="nonzero">
                    <g id="g1006" stroke-linecap="square" stroke-linejoin="bevel" transform="translate(38.901961, 1.882353)" fill="#FFFFFF">
                        <polyline id="path33" points="0.173229447 0.890663918 2.35230855 0.890663918 2.35230855 11.4443275 6.10862331 11.4443275 6.10862331 13.5275387 0.182341207 13.5275387 0.173229447 0.890663918"></polyline>
                        <path d="M11.1551366,4.05677206 C12.3096267,4.04222553 13.4040392,4.57191415 14.1139554,5.48837927 L14.1139554,4.24490273 L16.1469126,4.24490273 L16.1469126,13.5458815 L14.1139554,13.5458815 L14.1139554,12.3024049 C13.4040392,13.21887 12.3096267,13.7485587 11.1551366,13.7340121 C8.62053198,13.7340121 6.69671567,11.5544511 6.69671567,8.89310765 C6.69671567,6.23173057 8.62053198,4.05677206 11.1551366,4.05677206 M11.5246135,5.91970242 C9.87882266,5.91970242 8.78908285,7.22287685 8.78908285,8.89310765 C8.78908285,10.5633384 9.89684593,11.8710818 11.5246135,11.8710818 C13.1520473,11.8710818 14.2598103,10.5679073 14.2598103,8.89310765 C14.2598103,7.21827436 13.1700705,5.91970242 11.5246135,5.91970242" id="path39"></path>
                        <polyline id="path45" points="17.7289545 11.9307125 22.5748755 6.1032642 17.801715 6.1032642 17.801715 4.24490273 25.2005978 4.24490273 25.2005978 5.88301694 20.3730337 11.68752 25.3100724 11.68752 25.3100724 13.5458815 17.7289545 13.5458815 17.7289545 11.9307125"></polyline>
                        <path d="M30.4797446,4.05677206 C31.6339009,4.04222553 32.7286472,4.57191415 33.4382297,5.48837927 L33.4382297,4.24490273 L35.4715206,4.24490273 L35.4715206,13.5458815 L33.4382297,13.5458815 L33.4382297,12.3024049 C32.7286472,13.21887 31.6339009,13.7485587 30.4797446,13.7340121 C27.94514,13.7340121 26.0256626,11.5544511 26.0256626,8.89310765 C26.0256626,6.23173057 27.94514,4.05677206 30.4797446,4.05677206 M30.8488877,5.91970242 C29.2030969,5.91970242 28.1136909,7.22287685 28.1136909,8.89310765 C28.1136909,10.5633384 29.2214539,11.8710818 30.8488877,11.8710818 C32.4763215,11.8710818 33.5840846,10.5679073 33.5840846,8.89310765 C33.5840846,7.21827436 32.4946785,5.91970242 30.8488877,5.91970242" id="path51"></path>
                        <path d="M41.2793498,4.05677206 C42.4325048,4.04152004 43.525916,4.57151101 44.2334959,5.48837927 L44.2334959,0.142730285 L46.2664531,0.142730285 L46.2664531,13.5458815 L44.2334959,13.5458815 L44.2334959,12.3024049 C43.525916,13.2192732 42.4325048,13.7492641 41.2793498,13.7340121 C38.7447452,13.7340121 36.8209289,11.5544511 36.8209289,8.89310765 C36.8209289,6.23173057 38.7447452,4.05677206 41.2793498,4.05677206 M41.6484929,5.91970242 C40.0027021,5.91970242 38.9132961,7.22287685 38.9132961,8.89310765 C38.9132961,10.5633384 40.0257319,11.8710818 41.6484929,11.8710818 C43.2715878,11.8710818 44.3836898,10.5679073 44.3836898,8.89310765 C44.3836898,7.21827436 43.2942838,5.91970242 41.6484929,5.91970242" id="path57"></path>
                        <path d="M52.0742823,4.05677206 C53.2274373,4.04152004 54.3211823,4.57151101 55.0284285,5.48837927 L55.0284285,4.24490273 L57.0570467,4.24490273 L57.0570467,13.5458815 L55.0194168,13.5458815 L55.0194168,12.3024049 C54.3118369,13.2192732 53.2184257,13.7492641 52.0652707,13.7340121 C49.5306661,13.7340121 47.6068498,11.5544511 47.6068498,8.89310765 C47.6068498,6.23173057 49.5396777,4.05677206 52.0742823,4.05677206 M52.4437592,5.91970242 C50.7979684,5.91970242 49.7082286,7.22287685 49.7082286,8.89310765 C49.7082286,10.5633384 50.8206644,11.8710818 52.4437592,11.8710818 C54.0665203,11.8710818 55.1789561,10.5679073 55.1789561,8.89310765 C55.1789561,7.21827436 54.0892163,5.91970242 52.4437592,5.91970242" id="path63"></path>
                    </g>
                    <g id="g942">
                        <g id="g71" transform="translate(0.271196, 0.012143)" fill="url(#linearGradient-2)">
                            <path d="M15.3642358,24.8369948 C15.1463186,24.8384633 14.9318169,24.7828575 14.7421811,24.6757768 C13.1187091,23.739558 1.09477797,16.2252504 0.640694908,15.9958371 C0.295121883,15.8351025 0.0591487055,15.5058258 0.018366416,15.1278431 L0.018366416,4.58794869 C0.00971901791,4.19452346 0.204854504,3.82428013 0.53494698,3.60836652 L0.622031902,3.55876621 C1.78523634,2.83957315 5.67914648,0.47119608 6.29496194,0.130198642 C6.43627797,0.0466143903 6.59722249,0.00170070895 6.76149156,0 C6.91551373,0.00173700474 7.06689449,0.0399910452 7.20315538,0.111599095 C7.20315538,0.111599095 12.6521794,3.65176622 13.4856844,3.96796078 C14.0705315,4.23577609 14.7082525,4.36925706 15.3518029,4.35855807 C16.0810173,4.37375091 16.8015788,4.19848168 17.4418046,3.85016289 C18.256683,3.42236651 23.4631062,0.130198642 23.519077,0.130198642 C23.6503283,0.0511767831 23.8011625,0.0103699452 23.9545016,0.0123998945 C24.1189528,0.0132020694 24.2800795,0.0581803805 24.4210312,0.142598491 C25.1301617,0.533193056 29.9571311,3.47816742 30.1623877,3.60836652 C30.5019014,3.81251895 30.7077046,4.18039733 30.7036217,4.57555656 L30.7036217,15.115451 C30.6654874,15.4943415 30.4287614,15.8246622 30.0815511,15.9834449 C29.6274544,16.2314238 17.6408675,23.7457768 15.9862449,24.6633847 C15.7978843,24.7748231 15.5832916,24.8346957 15.3642358,24.8369948" id="path69"></path>
                        </g>
                        <g id="g79" transform="translate(15.299972, 3.643537)" fill="url(#linearGradient-4)">
                            <path d="M0.27325046,21.2056166 L0.335460482,21.2056166 C0.553377724,21.2070692 0.767879335,21.1514634 0.957469613,21.0443827 C2.58098722,20.1081639 14.5986791,12.5938563 15.0527758,12.364443 C15.3999861,12.2056603 15.636712,11.8753396 15.6748559,11.496449 L15.6748559,0.956554597 C15.6767888,0.778130587 15.6363022,0.601771933 15.5566041,0.441967897 L0.27325046,8.80567676 L0.27325046,21.2056166" id="path77"></path>
                        </g>
                        <g id="g970" transform="translate(7.947269, 14.387486) scale(-1, 1) translate(-7.947269, -14.387486) translate(0.104132, 3.720819)" fill="url(#linearGradient-6)">
                            <path d="M0.270339311,20.9796967 L0.33188656,20.9796967 C0.547482161,20.9811338 0.759698519,20.9261204 0.947268944,20.8201805 C2.55348996,19.893936 14.443148,12.4596841 14.8924069,12.2327149 C15.235918,12.0756239 15.470122,11.7488223 15.5078594,11.3739684 L15.5078594,0.946363677 C15.5097718,0.769840557 15.4697165,0.595360789 15.3908675,0.437259269 L0.270339311,8.71186303 L0.270339311,20.9796967" id="path968"></path>
                        </g>
                    </g>
                </g>
            </g>
        </g>
    </g>
</svg>