<?xml version="1.0" encoding="UTF-8"?>
<svg width="135px" height="50px" viewBox="0 0 135 50" version="1.1" xmlns="http://www.w3.org/2000/svg" xmlns:xlink="http://www.w3.org/1999/xlink">
    <!-- Generator: Sketch 61.2 (89653) - https://sketch.com -->
    <title>Group 78</title>
    <desc>Created with Sketch.</desc>
    <defs>
        <polygon id="path-1" points="0.0601746032 0.052952381 3.86969841 0.052952381 3.86969841 19.2063492 0.0601746032 19.2063492"></polygon>
        <polygon id="path-3" points="0.0286031746 0.144142857 14.7652698 0.144142857 14.7652698 19.3650794 0.0286031746 19.3650794"></polygon>
        <polygon id="path-5" points="0.128063492 0.052952381 3.9375873 0.052952381 3.9375873 19.2063492 0.128063492 19.2063492"></polygon>
        <polygon id="path-7" points="0.0813174603 0.052952381 15.8192063 0.052952381 15.8192063 19.2063492 0.0813174603 19.2063492"></polygon>
        <polygon id="path-9" points="3.17460317e-05 0.052952381 13.5743175 0.052952381 13.5743175 19.2063492 3.17460317e-05 19.2063492"></polygon>
    </defs>
    <g id="Page-1" stroke="none" stroke-width="1" fill="none" fill-rule="evenodd">
        <g id="WPHelper_Woocommerce_LienketTMDT_preview_all" transform="translate(-635.000000, -891.000000)">
            <g id="Group-78" transform="translate(635.000000, 891.000000)">
                <rect id="Rectangle-Copy-40" fill="#00AAF0" x="0" y="0" width="135" height="50" rx="4"></rect>
                <g id="Group-24" transform="translate(27.000000, 10.000000)">
                    <g id="Group-3" transform="translate(14.285714, 10.758095)">
                        <mask id="mask-2" fill="white">
                            <use xlink:href="#path-1"></use>
                        </mask>
                        <g id="Clip-2"></g>
                        <path d="M1.96493651,0.052952381 C0.913031746,0.052952381 0.0601746032,0.905809524 0.0601746032,1.95771429 L0.0601746032,17.3016825 C0.0601746032,18.3534286 0.913031746,19.2064444 1.96493651,19.2064444 C3.01684127,19.2064444 3.86969841,18.3534286 3.86969841,17.3016825 L3.86969841,1.95771429 C3.86969841,0.905809524 3.01684127,0.052952381 1.96493651,0.052952381" id="Fill-1" fill="#FFFFFF" mask="url(#mask-2)"></path>
                    </g>
                    <path d="M62.5304127,10.7434603 C61.7175556,10.7434603 61.0256508,11.2534603 60.752,11.9702857 L56.6512063,22.6529841 L52.4359683,11.9344127 C52.4312063,11.9225079 52.4269206,11.910127 52.4218413,11.8982222 L52.3985079,11.8390159 L52.3942222,11.8409206 C52.0900952,11.1931429 51.4339048,10.7434603 50.6708889,10.7434603 C49.6188254,10.7434603 48.766127,11.5963175 48.766127,12.6482222 C48.766127,12.8517143 48.7986667,13.0475873 48.857873,13.2313968 L48.8532698,13.2333016 L54.7332698,28.1852063 C54.8772381,29.1139365 55.6780317,29.8255238 56.6470794,29.8255238 C57.5646984,29.8255238 58.3316825,29.1874286 58.5329524,28.3310794 L58.549619,28.3374286 L64.3100952,13.3315556 L64.3070794,13.3304444 C64.3886667,13.118381 64.4351746,12.8890159 64.4351746,12.6482222 C64.4351746,11.5963175 63.5823175,10.7434603 62.5304127,10.7434603" id="Fill-4" fill="#FFFFFF"></path>
                    <g id="Group-8" transform="translate(20.634921, 10.599365)">
                        <mask id="mask-4" fill="white">
                            <use xlink:href="#path-3"></use>
                        </mask>
                        <g id="Clip-7"></g>
                        <path d="M14.1762222,15.9460476 L7.52066667,9.05493651 L13.2720952,3.30366667 L13.2676508,3.29922222 C13.5595556,2.96446032 13.7378095,2.52795238 13.7378095,2.04890476 C13.7378095,0.99684127 12.8849524,0.144142857 11.8330476,0.144142857 C11.354,0.144142857 10.9173333,0.322238095 10.5827302,0.614301587 L10.5782857,0.609857143 L3.83812698,7.3501746 L3.83812698,2.11652381 C3.83812698,1.06446032 2.98526984,0.211761905 1.93336508,0.211761905 C0.881301587,0.211761905 0.0286031746,1.06446032 0.0286031746,2.11652381 L0.0286031746,17.4603333 C0.0286031746,18.5122381 0.881301587,19.3650952 1.93336508,19.3650952 C2.98526984,19.3650952 3.83812698,18.5122381 3.83812698,17.4603333 L3.83812698,12.7374762 L4.82653968,11.7490635 L11.5068571,18.6658889 L11.5093968,18.6635079 C11.8544762,19.0109683 12.332254,19.2262063 12.8605079,19.2262063 C13.9125714,19.2262063 14.7652698,18.3733492 14.7652698,17.3214444 C14.7652698,16.7801746 14.5386032,16.292873 14.1762222,15.9460476" id="Fill-6" fill="#FFFFFF" mask="url(#mask-4)"></path>
                    </g>
                    <path d="M45.3187302,26.0160476 C44.2668254,26.0160476 43.4139683,26.868746 43.4139683,27.9208095 C43.4139683,28.9727143 44.2668254,29.8255714 45.3187302,29.8255714 C46.3707937,29.8255714 47.2234921,28.9727143 47.2234921,27.9208095 C47.2234921,26.868746 46.3707937,26.0160476 45.3187302,26.0160476" id="Fill-9" fill="#FFFFFF"></path>
                    <g id="Group-13" transform="translate(36.666667, 10.758095)">
                        <mask id="mask-6" fill="white">
                            <use xlink:href="#path-5"></use>
                        </mask>
                        <g id="Clip-12"></g>
                        <path d="M2.0328254,0.052952381 C0.980920635,0.052952381 0.128063492,0.905809524 0.128063492,1.95771429 L0.128063492,17.3016825 C0.128063492,18.3534286 0.980920635,19.2064444 2.0328254,19.2064444 C3.08473016,19.2064444 3.9375873,18.3534286 3.9375873,17.3016825 L3.9375873,1.95771429 C3.9375873,0.905809524 3.08473016,0.052952381 2.0328254,0.052952381" id="Fill-11" fill="#FFFFFF" mask="url(#mask-6)"></path>
                    </g>
                    <g id="Group-16" transform="translate(65.396825, 10.758095)">
                        <mask id="mask-8" fill="white">
                            <use xlink:href="#path-7"></use>
                        </mask>
                        <g id="Clip-15"></g>
                        <path d="M13.9144921,0.052952381 C12.8625873,0.052952381 12.0097302,0.905809524 12.0097302,1.95771429 L12.0097302,12.0558095 L3.36988889,0.623111111 L3.35465079,0.634698413 C3.00830159,0.276444444 2.52353968,0.052952381 1.98607937,0.052952381 C0.934174603,0.052952381 0.0813174603,0.905809524 0.0813174603,1.95771429 L0.0813174603,17.3016825 C0.0813174603,18.3534286 0.934174603,19.2064444 1.98607937,19.2064444 C3.03814286,19.2064444 3.89084127,18.3534286 3.89084127,17.3016825 L3.89084127,7.02834921 L12.3175079,18.1791429 C12.3657619,18.2532698 12.4190952,18.3234286 12.476873,18.3897778 L12.5521111,18.4894603 L12.5613175,18.4826349 C12.9063968,18.8313651 13.385127,19.0477143 13.9144921,19.0477143 C14.9129048,19.0477143 15.7303651,18.2791429 15.8113175,17.3016825 L15.819254,17.3016825 L15.819254,1.95771429 C15.819254,0.905809524 14.9665556,0.052952381 13.9144921,0.052952381" id="Fill-14" fill="#FFFFFF" mask="url(#mask-8)"></path>
                    </g>
                    <g id="Group-19" transform="translate(0.000000, 10.758095)">
                        <mask id="mask-10" fill="white">
                            <use xlink:href="#path-9"></use>
                        </mask>
                        <g id="Clip-18"></g>
                        <path d="M11.6695556,0.052952381 L1.90479365,0.052952381 C0.852730159,0.052952381 3.17460317e-05,0.905809524 3.17460317e-05,1.95771429 C3.17460317e-05,3.00961905 0.852730159,3.86247619 1.90479365,3.86247619 L4.8824127,3.86247619 L4.8824127,17.3016825 C4.8824127,18.3534286 5.73511111,19.2064444 6.7871746,19.2064444 C7.83907937,19.2064444 8.69193651,18.3534286 8.69193651,17.3016825 L8.69193651,3.86247619 L11.6695556,3.86247619 C12.7214603,3.86247619 13.5743175,3.00961905 13.5743175,1.95771429 C13.5743175,0.905809524 12.7214603,0.052952381 11.6695556,0.052952381" id="Fill-17" fill="#FFFFFF" mask="url(#mask-10)"></path>
                    </g>
                    <path d="M16.2506508,8.29733333 C14.2877937,8.29733333 12.6966825,6.61336508 12.6966825,4.53606349 C12.6966825,4.27638095 12.7214444,4.02288889 12.768746,3.77812698 L19.7457302,3.85034921 C19.7844603,4.07273016 19.804619,4.30193651 19.804619,4.53606349 C19.804619,6.61336508 18.2133492,8.29733333 16.2506508,8.29733333 M16.2506508,3.17460317e-05 C13.7454127,3.17460317e-05 11.7144603,2.0308254 11.7144603,4.53606349 C11.7144603,7.04130159 13.7454127,9.07225397 16.2506508,9.07225397 C18.7558889,9.07225397 20.7866825,7.04130159 20.7866825,4.53606349 C20.7866825,2.0308254 18.7558889,3.17460317e-05 16.2506508,3.17460317e-05" id="Fill-20" fill="#FFFFFF"></path>
                    <path d="M38.6994921,8.29733333 C36.7366349,8.29733333 35.1455238,6.61336508 35.1455238,4.53606349 C35.1455238,4.27638095 35.1704444,4.02288889 35.217746,3.77812698 L42.1945714,3.85034921 C42.2333016,4.07273016 42.2534603,4.30193651 42.2534603,4.53606349 C42.2534603,6.61336508 40.6621905,8.29733333 38.6994921,8.29733333 M38.6994921,3.17460317e-05 C36.194254,3.17460317e-05 34.1634603,2.0308254 34.1634603,4.53606349 C34.1634603,7.04130159 36.194254,9.07225397 38.6994921,9.07225397 C41.2047302,9.07225397 43.2355238,7.04130159 43.2355238,4.53606349 C43.2355238,2.0308254 41.2047302,3.17460317e-05 38.6994921,3.17460317e-05" id="Fill-22" fill="#FFFFFF"></path>
                </g>
            </g>
        </g>
    </g>
</svg>