<?xml version="1.0" encoding="UTF-8"?>
<svg width="135px" height="50px" viewBox="0 0 135 50" version="1.1" xmlns="http://www.w3.org/2000/svg" xmlns:xlink="http://www.w3.org/1999/xlink">
    <!-- Generator: Sketch 61.2 (89653) - https://sketch.com -->
    <title>Group 79</title>
    <desc>Created with Sketch.</desc>
    <defs>
        <polygon id="path-1" points="0 0.432901408 16.1554479 0.432901408 16.1554479 22.5349859 0 22.5349859"></polygon>
        <polygon id="path-3" points="0.310309859 0.0568788732 18.1514366 0.0568788732 18.1514366 22.9859155 0.310309859 22.9859155"></polygon>
        <polygon id="path-5" points="0.170005634 0.288901408 8.34704225 0.288901408 8.34704225 8.36867606 0.170005634 8.36867606"></polygon>
    </defs>
    <g id="Page-1" stroke="none" stroke-width="1" fill="none" fill-rule="evenodd">
        <g id="WPHelper_Woocommerce_LienketTMDT_preview_all" transform="translate(-635.000000, -961.000000)">
            <g id="Group-79" transform="translate(635.000000, 961.000000)">
                <rect id="Rectangle-Copy-73" fill="#ED1C24" x="0" y="0" width="135" height="50" rx="4"></rect>
                <g id="Group-20" transform="translate(19.000000, 13.000000)">
                    <g id="Group-3" transform="translate(0.000000, 0.844890)">
                        <mask id="mask-2" fill="white">
                            <use xlink:href="#path-1"></use>
                        </mask>
                        <g id="Clip-2"></g>
                        <path d="M1.52649014,17.224338 C2.79837746,17.9873803 4.61110986,18.5917746 6.58294085,18.5917746 C8.36367324,18.5917746 9.98620845,17.7647324 9.98620845,16.1110986 C9.98620845,14.8707606 9.0636169,14.1077183 7.09178592,13.0580282 C4.83375775,11.8496901 2.67127887,10.1640563 2.67127887,7.3971831 C2.67127887,3.04067606 6.42384225,0.432901408 11.0989972,0.432901408 C13.7067718,0.432901408 15.233307,1.00529577 16.1554479,1.48214085 L14.724462,5.29870423 C14.0245183,4.91695775 12.4984338,4.34411268 10.7492507,4.37611268 C8.58677183,4.37611268 7.47353239,5.42580282 7.47353239,6.60214085 C7.47353239,7.84247887 8.77741972,8.63752113 10.5901521,9.65566197 C13.1979268,10.9910986 14.8515606,12.7402817 14.8515606,15.316507 C14.8515606,20.0867606 10.9078986,22.5349859 6.13764507,22.5349859 C3.14857465,22.5034366 1.01764507,21.7403944 -4.50704225e-05,21.0084507 L1.52649014,17.224338 Z" id="Fill-1" fill="#FFFFFF" mask="url(#mask-2)"></path>
                    </g>
                    <path d="M23.914907,10.4684169 C21.7839775,10.4684169 20.5436394,12.2496 20.225893,13.6801352 C23.8193577,13.7121352 25.6000901,13.2352901 25.6000901,11.7723042 C25.6000901,11.009262 24.9641465,10.4684169 23.914907,10.4684169 L23.914907,10.4684169 Z M27.9536676,22.1398535 C26.1409352,23.0619944 23.882907,23.3797408 22.1337239,23.3797408 C17.7132169,23.3797408 15.4236394,20.8675155 15.4236394,16.7972056 C15.4236394,12.0585014 18.8580056,7.1291493 24.4873014,7.1291493 C27.6354704,7.1291493 29.8934986,8.90988169 29.8934986,11.8038535 C29.8934986,15.7475155 26.0458366,17.1789521 19.7805972,17.0194028 C19.8121465,17.4646986 19.9712451,18.1646423 20.2894423,18.6094873 C20.8933859,19.4045296 21.9430761,19.8182761 23.2785127,19.8182761 C24.9641465,19.8182761 26.3951324,19.4365296 27.6354704,18.8325859 L27.9536676,22.1398535 Z" id="Fill-4" fill="#FFFFFF"></path>
                    <path d="M28.9393577,23.0304901 L30.9111887,12.5353915 C31.3244845,10.5635606 31.6381746,8.52863099 31.8608225,7.12919437 L35.8995831,7.12919437 L35.5223437,10.0547155 L35.585893,10.0547155 C37.0488789,8.05133521 38.9571606,7.12919437 41.0240901,7.12919437 C43.5683155,7.12919437 45.0313014,8.68727887 45.0313014,11.3906028 C45.0313014,12.0905465 44.9037521,13.2353352 44.7766535,13.9983775 L43.0594704,23.0304901 L38.4483155,23.0304901 L40.1019493,14.4116732 C40.1974986,13.8712789 40.2610479,13.2668845 40.2610479,12.6944901 C40.2610479,11.5817014 39.8793014,10.8182085 38.7025127,10.8182085 C37.2079775,10.8182085 35.4587944,12.6944901 34.8228507,16.1288563 L33.5189634,23.0304901 L28.9393577,23.0304901 Z" id="Fill-6" fill="#FFFFFF"></path>
                    <g id="Group-10" transform="translate(45.070423, 0.394186)">
                        <mask id="mask-4" fill="white">
                            <use xlink:href="#path-3"></use>
                        </mask>
                        <g id="Clip-9"></g>
                        <path d="M11.6,10.7421746 C11.2182535,10.4239775 10.5187606,10.2013296 9.78771831,10.2013296 C7.02084507,10.2013296 5.08056338,13.3814986 5.08056338,16.3710197 C5.08056338,18.2473014 5.90760563,19.2969915 7.21149296,19.2969915 C8.54738028,19.2969915 10.1690141,17.8975549 10.7734085,14.9080338 L11.6,10.7421746 Z M18.1514366,0.0568788732 L15.0032676,16.5936676 C14.6210704,18.5654986 14.3348732,20.7915268 14.2717746,22.6362592 L10.0734648,22.6362592 L10.2961127,20.1240338 L10.2325634,20.1240338 C8.86512676,22.1909634 6.95684507,22.9860056 5.11211268,22.9860056 C2.47278873,22.9860056 0.310309859,20.8870761 0.310309859,17.1025127 C0.310309859,11.6963155 4.22197183,6.70341408 10.1054648,6.70341408 C10.7414085,6.70341408 11.5684507,6.83051268 12.2359437,7.08470986 L13.6033803,0.0568788732 L18.1514366,0.0568788732 Z" id="Fill-8" fill="#FFFFFF" mask="url(#mask-4)"></path>
                    </g>
                    <path d="M66.1475606,16.8605746 C66.1475606,18.673307 67.0381521,19.8816451 68.6597859,19.8816451 C71.1089127,19.8816451 72.5398986,16.1930817 72.5398986,13.553307 C72.5398986,12.1223211 71.9035042,10.5957859 70.0912225,10.5957859 C67.4514479,10.5957859 66.1475606,14.4438986 66.1475606,16.8605746 M77.2781521,13.521307 C77.2781521,19.2141521 73.3669408,23.3800113 67.992293,23.3800113 C64.048631,23.3800113 61.4088563,20.8042366 61.4088563,16.9245746 C61.4088563,11.5494761 65.1614197,7.09741972 70.6951662,7.09741972 C74.8614761,7.09741972 77.2781521,9.95939155 77.2781521,13.521307" id="Fill-11" fill="#FFFFFF"></path>
                    <path d="M76.3786366,21.8975549 C76.3786366,21.0434704 76.999707,20.314231 77.8839887,20.314231 C78.6443268,20.314231 79.1721014,20.8573296 79.1721014,21.6487662 C79.1721014,22.5492732 78.535707,23.1852169 77.6203268,23.1852169 C76.8757634,23.1852169 76.3786366,22.6421183 76.3786366,21.8975549" id="Fill-13" fill="#FFFFFF"></path>
                    <path d="M82.3359099,15.2703549 L82.7081915,18.7344676 C82.7888676,19.7052845 82.8699944,20.3042704 82.9182197,20.887031 L82.9668958,20.887031 C83.1773746,20.3204958 83.4203042,19.7215099 83.8574873,18.750693 L85.4439662,15.2703549 L88.0494873,15.2703549 L83.6465577,23.1856225 L81.2677408,23.1856225 L79.9404169,15.2703549 L82.3359099,15.2703549 Z" id="Fill-15" fill="#FFFFFF"></path>
                    <g id="Group-19" transform="translate(87.436620, 14.816721)">
                        <mask id="mask-6" fill="white">
                            <use xlink:href="#path-5"></use>
                        </mask>
                        <g id="Clip-18"></g>
                        <path d="M0.170005634,8.36867606 L1.17237183,3.03594366 C1.3819493,2.03402817 1.49507606,1.17769014 1.60820282,0.466478873 L3.66070986,0.466478873 L3.51513239,1.77532394 L3.5475831,1.77532394 C4.29124507,0.757183099 5.26070986,0.288901408 6.3108507,0.288901408 C7.60392113,0.288901408 8.34713239,1.08033803 8.34713239,2.45408451 C8.34713239,2.80969014 8.28268169,3.3915493 8.21778028,3.77915493 L7.3452169,8.36867606 L5.00200563,8.36867606 L5.84256901,3.9891831 C5.89079437,3.71470423 5.92324507,3.40732394 5.92324507,3.11661972 C5.92324507,2.55143662 5.72944225,2.16292958 5.13135775,2.16292958 C4.37147042,2.16292958 3.48313239,3.11661972 3.15997746,4.86219718 L2.49699155,8.36867606 L0.170005634,8.36867606 Z" id="Fill-17" fill="#FFFFFF" mask="url(#mask-6)"></path>
                    </g>
                </g>
            </g>
        </g>
    </g>
</svg>