<?xml version="1.0" encoding="UTF-8"?>
<svg width="166px" height="30px" viewBox="0 0 166 30" version="1.1" xmlns="http://www.w3.org/2000/svg" xmlns:xlink="http://www.w3.org/1999/xlink">
    <!-- Generator: Sketch 61.2 (89653) - https://sketch.com -->
    <title>Group 34</title>
    <desc>Created with Sketch.</desc>
    <defs>
        <polygon id="path-1" points="0 0.00384260115 29.7548491 0.00384260115 29.7548491 27.4676262 0 27.4676262"></polygon>
        <polygon id="path-3" points="0.239771985 0.397784091 11.23435 0.397784091 11.23435 12.228147 0.239771985 12.228147"></polygon>
    </defs>
    <g id="Page-1" stroke="none" stroke-width="1" fill="none" fill-rule="evenodd">
        <g id="WPHelper_Woocommerce_Vidientu" transform="translate(-680.000000, -1037.000000)">
            <g id="Group-34" transform="translate(680.000000, 1037.000000)">
                <g id="Group-28">
                    <g id="Group-3">
                        <mask id="mask-2" fill="white">
                            <use xlink:href="#path-1"></use>
                        </mask>
                        <g id="Clip-2"></g>
                        <path d="M22.7212973,0.0106460396 L0.961567568,2.93354208 C0.961567568,2.93354208 -5.40540541e-05,3.04980446 -5.40540541e-05,4.21242822 L-5.40540541e-05,25.0318342 C-5.40540541e-05,25.0318342 0.126432432,27.4676262 2.89589189,27.4676262 L27.556973,27.4676262 C27.556973,27.4676262 29.7548491,26.9364134 29.7548491,24.7219827 L29.7548491,7.53911139 C29.7548491,7.53911139 29.7988649,5.10359158 26.8975135,5.10359158 L3.11562162,5.10359158 C3.11562162,5.10359158 2.19237838,4.94839356 1.95616216,3.9687401 C1.88481081,3.5812896 2.03859459,3.54235396 2.44535135,3.54235396 L24.2818378,3.54235396 L24.2818378,1.1732698 C24.2818378,1.1732698 24.2050811,-0.0998985149 22.7212973,0.0106460396" id="Fill-1" fill="#ED4C2F" mask="url(#mask-2)"></path>
                    </g>
                    <path d="M15.4465583,24 C13.611394,24 12.2607153,23.2614052 10.2683611,21.3128182 C9.91303501,20.9655157 9.91028694,20.3993502 10.2617657,20.0482461 C10.6135193,19.697142 11.1864928,19.6944266 11.5418189,20.0420006 C13.6394244,22.092959 14.6138917,22.6023722 16.2893928,22.1529698 C17.2633105,21.8920178 18.1374731,20.6649185 18.1885873,19.2580582 C18.2281596,18.1634716 17.4474315,17.4501302 15.8678382,17.1378566 C13.0320998,16.5773935 11.3587971,15.5056163 10.8943725,13.9523949 C10.5200847,12.7008568 11.0106161,11.3048582 12.2403795,10.1214772 L12.2912189,10.0761297 C14.9354164,7.89238717 18.0044663,9.51946814 19.258138,10.6851989 C19.6222579,11.023812 19.6395707,11.589706 19.2968858,11.9492279 C18.9547505,12.3087498 18.3834258,12.325857 18.0193059,11.9894162 C17.9132302,11.8919325 15.5380692,9.75951146 13.4783872,11.4273238 C12.7743304,12.1148687 12.4574774,12.8673121 12.6303313,13.4454255 C12.8823298,14.2872064 14.1579861,14.9758375 16.2228894,15.3839654 C19.7332801,16.0777558 20.0319958,18.3693006 19.9976449,19.3221422 C19.9223476,21.3972678 18.1655034,23.7219408 16.5163838,23.9277698 C16.1387983,23.9750181 15.7842967,24 15.4465583,24" id="Fill-4" fill="#FFFFFF"></path>
                </g>
                <g id="Group-29" transform="translate(38.000000, 4.000000)">
                    <path d="M10.1446145,9.37028279 C9.40272275,8.92636758 8.51771917,8.52885661 7.46441607,8.24819486 C5.52610939,7.7109121 4.11388181,7.00925772 3.44354598,6.12142731 C2.84591096,5.34988703 2.84591096,4.34520741 3.56318748,3.05930694 C3.97019753,2.28832575 4.95137227,1.79744723 6.21991556,1.70352058 C7.53597199,1.61015303 9.13939697,1.91429644 10.8149503,2.75516353 C11.2219604,2.96593939 11.7486119,2.80212685 11.9638521,2.38169331 C12.1790923,1.98418234 12.0119377,1.46982215 11.5808849,1.25960538 C9.61853539,0.277848331 7.67965627,-0.0961809776 6.07623128,0.0206682385 C4.20948052,0.160999115 2.74973981,0.956021054 2.03189085,2.24136243 C0.955117414,4.18139487 1.02667333,5.77087966 2.03189085,7.10318436 C2.96498001,8.29515818 4.66457615,9.20702934 6.9858501,9.83767965 C7.89489647,10.0948597 8.660831,10.4219257 9.25903847,10.7724734 C10.1686573,11.3103152 10.7668647,11.9415246 11.0542333,12.6191383 C11.3416019,13.2503477 11.3656447,13.951443 11.1738748,14.6290566 C11.0782761,14.9566817 10.910549,15.2837477 10.7193516,15.6113727 C10.7193516,15.657777 10.671266,15.7047403 10.6237529,15.7746262 C9.9293743,16.7798649 8.80451528,17.293666 7.44037328,17.293666 C5.93311945,17.293666 4.08983902,16.7094199 2.12748956,15.5409278 C1.84069344,15.3771152 1.57736767,15.2138618 1.33808468,15.0500492 C0.931074626,14.7928691 0.404423077,14.9097184 0.141097303,15.2837477 C-0.122228472,15.6812586 -0.00258697872,16.1956188 0.380380289,16.4522398 C0.69179164,16.6624566 0.978587755,16.8262691 1.1944004,17.0135633 C3.44354598,18.345868 5.57362252,19 7.39228771,19 C9.35520962,19 10.9826774,18.2525005 12.0119377,16.7563832 C12.035408,16.7094199 12.0834936,16.6160524 12.1550495,16.5226848 C12.4424181,16.0787696 12.6576583,15.5878911 12.8013426,15.1199351 C13.1127539,14.0917738 13.0646684,12.9931676 12.6101452,11.9879289 C12.1790923,11.0061718 11.3656447,10.0948597 10.1446145,9.37028279" id="Fill-6" fill="#ED4C2F"></path>
                    <path d="M22.9174719,7.51112028 C22.0597972,7.27716735 21.0629653,7.30067458 20.0428481,7.60458951 C19.0759544,7.89283295 18.0985268,8.43293958 17.1693331,9.24729726 L17.1693331,0.795328011 C17.1693331,0.35092939 16.7984318,0 16.3349438,0 C15.8709013,0 15.5,0.35092939 15.5,0.795328011 L15.5,18.1811648 C15.5,18.6255634 15.8709013,18.9764928 16.3349438,18.9764928 C16.7984318,18.9764928 17.1693331,18.6255634 17.1693331,18.1811648 L17.1693331,11.6741391 C17.1843022,11.6590273 17.2009346,11.6461543 17.2153493,11.6293634 C18.2587518,10.3426223 19.4174719,9.54673462 20.5296214,9.19580523 C21.2481388,8.98535953 21.9206399,8.9618523 22.5,9.12584323 C23.0566292,9.28927446 23.4968319,9.59374908 23.8211627,10.0381477 C24.1460478,10.5060536 24.3312213,11.1379503 24.3312213,11.9332783 L24.3312213,18.1576575 C24.3312213,18.6255634 24.7021226,19 25.1656106,19 C25.6296531,19 26,18.6255634 26,18.1576575 L26,11.9332783 C26,10.7870209 25.6989545,9.82770201 25.1656106,9.07882876 C24.6095359,8.28294106 23.8211627,7.76858043 22.9174719,7.51112028" id="Fill-8" fill="#ED4C2F"></path>
                    <path d="M37.5357349,16.5361689 C36.7409222,17.3073875 35.6804035,17.789255 34.4994236,17.789255 C33.3195965,17.789255 32.2348703,17.3073875 31.4636888,16.5361689 C30.6925072,15.7649503 30.2106628,14.6807484 30.2106628,13.4997118 C30.2106628,12.3192516 30.6925072,11.2350497 31.4636888,10.4638311 C32.2590778,9.69261252 33.3195965,9.21074499 34.4994236,9.21074499 C35.6804035,9.21074499 36.7651297,9.69261252 37.5357349,10.4638311 C38.3069164,11.2350497 38.7893372,12.3192516 38.7893372,13.4997118 C38.7893372,14.6807484 38.3069164,15.7649503 37.5357349,16.5361689 M34.4994236,7.5 C32.8613833,7.5 31.3432277,8.17438398 30.2590778,9.2591623 C29.1743516,10.3433642 28.5,11.8373841 28.5,13.4997118 C28.5,15.1626159 29.1743516,16.6566358 30.2590778,17.7408377 C31.3432277,18.825616 32.8377522,19.5 34.4994236,19.5 C36.1622478,19.5 37.6567723,18.825616 38.7409222,17.7408377 C39.825072,16.6566358 40.5,15.1626159 40.5,13.4997118 C40.5,11.8373841 39.825072,10.3433642 38.7409222,9.2591623 C37.6567723,8.17438398 36.1622478,7.5 34.4994236,7.5" id="Fill-10" fill="#ED4C2F"></path>
                    <path d="M52.0530005,16.3940017 C51.269218,17.1530866 50.2234169,17.6273728 49.0588263,17.6273728 C47.8953725,17.6273728 46.8256998,17.1530866 46.0652205,16.3940017 C45.3047412,15.6349167 44.8295837,14.5677727 44.8295837,13.4053176 C44.8295837,12.2434297 45.3047412,11.1762857 46.0652205,10.4172008 C46.8495714,9.65811586 47.8953725,9.18382962 49.0588263,9.18382962 C50.2234169,9.18382962 51.2925212,9.65811586 52.0530005,10.4172008 C52.8134798,11.1762857 53.2892057,12.2434297 53.2892057,13.4053176 C53.2892057,14.5677727 52.8134798,15.6349167 52.0530005,16.3940017 M49.0826979,7.5 C47.4435182,7.5 45.9703027,8.1637738 44.9011983,9.23148517 C44.8295837,9.2785734 44.7824089,9.3494894 44.7107943,9.42097274 L44.7107943,8.3538287 C44.7107943,7.87954246 44.3305546,7.5 43.8553971,7.5 C43.3802397,7.5 43,7.87954246 43,8.3538287 L43,25.1461713 C43,25.6204575 43.3802397,26 43.8553971,26 C44.3305546,26 44.7107943,25.6204575 44.7107943,25.1461713 L44.7107943,17.3902297 C44.7824089,17.4373179 44.8295837,17.5088013 44.9011983,17.5797173 C45.9703027,18.6474286 47.4435182,19.3112024 49.0826979,19.3112024 C50.7224459,19.3112024 52.1956614,18.6474286 53.2653342,17.5797173 C54.3344385,16.5125732 55,15.0420589 55,13.4053176 C55,11.7691435 54.3344385,10.2986292 53.2653342,9.23148517 C52.1956614,8.1637738 50.7224459,7.5 49.0826979,7.5" id="Fill-12" fill="#ED4C2F"></path>
                    <path d="M59.3163311,12.1740286 C59.5326341,11.451312 59.941654,10.8248423 60.4467446,10.3188254 C61.144552,9.64394406 62.0580872,9.23417411 63.044107,9.23417411 C64.0301267,9.23417411 64.9442372,9.64394406 65.6414693,10.3188254 C66.14656,10.8248423 66.5314183,11.451312 66.7960444,12.1740286 L59.3163311,12.1740286 Z M66.8443674,9.09009184 C65.8577724,8.07805804 64.5110558,7.5 63.044107,7.5 C61.5771581,7.5 60.20628,8.05385222 59.2444218,9.09009184 C57.1757363,11.3308592 57.1998978,13.7399146 58.0173622,16.1737522 C58.3786343,17.2820329 59.1477758,18.077367 60.0377247,18.6554251 C60.9276737,19.2340594 62.0103395,19.5228003 63.2362485,19.4985945 C64.4391466,19.4743886 65.7858631,19.1856478 67.2292258,18.5833839 C67.6618319,18.3903137 67.8781349,17.8842968 67.6859934,17.4508973 C67.4938518,17.0169216 66.9887612,16.8002219 66.5555798,16.9927158 C65.304934,17.5229385 64.1745205,17.7880498 63.212087,17.7880498 C62.3227133,17.7880498 61.5529966,17.5949796 60.9518352,17.2099918 C60.3748353,16.8244277 59.9174924,16.2699991 59.6051186,15.5230767 C59.4365633,15.0412656 59.2921695,14.5110429 59.2202603,13.9329848 L67.1809027,13.9329848 C67.6140841,13.9329848 69.0327099,14.0292318 68.2871548,11.5959705 C67.9989425,10.7285953 67.6618319,9.90905542 66.8443674,9.09009184 L66.8443674,9.09009184 Z" id="Fill-14" fill="#ED4C2F"></path>
                    <g id="Group-18" transform="translate(70.000000, 7.000000)">
                        <mask id="mask-4" fill="white">
                            <use xlink:href="#path-3"></use>
                        </mask>
                        <g id="Clip-17"></g>
                        <path d="M2.0551075,5.00573864 C2.2718825,4.29323864 2.6801325,3.675625 3.1849825,3.17676136 C3.8824575,2.51142045 4.7961325,2.10744318 5.7811075,2.10744318 C6.7666575,2.10744318 7.6803325,2.51142045 8.3772325,3.17676136 C8.8820825,3.675625 9.2667575,4.29323864 9.5312575,5.00573864 L2.0551075,5.00573864 Z M11.0222325,4.43585227 C10.7335825,3.58073864 10.3972075,2.77278409 9.5795575,1.96539773 C8.5940075,0.967670455 7.2473575,0.397784091 5.7811075,0.397784091 C4.3154325,0.397784091 2.9446325,0.943806818 1.9832325,1.96539773 C-0.0844675,4.17448864 -0.0603175,6.54948864 0.7573325,8.94892045 C1.1178575,10.0415341 1.8872075,10.825625 2.7767325,11.3955114 C3.6662575,11.9659659 4.7478325,12.250625 5.9731575,12.2267614 C7.1754825,12.2028977 8.5215575,11.9182386 9.9642325,11.3244886 C10.3972075,11.1341477 10.6134075,10.6352841 10.4207825,10.2080114 C10.2287325,9.78017045 9.7238825,9.56653409 9.2909075,9.75630682 C8.0408575,10.2790341 6.9109825,10.5403977 5.9495825,10.5403977 C5.0606325,10.5403977 4.2912825,10.3500568 3.6898325,9.97051136 C3.1131075,9.59039773 2.6565575,9.04380682 2.3437575,8.30744318 C2.1752825,7.83244318 2.0315325,7.30971591 1.9590825,6.73982955 L9.9159325,6.73982955 C10.3489075,6.73982955 11.7674325,6.83471591 11.0222325,4.43585227 L11.0222325,4.43585227 Z" id="Fill-16" fill="#ED4C2F" mask="url(#mask-4)"></path>
                    </g>
                </g>
                <g id="Group-30" transform="translate(124.000000, 5.500000)" fill="#ED4C2F">
                    <path d="M7.27893516,8.93505406 L2.61947421,8.93505406 L2.61947421,2.46836033 L6.8244118,2.46836033 C6.8974815,2.46836033 6.96846349,2.47149494 7.04123495,2.47947394 C7.68066939,2.54758039 10.4778968,3.01007737 10.4778968,5.87539291 C10.4778968,8.93505406 7.27893516,8.93505406 7.27893516,8.93505406 M6.4563791,0 L0,0 L0,16.5 L2.61947421,16.5 L2.61947421,11.5755328 L6.73762289,11.5755328 C8.11789462,11.5755328 9.48832431,11.2575127 10.6759306,10.585282 C12.0881144,9.78595731 13.5,8.37823391 13.5,5.94406929 C13.5,3.66236054 12.2590081,2.21360229 10.9401745,1.31824462 C9.63684966,0.43314566 8.05556169,0 6.4563791,0" id="Fill-19"></path>
                    <path d="M19.5887941,14.7732287 C17.4756295,14.7732287 15.7589405,13.0843935 15.7589405,10.9981171 C15.7589405,8.91473748 17.4756295,7.22619191 19.5887941,7.22619191 C21.7040159,7.22619191 23.4160024,8.91270972 23.4186476,10.9934822 L23.4186476,11.0024623 C23.4160024,13.0870006 21.7040159,14.7732287 19.5887941,14.7732287 L19.5887941,14.7732287 Z M23.4186476,5.1619312 L23.4186476,6.34208811 C22.3735275,5.50230537 21.0406762,5 19.5887941,5 C16.2330065,5 13.5,7.69054919 13.5,10.9981171 C13.5,14.3085818 16.2330065,16.9994206 19.5887941,16.9994206 C21.0406762,16.9994206 22.3735275,16.4968256 23.4186476,15.6576222 L23.4186476,17 L26,17 L26,5.1619312 L23.4186476,5.1619312 Z" id="Fill-21"></path>
                    <polygon id="Fill-23" points="27 5 30.4445197 5 34.4863397 12.6232406 38.3853589 5 41.5 5 32.2331951 22 29.2000708 22 32.7340243 15.6898756"></polygon>
                </g>
            </g>
        </g>
    </g>
</svg>