<?xml version="1.0" encoding="UTF-8"?>
<svg width="135px" height="50px" viewBox="0 0 135 50" version="1.1" xmlns="http://www.w3.org/2000/svg" xmlns:xlink="http://www.w3.org/1999/xlink">
    <!-- Generator: Sketch 61.2 (89653) - https://sketch.com -->
    <title>Group 76</title>
    <desc>Created with Sketch.</desc>
    <defs>
        <linearGradient x1="0%" y1="49.2300026%" x2="100%" y2="50%" id="linearGradient-1">
            <stop stop-color="#FF6333" offset="0%"></stop>
            <stop stop-color="#F53E2D" offset="100%"></stop>
        </linearGradient>
    </defs>
    <g id="Page-1" stroke="none" stroke-width="1" fill="none" fill-rule="evenodd">
        <g id="WPHelper_Woocommerce_LienketTMDT_preview" transform="translate(-635.000000, -751.000000)">
            <g id="Group-76" transform="translate(635.000000, 751.000000)">
                <rect id="Rectangle-Copy-36" fill="url(#linearGradient-1)" x="0" y="0" width="135" height="50" rx="4"></rect>
                <g id="Group-73" transform="translate(19.000000, 10.000000)" fill="#FFFFFF" fill-rule="nonzero">
                    <path d="M87.6675588,18.6904506 C88.0502991,17.5824647 89.1351905,16.875 90.411829,16.875 C91.6630855,16.875 92.8359344,17.6392551 93.2189259,18.6904506 L93.28125,18.75 L87.65625,18.75 L87.6675588,18.6904506 Z M94.6065982,20.5416947 C94.62423,20.5416947 94.62423,20.5416947 94.6523386,20.5416947 C94.6704815,20.5416947 94.6704815,20.5416947 94.6704815,20.5416947 C94.9301032,20.5362387 95.15625,20.2777302 95.15625,20.0132461 C95.15625,19.9786917 95.1552279,19.9488139 95.1526725,19.9462158 C95.1536947,19.9462158 95.1536947,19.9462158 95.1536947,19.9158183 C95.1536947,17.1756283 93.047846,15 90.4526514,15 C87.8641007,15 85.78125,17.1756283 85.78125,19.9158183 C85.78125,20.1265222 85.78125,20.3351477 85.8188134,20.5409152 L85.8218798,20.5416947 L85.8397671,20.6014504 C85.9672781,21.5663756 86.3651432,22.4533585 87.0139419,23.1802999 L87.0139419,23.1802999 C87.728157,23.9945368 88.7009717,24.5642947 89.8038528,24.763567 L89.8038528,24.763567 L89.8038528,24.763567 L89.8687582,24.763567 C89.9336636,24.763567 89.9433739,24.763567 89.998569,24.7773368 C91.4259772,24.9602413 92.7130976,24.763567 93.7623167,24.2093976 C94.0219384,24.0691015 94.2813045,23.9046433 94.4755097,23.7726611 C94.5409262,23.707969 94.6053205,23.6469143 94.670737,23.6302866 C94.670737,23.5759868 94.7039563,23.5759868 94.7305318,23.5759868 C94.9472239,23.3120224 94.9845317,23.2286241 94.8148577,22.9810276 C94.670737,22.7170631 94.5404151,22.5206486 94.4111154,22.3213762 C94.3456989,22.2566842 94.3354775,22.189394 94.2813045,22.162374 C94.2813045,22.1247019 94.2813045,22.1247019 94.2802824,22.1247019 C94.2741496,22.1247019 94.2741496,22.1247019 94.2664836,22.1247019 L94.2634172,22.1247019 C94.1279846,21.9254296 94.0216828,21.9254296 93.891872,22.0574118 C93.8852281,22.0574118 93.8264555,22.1247019 93.8254334,22.1247019 C92.7882244,23.0483177 91.3608162,23.3606064 89.960239,23.0483177 C89.6952512,22.9810276 89.4724263,22.8999676 89.2199595,22.7843533 C88.3613682,22.3213762 87.728157,21.5297427 87.5329297,20.6061269 L87.5329297,20.5414348 L94.6065982,20.5414348 L94.6065982,20.5416947 Z M76.40625,18.6904506 C76.7896926,17.5824647 77.8745608,16.875 79.1618504,16.875 C80.4222009,16.875 81.5825995,17.6392551 81.9751057,18.6904506 L82.03125,18.75 L76.40625,18.75 L76.40625,18.6904506 Z M83.3554697,20.5416947 C83.374858,20.5416947 83.374858,20.5416947 83.40292,20.5416947 C83.4070017,20.5416947 83.4070017,20.5416947 83.4070017,20.5416947 C83.6661924,20.5362387 83.90625,20.2777302 83.90625,20.0132461 C83.90625,19.9786917 83.9052296,19.9488139 83.9026785,19.9462158 C83.9031887,19.9462158 83.9031887,19.9462158 83.9031887,19.9158183 C83.9031887,17.1756283 81.7865495,15 79.2005097,15 C76.6264601,15 74.53125,17.1756283 74.53125,19.9158183 C74.53125,20.1265222 74.53125,20.3351477 74.5840576,20.5409152 L74.5876291,20.5416947 L74.5980886,20.6014504 C74.7276839,21.5663756 75.1162149,22.4533585 75.7639366,23.1802999 L75.7639366,23.1802999 C76.4744151,23.9945368 77.4481661,24.5642947 78.5471756,24.763567 L78.5471756,24.763567 L78.5471756,24.763567 L78.6147795,24.763567 C78.676771,24.763567 78.7017716,24.763567 78.7430993,24.7773368 C80.1681381,24.9602413 81.4635815,24.763567 82.5000893,24.2093976 C82.7608107,24.0691015 83.0182156,23.9046433 83.2120985,23.7726611 C83.2774064,23.707969 83.3416938,23.6469143 83.4070017,23.6302866 C83.4070017,23.5759868 83.454452,23.5759868 83.4712892,23.5759868 C83.6973157,23.3120224 83.7299697,23.2286241 83.5646591,22.9810276 C83.4070017,22.7170631 83.2774064,22.5206486 83.147811,22.3213762 C83.0830133,22.2566842 83.0819929,22.189394 83.0182156,22.162374 C83.0182156,22.1247019 83.0182156,22.1247019 83.0182156,22.1247019 C83.0182156,22.1247019 83.0182156,22.1247019 83.0171952,22.1247019 L83.0146441,22.1247019 C82.8791812,21.9254296 82.7590249,21.9254296 82.6294295,22.0574118 L82.5636114,22.1247019 C81.5271036,23.0483177 80.10232,23.3606064 78.7186088,23.0483177 C78.4538057,22.9810276 78.2247178,22.8999676 77.9662925,22.7843533 C77.1211164,22.3213762 76.4744151,21.5297427 76.2833385,20.6061269 L76.2820629,20.5414348 L83.3554697,20.5414348 L83.3554697,20.5416947 Z M67.9836197,23.4375 C66.1966454,23.4375 64.7394136,22.0378537 64.6875,20.2360947 L64.6875,20.0698391 C64.7394136,18.3038001 66.1966454,16.875 67.9836197,16.875 C69.7739853,16.875 71.25,18.3492381 71.25,20.1712209 C71.2502609,21.9703534 69.7742462,23.4375 67.9836197,23.4375 M68.2000621,15 C67.0389559,15 65.9551888,15.3939076 65.0868479,16.1168894 L64.9750509,16.223309 L64.9750509,15.3081519 C64.9750509,15.0457191 64.9403377,15 64.6871354,15 L63.5768228,15 C63.3259177,15 63.28125,15.0459774 63.28125,15.3081519 L63.28125,29.7112206 C63.28125,29.9349084 63.3259177,30 63.5768228,30 L64.6871354,30 C64.9349775,30 64.9750509,29.9349084 64.9750509,29.7112206 L64.9750509,23.7034199 L65.0868479,23.7703196 C65.9556993,24.4904601 67.0389559,24.8841094 68.2000621,24.8841094 C70.9214763,24.8841094 73.125,22.6792602 73.125,19.9665932 C73.125,17.2118233 70.9214763,15 68.2000621,15 M56.7191415,22.96875 C54.8952243,22.96875 53.4375,21.6109573 53.4375,19.921875 C53.4375,18.2332872 54.8954853,16.875 56.7191415,16.875 C58.5401876,16.875 60,18.2332872 60,19.921875 C60.000261,21.61071 58.5401876,22.96875 56.7191415,22.96875 M56.483865,15 C53.7642237,15 51.5625,17.1789422 51.5625,19.9300714 C51.5625,22.6642874 53.7642237,24.84375 56.483865,24.84375 C59.2032513,24.84375 61.40625,22.6642874 61.40625,19.9300714 C61.40625,17.1789422 59.2032513,15 56.483865,15 M45.46901,15.217978 C44.473108,15.217978 43.4878672,15.5258477 42.6698234,16.1176723 L42.5717934,16.1984786 L42.5717934,9.67833844 C42.5717934,9.43843675 42.4979458,9.375 42.2764031,9.375 L41.0787205,9.375 C40.8470367,9.375 40.78125,9.43843675 40.78125,9.67833844 L40.78125,24.5237972 C40.78125,24.7785511 40.8472968,24.84375 41.0787205,24.84375 L42.2764031,24.84375 C42.4979458,24.84375 42.5717934,24.7674749 42.5717934,24.5237972 L42.5717934,19.6650958 C42.5970159,18.1421102 43.8841477,16.9179319 45.4692701,16.9179319 C47.0835154,16.9179319 48.3735074,18.1572142 48.3735074,19.6920312 L48.3735074,24.5237972 C48.3735074,24.7785511 48.4192721,24.84375 48.6712379,24.84375 L49.8598196,24.84375 C50.1237467,24.84375 50.15625,24.7785511 50.15625,24.5237972 L50.15625,19.6645923 C50.15599,17.2358709 48.0432736,15.217978 45.46901,15.217978 M29.4271326,22.1398232 L29.4243746,22.1501452 C29.2531295,22.3915799 29.1769091,22.4786878 29.1428106,22.543641 C29.0149409,22.7342209 29.0352496,22.8336648 29.2363309,22.989754 C29.684627,23.3731796 30.2878711,23.7568569 30.6862729,23.9497025 C31.8002436,24.523708 32.9951983,24.7799963 34.2726416,24.843439 C35.0947685,24.852754 36.1440521,24.6521039 36.9085123,24.3333798 C38.3088107,23.6941694 39.1983826,22.478436 39.3498204,20.9918123 C39.5982888,18.5603455 38.0224829,17.0462803 33.9722732,15.8245048 L33.9695152,15.8237495 C32.0707757,15.190833 31.1812038,14.3698542 31.1809531,13.2555787 C31.2426314,11.9952844 32.4017325,11.0368464 33.9720225,10.9822152 C35.2216353,10.9900196 36.3356059,11.3502836 37.4382939,12.0599859 C37.6719695,12.1881301 37.7677464,12.1586745 37.9272074,11.9409049 C37.9500234,11.9323452 37.9908916,11.867392 38.2097744,11.5484161 L38.211028,11.5484161 C38.4038354,11.2906172 38.4675196,11.1647388 38.4682717,11.1647388 C38.6019081,10.908954 38.5948878,10.8044749 38.3471716,10.6534208 C38.1180091,10.4610787 37.4661244,10.1421029 37.0988124,9.98274083 C36.0487766,9.56633514 34.9668988,9.375 33.9045775,9.375 C31.4650244,9.4384427 29.5565066,11.0370982 29.4293891,13.1231547 C29.3631977,14.6173311 30.126655,15.8302952 31.7190087,16.7252905 C32.1650483,16.9810753 33.789244,17.6011522 34.552952,17.8136349 C36.7174599,18.4528454 37.8607654,19.6179757 37.6127984,21.0096871 C37.4152272,22.2863456 36.0954115,23.1178982 34.2628633,23.177061 C32.9280041,23.1178982 31.5758448,22.6468613 30.4142364,21.7765382 C30.4089712,21.7757829 30.3801378,21.7208999 30.318961,21.7113332 C30.2454986,21.6486457 30.2454986,21.6486457 30.2244377,21.6446176 C29.9992867,21.4555483 29.8453417,21.4590729 29.7137111,21.7113332 C29.6841256,21.7115849 29.5116268,21.9925455 29.4271326,22.1398232" id="path7"></path>
                    <path d="M16.8430382,21.0027857 C16.6864146,22.3391233 15.8696897,23.4211331 14.6047658,23.9560628 C13.8959813,24.2524497 12.9494346,24.4148706 12.1901871,24.3665805 C11.022106,24.3182904 9.92710199,24.0312499 8.9050703,23.5215557 C8.5515156,23.3284992 8.0066833,22.966583 7.59104451,22.6286562 C7.4885482,22.532076 7.47137823,22.4837859 7.54571162,22.3838825 C7.57837643,22.3253113 7.65134878,22.2181384 7.8009578,22.0010926 C8.02908801,21.6811317 8.05348192,21.6388649 8.07777114,21.5978443 C8.15074349,21.4939946 8.26192948,21.4845443 8.37814083,21.5665856 C8.39405446,21.5826823 8.39405446,21.5826823 8.40284883,21.590471 C8.41834368,21.6072946 8.41834368,21.6072946 8.46001225,21.6387611 C8.50304186,21.6714737 8.53424094,21.6870512 8.54188367,21.7055364 C9.6370971,22.5559614 10.911967,23.0387586 12.1989815,23.0870487 C13.9853907,23.0631632 15.2691597,22.2664285 15.5056655,21.0351868 C15.7491858,19.6952144 14.6845433,18.5254516 12.6025804,17.8731718 C11.9466668,17.6801153 10.2960468,17.0261739 9.99127997,16.8442292 C8.56439307,16.0151973 7.89465975,14.9270604 7.99202601,13.5776377 C8.13807541,11.7127052 9.88470056,10.3246504 12.0921927,10.3125 C13.0720323,10.3125 14.0597241,10.5151107 14.9967435,10.9061047 C15.3346987,11.0486904 15.937846,11.3728052 16.1384415,11.5277489 C16.2588406,11.6162288 16.2844909,11.7127052 16.2102622,11.8208127 C16.1855542,11.8867572 16.1128959,11.984999 15.9874714,12.1956062 L15.9874714,12.1956062 C15.8045694,12.4722617 15.7977643,12.483789 15.764576,12.5446449 C15.6994557,12.6462099 15.606382,12.6543102 15.4824232,12.5816154 C14.4809117,11.9059694 13.3512537,11.5678349 12.1170054,11.5437418 C10.5839578,11.5678349 9.43126691,12.4742349 9.35703822,13.7161731 C9.34175276,14.8318302 10.18172,15.6445578 12.000794,16.2565439 C15.7006074,17.4388725 17.1118947,18.820177 16.8430382,21.0027857 M12.4190016,1.40625 C14.8180478,1.40625 16.7779306,3.69424076 16.875,6.5625 L7.96875,6.5625 C8.05443022,3.69424076 10.0200599,1.40625 12.4190016,1.40625 M24.84375,7.32582768 C24.84375,7.0275874 24.6134765,6.78439077 24.3196326,6.78439077 L24.3004257,6.78439077 L18.5487042,6.78439077 C18.4031915,3.01379649 15.7127708,0 12.4218228,0 C9.12889153,0 6.44546465,3.01379649 6.30193518,6.78439077 L0.526100731,6.78439077 C0.236432174,6.79098345 0.00657625913,7.02884315 0.00657625913,7.32582768 C0.00657625913,7.34298957 0.00657625913,7.35052407 0.00657625913,7.36768596 L0,7.36768596 L0.820362231,25.5549013 C0.820362231,25.6040848 0.829965657,25.6536869 0.829965657,25.7128117 C0.829965657,25.7243227 0.831531433,25.7278807 0.831531433,25.7495423 L0.831531433,25.7773781 L0.837585766,25.7870055 C0.961073299,27.0549976 1.87486016,28.0658752 3.12372309,28.1153726 L3.12372309,28.125 L21.4442416,28.125 C21.453845,28.125 21.4594818,28.125 21.4689808,28.125 C21.4831772,28.125 21.4831772,28.125 21.4936157,28.125 L21.5316119,28.125 L21.5316119,28.1153726 C22.7982203,28.0845021 23.8352859,27.0549976 23.9341385,25.7730876 L23.9341385,25.7730876 L23.9396709,25.7495423 C23.9396709,25.7375081 23.9396709,25.7244274 23.9396709,25.7128117 C23.9396709,25.6757671 23.9492744,25.6522218 23.9492744,25.6137122 L24.84375,7.35052407 L24.84375,7.35052407 C24.84375,7.34382674 24.84375,7.33346681 24.84375,7.32582768" id="path2"></path>
                </g>
            </g>
        </g>
    </g>
</svg>