<?xml version="1.0" encoding="UTF-8"?>
<svg width="112px" height="34px" viewBox="0 0 112 34" version="1.1" xmlns="http://www.w3.org/2000/svg" xmlns:xlink="http://www.w3.org/1999/xlink">
    <!-- Generator: Sketch 61.2 (89653) - https://sketch.com -->
    <title>logo-primary.55e9c8c</title>
    <desc>Created with Sketch.</desc>
    <g id="Page-1" stroke="none" stroke-width="1" fill="none" fill-rule="evenodd">
        <g id="WPHelper_Woocommerce_Vidientu" transform="translate(-680.000000, -932.000000)">
            <g id="logo-primary.55e9c8c" transform="translate(680.000000, 932.000000)">
                <path d="M24.4314286,11.0742857 L21.1933333,14.312381 L21.0314286,14.4742857 L20.0033333,15.502381 L19.242381,16.2714286 L18.2142857,17.2995238 L18.052381,17.4533333 L17.6071429,17.9066667 L17.4452381,18.0604762 L17.4452381,18.0604762 L15.9314286,19.5742857 L15.9314286,19.5742857 L15.7695238,19.7280952 C15.3271061,20.1698671 14.8258762,20.5485136 14.28,20.8533333 C14.0194552,20.9990638 13.7489405,21.1262057 13.4704762,21.2338095 C12.8434351,21.476803 12.1826348,21.6215237 11.5114286,21.6628571 C11.1047809,21.6992498 10.6956953,21.6992498 10.2890476,21.6628571 C9.40111842,21.5663264 8.54194051,21.2909488 7.76333333,20.8533333 C7.41075392,20.6708269 7.08406886,20.4421474 6.79190476,20.1733333 L6.79190476,20.1733333 L6.60571429,19.9871429 L0.704285714,14.0290476 L0.582857143,13.907619 C0.477745133,13.793951 0.385444923,13.6690742 0.307619048,13.5352381 C0.1051208,13.1919582 -0.00114333154,12.8004588 -7.69783542e-16,12.4019048 C-0.00422815561,12.3399133 -0.00422815561,12.2777058 -9.78817721e-16,12.2157143 C-9.78817721e-16,12.1185714 -9.78817721e-16,12.0214286 -9.78817721e-16,11.932381 L-9.78817721e-16,11.8271429 L-9.78817721e-16,11.8271429 C0.0791273404,11.5328348 0.216791887,11.2575057 0.404761905,11.017619 C0.45443376,10.9544856 0.508538884,10.89497 0.566666667,10.8395238 L0.671904762,10.7342857 L7.02666667,4.46047619 L7.02666667,4.46047619 L10.8314286,0.663809524 C11.6715305,-0.177697687 13.0202073,-0.223715533 13.9157143,0.558571429 L24.4314286,11.0742857 Z" id="Path" fill="#005BAA" fill-rule="nonzero"></path>
                <path d="M12.9928571,25.192381 C12.4808183,25.1905142 11.9753167,25.0772598 11.5114286,24.8604762 L10.3052381,23.662381 L10.0057143,23.3709524 L9.95714286,23.3142857 L9.39857143,22.7557143 L6.58952381,19.9142857 L6.77571429,20.1004762 C7.06988395,20.3727341 7.39934729,20.6041753 7.7552381,20.7885714 C8.53384527,21.2261869 9.39302318,21.5015645 10.2809524,21.5980952 C10.6876001,21.6344879 11.0966856,21.6344879 11.5033333,21.5980952 C12.1745396,21.5567618 12.8353399,21.4120411 13.462381,21.1690476 C13.7408453,21.0614438 14.0113599,20.9343019 14.2719048,20.7885714 C14.817781,20.4837517 15.3190108,20.1051052 15.7614286,19.6633333 L15.9233333,19.5095238 L15.9233333,19.5095238 L17.4371429,17.9957143 L17.4371429,17.9957143 L17.5990476,17.8419048 L18.0442857,17.3885714 L18.2061905,17.2347619 L19.2342857,16.2066667 L19.9952381,15.437619 L21.047619,14.4661905 L21.2095238,14.3042857 L27.7261905,7.82809524 L30.397619,4.85714286 L30.397619,4.85714286 L30.5433333,4.71952381 C31.3646458,3.9013097 32.6929732,3.9013097 33.5142857,4.71952381 L34.987619,6.19285714 L34.987619,6.19285714 L35.0361905,6.19285714 C34.3679497,6.16497276 33.7177888,6.41390823 33.2390476,6.88095238 L28.2604762,11.7380952 L28.2119048,11.7947619 L19.5661905,20.4080952 L19.5661905,20.4080952 L16.3685714,23.5409524 L16.3685714,23.5409524 L16.1742857,23.7433333 C15.7391095,24.1657827 15.2389362,24.5156308 14.6928571,24.7795238 C14.3891909,24.926866 14.0682873,25.0356469 13.737619,25.1033333 C13.5482985,25.1430109 13.3560898,25.1673754 13.1628571,25.1761905 L12.9928571,25.192381 Z" id="Path" fill="#ED1C24" fill-rule="nonzero"></path>
                <path d="M42.9695238,17.137619 L42.807619,17.2995238 L35.7566667,24.4557143 L28.3333333,31.9761905 C28.102652,32.2090148 27.8535928,32.4228809 27.5885714,32.6157143 L27.5885714,32.6157143 L27.4833333,32.6885714 L27.4833333,32.6885714 C24.8214185,34.5905847 21.1841795,34.3358761 18.8133333,32.0814286 L18.8133333,32.0814286 L18.6190476,31.9680952 L17.3480952,30.6971429 L13.7619048,27.1109524 L12.5638095,25.9047619 L12.4019048,25.7347619 C12.5945167,25.7670129 12.7894686,25.7832589 12.9847619,25.7833333 L13.1547619,25.7833333 C13.3835992,25.7736249 13.6111409,25.7438278 13.8347619,25.6942857 C14.2139342,25.6191153 14.5814363,25.4938924 14.927619,25.3219048 C15.5241324,25.0258182 16.0704657,24.6379215 16.5466667,24.172381 L16.7652381,23.937619 L19.517619,21.2338095 L19.517619,21.2338095 L28.9809524,11.9242857 L29.0295238,11.8595238 L33.6761905,7.35857143 C34.2980265,6.76251267 35.2504418,6.67837704 35.9671429,7.15619048 L37.0519048,8.24904762 L37.0519048,8.24904762 L42.9614286,14.1666667 C43.0141772,14.2167238 43.0628994,14.2708596 43.1071429,14.3285714 C43.7891872,15.16141 43.7297104,16.3754374 42.9695238,17.137619 L42.9695238,17.137619 Z" id="Path" fill="#ED1C24" fill-rule="nonzero"></path>
                <path d="M20.1247619,9.30142857 C19.9510694,9.46188777 19.6832164,9.46188777 19.5095238,9.30142857 C16.7129905,6.48701179 12.1644168,6.47251434 9.35,9.26904762 C6.53558321,12.0655809 6.52108577,16.6141546 9.31761905,19.4285714 L11.5033333,21.6304762 C11.5056582,21.6465832 11.5056582,21.6629406 11.5033333,21.6790476 L11.5033333,21.6790476 C11.1075073,21.7155686 10.7091594,21.7155686 10.3133333,21.6790476 L8.69428571,20.06 C5.56467213,16.908032 5.58279394,11.8158041 8.7347619,8.68619048 C11.8867299,5.55657689 16.9789578,5.5746987 20.1085714,8.72666667 L20.1085714,8.72666667 C20.2605371,8.88576444 20.2675305,9.13402843 20.1247619,9.30142857 Z" id="Path" fill="#009EDB" fill-rule="nonzero"></path>
                <path d="M23.4761905,12.0538095 L22.8690476,12.6528571 L21.8085714,11.5842857 C21.7279937,11.5038084 21.6827172,11.3945974 21.6827172,11.2807143 C21.6827172,11.1668312 21.7279937,11.0576202 21.8085714,10.9771429 C21.8890488,10.8965652 21.9982597,10.8512887 22.1121429,10.8512887 C22.226026,10.8512887 22.3352369,10.8965652 22.4157143,10.9771429 L23.4761905,12.0538095 Z" id="Path" fill="#009EDB" fill-rule="nonzero"></path>
                <path d="M14.312381,20.8371429 L14.312381,20.8371429 C14.0521584,20.9811946 13.7815688,21.1056658 13.5028571,21.2095238 L10.5238095,18.2304762 C8.66038161,16.353489 8.39524239,13.4165622 9.89238095,11.2361905 C10.0284256,11.042424 10.2940026,10.9921797 10.4914286,11.1228571 C10.5850488,11.1881639 10.6487857,11.2880852 10.6685363,11.4005113 C10.6882868,11.5129375 10.6624226,11.6285995 10.5966667,11.7219048 C9.3346802,13.5621628 9.55897926,16.0396478 11.1309524,17.6233333 L14.312381,20.8371429 Z" id="Path" fill="#009EDB" fill-rule="nonzero"></path>
                <path d="M21.6628571,13.8428571 L21.6628571,13.8428571 L21.217619,14.2880952 L21.0719048,14.4338095 L17.7285714,11.0580952 C16.4804922,9.80444081 14.628841,9.36820434 12.952381,9.93285714 C12.8025806,10.0021723 12.6262993,9.9794072 12.4990227,9.87431003 C12.3717462,9.76921285 12.3160448,9.60042088 12.3557707,9.44021292 C12.3954965,9.28000495 12.5236049,9.15679121 12.6852381,9.12333333 C14.6618016,8.47531295 16.834854,9.00211353 18.2952381,10.4833333 L21.6628571,13.8428571 Z" id="Path" fill="#009EDB" fill-rule="nonzero"></path>
                <path d="M19.8738095,15.64 L19.2666667,16.2471429 L15.9071429,12.8633333 C15.0685965,12.1759826 13.8450898,12.2381267 13.0805027,13.0069033 C12.3159157,13.7756799 12.2604583,14.9995079 12.952381,15.8342857 L15.1138095,18.0119048 C15.2814674,18.1795626 15.2814674,18.4513897 15.1138095,18.6190476 C14.9461516,18.7867055 14.6743245,18.7867055 14.5066667,18.6190476 L12.3047619,16.4414286 C11.2373587,15.2635312 11.2862181,13.4541355 12.4156333,12.3355592 C13.5450486,11.2169828 15.3548313,11.1855737 16.522381,12.2642857 L19.8738095,15.64 Z" id="Path" fill="#009EDB" fill-rule="nonzero"></path>
                <path d="M18.0766667,17.4290476 L18.0766667,17.4290476 L17.6314286,17.882381 L17.4857143,18.02 L14.11,14.652381 C13.9423421,14.4847231 13.9423422,14.212896 14.11,14.0452381 C14.2776579,13.8775803 14.549485,13.8775802 14.7171429,14.0452381 L18.0766667,17.4290476 Z" id="Path" fill="#009EDB" fill-rule="nonzero"></path>
                <path d="M102.550476,17.2428571 L97.547619,10.0704762 L97.0457143,9.60904762 L102,9.60904762 L105.343333,15.0247619 L105.610476,14.8061905 L107.62619,11.8028571 C108.151953,11.1199453 108.029122,10.1409127 107.350952,9.60904762 L112.005714,9.60904762 L106.622381,17.2347619 L106.622381,22.7719048 L107.569524,23.9052381 L101.757143,23.9052381 L102.566667,22.7880952 C102.566667,20.9504762 102.501905,19.0804762 102.566667,17.2428571 L102.550476,17.2428571 Z M88.9747619,9.60904762 C89.2955751,9.94130209 89.4951854,10.37189 89.5414286,10.8314286 C89.573282,11.1058171 89.5371405,11.3838283 89.4361905,11.6409524 L85.7204762,22.4238095 C85.4747836,22.9655551 85.1127023,23.4464875 84.66,23.832381 L88.707619,23.832381 C88.4103718,23.5887119 88.209507,23.2472417 88.1409524,22.8690476 C88.06787,22.6041547 88.06787,22.3244168 88.1409524,22.0595238 L88.9504762,19.5014286 L93.67,19.5014286 L94.4066667,21.4766667 C94.4809749,21.6743342 94.5272959,21.881416 94.5442857,22.0919048 C94.6422316,22.7768377 94.3522925,23.4595975 93.7914286,23.8647619 L100.14619,23.8647619 C99.5196557,23.3605498 99.0042449,22.7321345 98.632381,22.0190476 L93.9857143,9.56857143 L88.9747619,9.60904762 Z M93.022381,17.7042857 L89.6466667,17.7042857 L91.2657143,13.0414286 L93.0061905,17.7042857 L93.022381,17.7042857 Z M76.0952381,9.61714286 L83.1785714,9.61714286 C85.318274,9.62159595 87.0517374,11.3550593 87.0561905,13.4947619 L87.0561905,13.972381 C87.0297587,16.0899852 85.3124907,17.7964527 83.1947619,17.8095238 L81.4219048,17.8661905 C82.7830872,17.1235967 83.521593,15.5977853 83.2595238,14.0695238 C83.1219048,12.8714286 82.5066667,11.7219048 81.4785714,11.697619 L80.8309524,11.697619 L80.8309524,22.3104762 C80.8279805,22.4810597 80.878979,22.6482214 80.9766667,22.7880952 C81.1707817,23.0924714 81.387251,23.381999 81.6242857,23.6542857 L81.8104762,23.8809524 L76.3057143,23.8809524 L76.5404762,23.5652381 C76.7129312,23.3380532 76.8570123,23.0906685 76.9695238,22.8285714 C77.0406284,22.6766223 77.0765977,22.51061 77.0747619,22.3428571 L77.0747619,10.9204762 C77.0504762,10.3214286 76.4595238,9.98142857 76.0952381,9.61714286 Z" id="Shape" fill="#005BAA"></path>
                <path d="M46.2642857,9.54428571 L50.7085714,9.54428571 L54.4404762,20.2380952 L57.6057143,11.3819048 C57.6634486,11.1236896 57.6168993,10.8531221 57.4761905,10.6290476 C57.3061905,10.2647619 57.12,9.91666667 56.9419048,9.56047619 L60.2609524,9.56047619 C60.0666667,10.2809524 59.7752381,11.0742857 59.5242857,11.8028571 L55.2338095,24.2857143 C53.9456997,24.0796123 52.7403923,23.5190042 51.7528571,22.6666667 C51.0895029,21.9529191 50.6089681,21.0890675 50.352381,20.1490476 L46.7661905,10.6047619 C46.6236329,10.2400803 46.4559281,9.88573628 46.2642857,9.54428571 L46.2642857,9.54428571 Z M64.0090476,14.5714286 L64.0090476,22.2133333 C64.0090476,22.5209524 64.0819048,22.577619 64.2761905,22.8285714 L65.1504762,23.97 L60.9652381,23.97 L61.6695238,22.8933333 C61.842236,22.6840899 61.9341525,22.4198299 61.9285714,22.1485714 L61.9285714,11.4547619 L60.7547619,9.54428571 L65.0938095,9.54428571 L72.112381,18.6190476 L72.112381,11.4142857 C72.1200473,11.1416038 72.0311708,10.8749742 71.8614286,10.6614286 C71.6266667,10.2971429 71.3757143,9.94904762 71.1409524,9.59285714 L75.2857143,9.59285714 L74.4761905,10.7019048 C74.2819048,10.9447619 74.2090476,11.0014286 74.2090476,11.3171429 L74.2090476,24.2857143 C72.4933559,24.1967877 70.9010003,23.3666357 69.8457143,22.0109524 L64.0090476,14.5714286 Z" id="Shape" fill="#ED1C24"></path>
                <path d="M50.7085714,28.7866667 C50.7085714,29.3533333 50.9514286,29.6528571 51.5747619,29.6528571 C51.8180776,29.6528571 52.0593993,29.6089805 52.2871429,29.5233333 C52.4004762,29.4747619 52.4328571,29.5233333 52.4328571,29.6285714 L52.4328571,29.6933333 C52.4328571,29.7904762 52.4328571,29.8309524 52.2871429,29.887619 C52.0630581,29.975485 51.8234279,30.0168005 51.5828571,30.0090476 C50.7247619,30.0090476 50.32,29.6285714 50.32,28.7866667 L50.32,27.9771429 C50.2713071,27.6310238 50.3874169,27.2820643 50.6337741,27.0341177 C50.8801313,26.7861711 51.2283369,26.6678197 51.5747619,26.7142857 C51.810044,26.715789 52.0431312,26.7596642 52.2628571,26.8438095 C52.3761905,26.8842857 52.4004762,26.9328571 52.4004762,27.03 L52.4004762,27.0947619 C52.4004762,27.2161905 52.3519048,27.2485714 52.2466667,27.2080952 C52.0292978,27.1150948 51.794989,27.068233 51.5585714,27.0704762 C50.9595238,27.0704762 50.7490476,27.3619048 50.7490476,27.9933333 L50.7085714,28.7866667 Z" id="Path" fill="#009EDB" fill-rule="nonzero"></path>
                <path d="M51.5828571,30.0171429 C50.7166667,30.0171429 50.3119048,29.6204762 50.3119048,28.7866667 L50.3119048,27.9771429 C50.2626215,27.6294225 50.3797212,27.2787677 50.628054,27.0304349 C50.8763867,26.7821022 51.2270415,26.6650024 51.5747619,26.7142857 C51.810044,26.715789 52.0431312,26.7596642 52.2628571,26.8438095 C52.3842857,26.892381 52.4085714,26.9409524 52.4085714,27.0380952 L52.4085714,27.1028571 C52.4085714,27.167619 52.4085714,27.2080952 52.4085714,27.2242857 C52.4085714,27.2404762 52.3438095,27.2242857 52.2871429,27.2242857 C52.0680328,27.1379845 51.8345399,27.0940329 51.5990476,27.0947619 C51.0161905,27.0947619 50.7895238,27.3780952 50.7895238,28.0095238 L50.7895238,28.8190476 C50.7895238,29.41 51.0485714,29.6771429 51.647619,29.6771429 C51.8885855,29.6803602 52.1278498,29.6363576 52.3519048,29.547619 C52.4166667,29.547619 52.4490476,29.547619 52.4733333,29.547619 C52.497619,29.547619 52.4733333,29.6042857 52.4733333,29.6690476 L52.4733333,29.7338095 C52.4733333,29.8390476 52.4733333,29.8795238 52.327619,29.9280952 C52.089758,30.0156665 51.834659,30.0461674 51.5828571,30.0171429 Z M51.5828571,26.722381 C51.234037,26.6717344 50.8819121,26.7899161 50.6342754,27.0407481 C50.3866388,27.2915801 50.272981,27.6451911 50.3280952,27.9933333 L50.3280952,28.8028571 C50.3280952,29.612381 50.7328571,30.0171429 51.5909524,30.0171429 C51.8292612,30.0306607 52.0674818,29.9891106 52.2871429,29.8957143 C52.4085714,29.8471429 52.4328571,29.8066667 52.4328571,29.7095238 L52.4328571,29.6285714 C52.4328571,29.5638095 52.4328571,29.5314286 52.4328571,29.5152381 C52.4328571,29.4990476 52.3842857,29.5152381 52.327619,29.5152381 C52.1007515,29.6040127 51.8588347,29.6479976 51.6152381,29.6447619 C51.0161905,29.6447619 50.7409524,29.377619 50.7409524,28.7785714 L50.7409524,27.9690476 C50.7409524,27.3295238 51.0080952,27.0461905 51.5990476,27.0461905 C51.8374416,27.0423285 52.0741841,27.0863736 52.2952381,27.1757143 C52.3438095,27.1757143 52.3761905,27.1757143 52.4004762,27.1757143 C52.4167537,27.1396899 52.4167537,27.0984053 52.4004762,27.062381 L52.4004762,26.997619 C52.4004762,26.9085714 52.4004762,26.86 52.2547619,26.8114286 C52.0359946,26.7375194 51.8054731,26.7045878 51.5747619,26.7142857 L51.5828571,26.722381 Z" id="Shape" fill="#009EDB" fill-rule="nonzero"></path>
                <path d="M52.9590476,26.7142857 C52.9590476,26.5766667 52.9590476,26.552381 53.1128571,26.552381 L53.1695238,26.552381 C53.2990476,26.552381 53.3233333,26.552381 53.3233333,26.7142857 L53.3233333,27.8557143 C53.5144293,27.6083068 53.8230833,27.4817587 54.1328571,27.5238095 C54.707619,27.5238095 55.047619,27.7666667 55.047619,28.3333333 L55.047619,29.7904762 C55.047619,29.92 55.047619,29.9442857 54.8938095,29.9442857 L54.8290476,29.9442857 C54.6995238,29.9442857 54.6752381,29.9442857 54.6752381,29.7904762 L54.6752381,28.39 C54.6752381,28.0014286 54.5052381,27.8314286 54.0438095,27.8314286 C53.582381,27.8314286 53.3638095,28.017619 53.3638095,28.4709524 L53.3638095,29.8066667 C53.3638095,29.9361905 53.3638095,29.9604762 53.21,29.9604762 L53.1533333,29.9604762 C53.0319048,29.9604762 52.9995238,29.9604762 52.9995238,29.8066667 L52.9590476,26.7142857 Z" id="Path" fill="#009EDB" fill-rule="nonzero"></path>
                <path d="M54.8533333,29.952381 L54.7885714,29.952381 C54.6590476,29.952381 54.6347619,29.952381 54.6347619,29.7904762 L54.6347619,28.39 C54.6347619,27.9933333 54.4485714,27.8395238 54.0033333,27.8395238 C53.5580952,27.8395238 53.3314286,28.0257143 53.3314286,28.4709524 L53.3314286,29.8066667 C53.3314286,29.9361905 53.3314286,29.9685714 53.1695238,29.9685714 L53.1128571,29.9685714 C52.9833333,29.9685714 52.9509524,29.9685714 52.9509524,29.8066667 L52.9509524,26.7142857 C52.9509524,26.5685714 52.9509524,26.5442857 53.1128571,26.5442857 L53.1695238,26.5442857 C53.2990476,26.5442857 53.3314286,26.5442857 53.3314286,26.7142857 L53.3314286,27.8395238 C53.5243591,27.5951387 53.8327026,27.4718013 54.1409524,27.5157143 C54.7480952,27.5157143 55.0557143,27.8071429 55.0557143,28.39 L55.0557143,29.8471429 C55.047619,29.952381 54.9909524,29.952381 54.8533333,29.952381 Z M54.0033333,27.8071429 C54.4566667,27.8071429 54.6428571,27.9771429 54.6428571,28.3738095 L54.6428571,29.7904762 C54.6428571,29.92 54.6428571,29.9361905 54.7885714,29.9361905 L54.8533333,29.9361905 C54.9828571,29.9361905 55.0071429,29.9361905 55.0071429,29.7904762 L55.0071429,28.3333333 C55.0071429,27.7585714 54.6995238,27.4752381 54.1004762,27.4752381 C53.788939,27.4179659 53.4726188,27.5476572 53.2909524,27.8071429 L53.2909524,27.8071429 L53.2909524,26.7142857 C53.2909524,26.5847619 53.2909524,26.5604762 53.1452381,26.5604762 L53.0885714,26.5604762 C52.9671429,26.5604762 52.9347619,26.5604762 52.9347619,26.7142857 L52.9347619,29.8471429 C52.9347619,29.9766667 52.9347619,29.9928571 53.0885714,29.9928571 L53.1452381,29.9928571 C53.2747619,29.9928571 53.2909524,29.9928571 53.2909524,29.8471429 L53.2909524,28.4709524 C53.3152381,28.017619 53.5257143,27.8233333 54.0033333,27.8233333 L54.0033333,27.8071429 Z" id="Shape" fill="#009EDB" fill-rule="nonzero"></path>
                <path d="M55.5333333,28.9728571 L55.5333333,28.5195238 C55.5333333,27.8314286 55.897619,27.4833333 56.6180952,27.4833333 C57.3385714,27.4833333 57.6947619,27.8395238 57.6947619,28.5195238 L57.6947619,28.9728571 C57.6947619,29.6690476 57.3385714,30.0090476 56.6180952,30.0090476 C55.897619,30.0090476 55.5333333,29.6528571 55.5333333,28.9728571 Z M57.322381,28.5195238 C57.322381,28.0419048 57.152381,27.8314286 56.6180952,27.8314286 C56.0838095,27.8314286 55.9057143,28.0419048 55.9057143,28.5195238 L55.9057143,28.9728571 C55.9057143,29.4504762 56.0838095,29.6609524 56.6180952,29.6609524 C57.152381,29.6609524 57.322381,29.4504762 57.322381,28.9728571 L57.322381,28.5195238 Z" id="Shape" fill="#009EDB" fill-rule="nonzero"></path>
                <path d="M56.6180952,30.0171429 C55.8733333,30.0171429 55.5333333,29.6852381 55.5333333,28.9728571 L55.5333333,28.5195238 C55.505231,28.2241949 55.6021183,27.930597 55.8004762,27.71 C56.028099,27.524847 56.3171733,27.4323433 56.61,27.4509524 C57.3466667,27.4509524 57.6866667,27.7828571 57.6866667,28.4952381 L57.6866667,28.9485714 C57.7311227,29.2433798 57.6329419,29.5417824 57.422124,29.7526002 C57.2113062,29.9634181 56.9129037,30.0615989 56.6180952,30.0171429 Z M56.6180952,27.4914286 C56.3260472,27.4680859 56.0362056,27.5579368 55.8085714,27.742381 C55.6065766,27.9608518 55.5091381,28.2561198 55.5414286,28.5519048 L55.5414286,29.0052381 C55.5414286,29.7095238 55.8814286,30.0333333 56.6180952,30.0333333 C56.9104243,30.059262 57.2012159,29.9691166 57.427619,29.782381 C57.6296139,29.5639101 57.7270523,29.2686421 57.6947619,28.9728571 L57.6947619,28.5195238 C57.6866667,27.8152381 57.3466667,27.5238095 56.6180952,27.5238095 L56.6180952,27.4914286 Z M56.6180952,29.6690476 C56.1,29.6690476 55.897619,29.4747619 55.897619,28.9728571 L55.897619,28.5195238 C55.897619,28.017619 56.0919048,27.8233333 56.6180952,27.8233333 C57.1442857,27.8233333 57.3304762,28.017619 57.3304762,28.5195238 L57.3304762,28.9728571 C57.3304762,29.4828571 57.1361905,29.6690476 56.6180952,29.6690476 Z M56.6180952,27.8395238 C56.1,27.8395238 55.9138095,28.017619 55.9138095,28.5195238 L55.9138095,28.9728571 C55.9138095,29.4666667 56.1080952,29.6528571 56.6180952,29.6528571 C57.1280952,29.6528571 57.322381,29.4747619 57.322381,28.9728571 L57.322381,28.5195238 C57.322381,28.017619 57.1280952,27.8395238 56.6180952,27.8395238 Z" id="Shape" fill="#009EDB" fill-rule="nonzero"></path>
                <path d="M59.4838095,28.5033333 C59.4838095,27.8557143 59.8319048,27.4833333 60.5847619,27.4833333 C60.7305274,27.4786272 60.8759273,27.5005744 61.0138095,27.5480952 C61.1352381,27.5480952 61.167619,27.6209524 61.167619,27.7342857 L61.167619,27.7828571 C61.167619,27.9042857 61.167619,27.9447619 61.0138095,27.9042857 C60.8792771,27.8539104 60.7364944,27.829198 60.5928571,27.8314286 C60.042381,27.8314286 59.8561905,28.05 59.8561905,28.5114286 L59.8561905,28.9890476 C59.8561905,29.4828571 60.0747619,29.6609524 60.6657143,29.6609524 C60.8141632,29.6662848 60.9623306,29.6443341 61.1028571,29.5961905 C61.2161905,29.5557143 61.2485714,29.5961905 61.2485714,29.717619 L61.2485714,29.7661905 C61.2485714,29.8714286 61.2485714,29.9119048 61.0947619,29.9442857 C60.9457165,29.9917901 60.7896972,30.0136875 60.6333333,30.0090476 C59.8804762,30.0090476 59.5242857,29.6852381 59.5242857,28.9890476 L59.4838095,28.5033333 Z" id="Path" fill="#009EDB" fill-rule="nonzero"></path>
                <path d="M60.5928571,30.0171429 C60.3015436,30.0341691 60.0139346,29.9450103 59.7833333,29.7661905 C59.5774569,29.5496814 59.4768556,29.2537952 59.5080952,28.9566667 L59.5080952,28.4709524 C59.4903149,28.1925221 59.5901644,27.9194043 59.7833333,27.7180952 C60.0064478,27.5234073 60.2973119,27.4245135 60.5928571,27.4428571 C60.7384075,27.441483 60.8832446,27.4633452 61.0219048,27.507619 C61.1514286,27.507619 61.1757143,27.5885714 61.1757143,27.7019048 L61.1757143,27.7504762 C61.1757143,27.8233333 61.1757143,27.8638095 61.1757143,27.88 C61.1377455,27.9001486 61.0922545,27.9001486 61.0542857,27.88 C60.9181197,27.8369531 60.7761416,27.8151104 60.6333333,27.8152381 C60.1071429,27.8152381 59.8966667,28.0095238 59.8966667,28.4871429 L59.8966667,28.9647619 C59.8966667,29.4504762 60.1071429,29.6285714 60.7061905,29.6285714 C60.8546805,29.6346597 61.0029866,29.6126884 61.1433333,29.5638095 C61.2,29.5638095 61.232381,29.5638095 61.2566667,29.5638095 C61.2809524,29.5638095 61.2971429,29.6204762 61.2971429,29.6933333 L61.2971429,29.7419048 C61.2971429,29.8552381 61.2971429,29.8957143 61.1352381,29.9280952 C60.9612135,29.9899319 60.777518,30.0200908 60.5928571,30.0171429 L60.5928571,30.0171429 Z M60.5928571,27.4914286 C59.872381,27.4914286 59.5,27.8395238 59.5,28.5033333 L59.5,28.9890476 C59.5,29.6852381 59.8480952,30.0009524 60.6009524,30.0009524 C60.756687,30.0043593 60.9120983,29.9852737 61.062381,29.9442857 C61.1838095,29.9442857 61.2161905,29.8714286 61.2161905,29.7661905 L61.2161905,29.717619 C61.2161905,29.6528571 61.2161905,29.612381 61.2161905,29.5961905 C61.2161905,29.58 61.1595238,29.5961905 61.1109524,29.5961905 C60.9667305,29.6404451 60.8165673,29.662287 60.6657143,29.6609524 C60.1071429,29.6609524 59.8561905,29.4666667 59.8561905,28.9809524 L59.8561905,28.5033333 C59.8561905,28.017619 60.0747619,27.8152381 60.6009524,27.8152381 C60.7445305,27.8137521 60.8871778,27.8384411 61.0219048,27.8880952 C61.0785714,27.8880952 61.1109524,27.8880952 61.1352381,27.8880952 C61.1595238,27.8880952 61.1352381,27.8314286 61.1352381,27.7666667 L61.1352381,27.7180952 C61.1352381,27.6128571 61.1352381,27.572381 60.9895238,27.5319048 C60.8556968,27.5097303 60.7193685,27.5070037 60.5847619,27.5238095 L60.5928571,27.4914286 Z" id="Shape" fill="#009EDB" fill-rule="nonzero"></path>
                <path d="M61.9285714,29.0861905 C61.9285714,29.4747619 62.0904762,29.6609524 62.5842857,29.6609524 C63.0780952,29.6609524 63.24,29.4828571 63.24,29.0861905 L63.24,27.6857143 C63.24,27.5642857 63.24,27.5319048 63.4019048,27.5319048 L63.4504762,27.5319048 C63.5880952,27.5319048 63.612381,27.5319048 63.612381,27.6857143 L63.612381,29.0861905 C63.612381,29.6852381 63.3128571,30.0090476 62.5842857,30.0090476 C61.8557143,30.0090476 61.5238095,29.7014286 61.5238095,29.0861905 L61.5238095,27.6857143 C61.5238095,27.5642857 61.5238095,27.5319048 61.6857143,27.5319048 L61.7342857,27.5319048 C61.8719048,27.5319048 61.8961905,27.5319048 61.8961905,27.6857143 L61.9285714,29.0861905 Z" id="Path" fill="#009EDB" fill-rule="nonzero"></path>
                <path d="M62.5842857,30.0171429 C61.9042857,30.0171429 61.5561905,29.7014286 61.5561905,29.0861905 L61.5561905,27.6857143 C61.5561905,27.5642857 61.5561905,27.5238095 61.71,27.5238095 L61.7666667,27.5238095 C61.9042857,27.5238095 61.9285714,27.5238095 61.9285714,27.6857143 L61.9285714,29.0861905 C61.9285714,29.4990476 62.1147619,29.6528571 62.5842857,29.6528571 C63.0538095,29.6528571 63.2319048,29.4990476 63.2319048,29.0861905 L63.2319048,27.6857143 C63.2319048,27.5642857 63.2319048,27.5238095 63.4019048,27.5238095 L63.4504762,27.5238095 C63.5961905,27.5238095 63.612381,27.5238095 63.612381,27.6857143 L63.612381,29.0861905 C63.6355896,29.3385099 63.5502075,29.5887677 63.377619,29.7742857 C63.1537619,29.9533334 62.8700105,30.0401961 62.5842857,30.0171429 Z M61.71,27.5238095 C61.5966667,27.5238095 61.5642857,27.5238095 61.5642857,27.6695238 L61.5642857,29.07 C61.5420786,29.3251884 61.6339593,29.5771193 61.8152381,29.7580952 C62.0452744,29.9361703 62.3357008,30.0174897 62.6247619,29.9847619 C62.915061,30.0169894 63.2062689,29.9325391 63.4342857,29.75 C63.6074151,29.5680828 63.6930692,29.3199813 63.6690476,29.07 L63.6690476,27.6857143 C63.6690476,27.572381 63.6690476,27.54 63.5152381,27.54 L63.4666667,27.54 C63.3452381,27.54 63.3128571,27.54 63.3128571,27.6857143 L63.3128571,29.0861905 C63.3128571,29.5071429 63.1266667,29.6690476 62.6490476,29.6690476 C62.1714286,29.6690476 61.9852381,29.5071429 61.9852381,29.0861905 L61.9852381,27.6857143 C61.9852381,27.572381 61.9852381,27.54 61.8314286,27.54 L61.71,27.5238095 Z" id="Shape" fill="#009EDB" fill-rule="nonzero"></path>
                <path d="M64.1061905,28.9728571 L64.1061905,28.5195238 C64.1061905,27.8314286 64.462381,27.4833333 65.1909524,27.4833333 C65.9195238,27.4833333 66.2595238,27.8395238 66.2595238,28.5195238 L66.2595238,28.9728571 C66.2595238,29.6690476 65.9033333,30.0090476 65.1909524,30.0090476 C64.4785714,30.0090476 64.1061905,29.6528571 64.1061905,28.9728571 Z M65.8952381,28.5195238 C65.8952381,28.0419048 65.7252381,27.8314286 65.1909524,27.8314286 C64.6566667,27.8314286 64.4704762,28.0419048 64.4704762,28.5195238 L64.4704762,28.9728571 C64.4704762,29.4504762 64.6566667,29.6609524 65.1909524,29.6609524 C65.7252381,29.6609524 65.8952381,29.4504762 65.8952381,28.9728571 L65.8952381,28.5195238 Z M64.8428571,26.8357143 C64.9561905,26.657619 65.0290476,26.5928571 65.1909524,26.5928571 C65.3528571,26.5928571 65.417619,26.6414286 65.5390476,26.8357143 L65.7252381,27.1271429 C65.7819048,27.2161905 65.7252381,27.2404762 65.6604762,27.2404762 L65.6604762,27.2404762 C65.5748499,27.2544657 65.4909102,27.2074594 65.4580952,27.1271429 L65.3447619,26.9328571 C65.2719048,26.7952381 65.1909524,26.7952381 65.11,26.9328571 L65.0047619,27.1271429 C64.969727,27.2054637 64.8874657,27.2515301 64.802381,27.2404762 L64.7538095,27.2404762 C64.6566667,27.2404762 64.6404762,27.2404762 64.6971429,27.1271429 L64.8428571,26.8357143 Z M65.0209524,30.4461905 C65.11646,30.3532484 65.2690232,30.354633 65.3628282,30.4492932 C65.4566332,30.5439533 65.4566332,30.6965228 65.3628282,30.791183 C65.2690232,30.8858432 65.11646,30.8872278 65.0209524,30.7942857 C64.9739705,30.7485659 64.9474677,30.6857942 64.9474677,30.6202381 C64.9474677,30.554682 64.9739705,30.4919103 65.0209524,30.4461905 L65.0209524,30.4461905 Z" id="Shape" fill="#009EDB" fill-rule="nonzero"></path>
                <path d="M65.1909524,30.8671429 C65.0586068,30.8629383 64.9522998,30.7566313 64.9480952,30.6242857 C64.9458187,30.5572375 64.9723355,30.4924186 65.0209524,30.4461905 L65.0209524,30.4461905 C65.0640454,30.3979445 65.1262963,30.3712655 65.1909524,30.3733333 C65.3295496,30.3733333 65.4419048,30.4856885 65.4419048,30.6242857 C65.4439726,30.6889418 65.4172936,30.7511927 65.3690476,30.7942857 C65.3217213,30.8412704 65.2576399,30.8674855 65.1909524,30.8671429 L65.1909524,30.8671429 Z M65.1909524,30.3814286 C65.1267035,30.3814286 65.065262,30.4077606 65.0209524,30.4542857 L65.0209524,30.4542857 C64.9781551,30.5004216 64.9549371,30.5613687 64.9561905,30.6242857 C64.9565164,30.6869182 64.9795234,30.7473116 65.0209524,30.7942857 C65.1170204,30.8827558 65.2648844,30.8827558 65.3609524,30.7942857 C65.4074775,30.7499761 65.4338095,30.6885346 65.4338095,30.6242857 C65.4296049,30.4919401 65.323298,30.3856332 65.1909524,30.3814286 L65.1909524,30.3814286 Z M65.1909524,30.0171429 C64.4461905,30.0171429 64.0980952,29.6852381 64.0980952,28.9728571 L64.0980952,28.5195238 C64.0721727,28.2230142 64.1720493,27.9292594 64.3733333,27.71 C64.6001686,27.5233975 64.8898301,27.4307058 65.1828571,27.4509524 C65.9195238,27.4509524 66.2595238,27.7828571 66.2595238,28.4952381 L66.2595238,28.9485714 C66.3039798,29.2433798 66.205799,29.5417824 65.9949812,29.7526002 C65.7841633,29.9634181 65.4857608,30.0615989 65.1909524,30.0171429 Z M65.1909524,27.4914286 C64.8987173,27.4663762 64.6082499,27.5564211 64.3814286,27.742381 C64.1794337,27.9608518 64.0819953,28.2561198 64.1142857,28.5519048 L64.1142857,29.0052381 C64.1142857,29.7095238 64.4542857,30.0333333 65.1909524,30.0333333 C65.4830938,30.0575238 65.7732446,29.9675771 66.0004762,29.782381 C66.202471,29.5639101 66.2999095,29.2686421 66.267619,28.9728571 L66.267619,28.5195238 C66.2595238,27.8152381 65.9195238,27.5238095 65.1909524,27.5238095 L65.1909524,27.4914286 Z M65.1909524,29.6690476 C64.6728571,29.6690476 64.4704762,29.4747619 64.4704762,28.9728571 L64.4704762,28.5195238 C64.4704762,28.017619 64.6647619,27.8233333 65.1909524,27.8233333 C65.7171429,27.8233333 65.8952381,28.017619 65.8952381,28.5195238 L65.8952381,28.9728571 C65.8952381,29.4828571 65.7090476,29.6690476 65.1909524,29.6690476 Z M65.1909524,27.8395238 C64.6728571,27.8395238 64.4785714,28.017619 64.4785714,28.5195238 L64.4785714,28.9728571 C64.4785714,29.4666667 64.6809524,29.6528571 65.1909524,29.6528571 C65.7009524,29.6528571 65.8871429,29.4747619 65.8871429,28.9728571 L65.8871429,28.5195238 C65.8871429,28.017619 65.7009524,27.8395238 65.1909524,27.8395238 Z M65.6604762,27.2485714 L65.6604762,27.2485714 C65.5727014,27.2614816 65.4880097,27.2106665 65.4580952,27.1271429 L65.3447619,26.9409524 C65.3447619,26.8680952 65.2638095,26.8357143 65.2314286,26.8357143 L65.2314286,26.8357143 C65.2314286,26.8357143 65.1504762,26.8357143 65.1180952,26.9409524 L65.0047619,27.1271429 C64.9748474,27.2106665 64.8901557,27.2614816 64.802381,27.2485714 L64.7538095,27.2485714 C64.6971429,27.2485714 64.6728571,27.2485714 64.6647619,27.2485714 C64.6566667,27.2485714 64.6647619,27.2 64.6647619,27.1595238 L64.8509524,26.8680952 C64.972381,26.69 65.0371429,26.6252381 65.2071429,26.6252381 C65.3771429,26.6252381 65.4338095,26.6738095 65.5552381,26.8680952 L65.7414286,27.1595238 C65.7414286,27.2 65.79,27.232381 65.7414286,27.2485714 C65.6928571,27.2647619 65.7171429,27.2485714 65.6604762,27.2485714 L65.6604762,27.2485714 Z M65.1909524,26.827619 L65.1909524,26.827619 C65.1909524,26.827619 65.2719048,26.827619 65.312381,26.9328571 L65.4257143,27.1271429 C65.4554096,27.2062106 65.5365574,27.2535468 65.62,27.2404762 L65.62,27.2404762 C65.6766667,27.2404762 65.7009524,27.2404762 65.7090476,27.2404762 C65.7171429,27.2404762 65.7090476,27.2404762 65.7090476,27.1595238 L65.5714286,26.8438095 C65.4580952,26.6495238 65.3852381,26.6009524 65.2314286,26.6009524 C65.077619,26.6009524 65.0047619,26.657619 64.8833333,26.8438095 L64.6971429,27.1352381 C64.6971429,27.1352381 64.6971429,27.2 64.6971429,27.2161905 C64.6971429,27.232381 64.6971429,27.2161905 64.7780952,27.2161905 L64.7619048,27.2161905 C64.8441735,27.2235521 64.9221036,27.178093 64.9561905,27.1028571 L65.0695238,26.9085714 C65.11,26.86 65.1504762,26.827619 65.1909524,26.827619 Z" id="Shape" fill="#009EDB" fill-rule="nonzero"></path>
                <path d="M66.7371429,28.5033333 C66.7371429,27.8557143 67.0852381,27.4833333 67.8380952,27.4833333 C67.9838607,27.4786272 68.1292607,27.5005744 68.2671429,27.5480952 C68.3885714,27.5480952 68.4209524,27.6209524 68.4209524,27.7342857 L68.4209524,27.7828571 C68.4209524,27.9042857 68.4209524,27.9447619 68.2671429,27.9042857 C68.1328187,27.8531466 67.9898883,27.8284087 67.8461905,27.8314286 C67.2957143,27.8314286 67.1095238,28.05 67.1095238,28.5114286 L67.1095238,28.9890476 C67.1095238,29.4828571 67.3280952,29.6609524 67.8785714,29.6609524 C68.0296353,29.6656727 68.1803501,29.6437505 68.3238095,29.5961905 C68.4371429,29.5557143 68.4695238,29.5961905 68.4695238,29.717619 L68.4695238,29.7661905 C68.4695238,29.8714286 68.4695238,29.9119048 68.307619,29.9442857 C68.1613627,29.9918086 68.0079982,30.0137179 67.8542857,30.0090476 C67.0933333,30.0090476 66.7371429,29.6852381 66.7371429,28.9890476 L66.7371429,28.5033333 Z" id="Path" fill="#009EDB" fill-rule="nonzero"></path>
                <path d="M67.8542857,30.0171429 C67.5626079,30.037228 67.2739333,29.9477388 67.0447619,29.7661905 C66.8349089,29.5521074 66.733653,29.2542959 66.7695238,28.9566667 L66.7695238,28.4709524 C66.7495877,28.1937134 66.8464418,27.920761 67.0366667,27.7180952 C67.2597812,27.5234073 67.5506452,27.4245135 67.8461905,27.4428571 C67.9943498,27.4420947 68.1417589,27.4639331 68.2833333,27.507619 C68.4047619,27.507619 68.4290476,27.5885714 68.4290476,27.7019048 L68.4290476,27.7504762 C68.4290476,27.8233333 68.4290476,27.8638095 68.4290476,27.88 C68.3910789,27.9001486 68.3455878,27.9001486 68.307619,27.88 C68.171453,27.8369531 68.029475,27.8151104 67.8866667,27.8152381 C67.3685714,27.8152381 67.15,28.0095238 67.15,28.4871429 L67.15,28.9647619 C67.15,29.4504762 67.3604762,29.6285714 67.9190476,29.6285714 C68.0675376,29.6346597 68.2158438,29.6126884 68.3561905,29.5638095 C68.3949537,29.5471559 68.4388559,29.5471559 68.477619,29.5638095 C68.477619,29.5638095 68.477619,29.6204762 68.477619,29.6933333 L68.477619,29.7419048 C68.477619,29.8552381 68.477619,29.8957143 68.3238095,29.9280952 C68.172568,29.9808397 68.0143368,30.0108491 67.8542857,30.0171429 Z M67.8542857,27.4914286 C67.1419048,27.4914286 66.7614286,27.8395238 66.7614286,28.5033333 L66.7614286,28.9890476 C66.7614286,29.6852381 67.1095238,30.0009524 67.8704762,30.0009524 C68.0235061,30.0035858 68.1761364,29.984507 68.3238095,29.9442857 C68.4452381,29.9442857 68.477619,29.8714286 68.477619,29.7661905 L68.477619,29.717619 C68.477619,29.6528571 68.477619,29.612381 68.477619,29.5961905 C68.477619,29.58 68.4209524,29.5961905 68.372381,29.5961905 C68.2281591,29.6404451 68.0779959,29.662287 67.9271429,29.6609524 C67.3685714,29.6609524 67.117619,29.4666667 67.117619,28.9809524 L67.117619,28.5033333 C67.117619,28.017619 67.3361905,27.8152381 67.862381,27.8152381 C68.0086034,27.8136653 68.1539218,27.838342 68.2914286,27.8880952 C68.3480952,27.8880952 68.3804762,27.8880952 68.3966667,27.8880952 C68.4128571,27.8880952 68.3966667,27.8314286 68.3966667,27.7666667 L68.3966667,27.7180952 C68.3966667,27.6128571 68.3966667,27.572381 68.2509524,27.5319048 C68.1145237,27.5084574 67.9753382,27.5057282 67.8380952,27.5238095 L67.8542857,27.4914286 Z" id="Shape" fill="#009EDB" fill-rule="nonzero"></path>
                <path d="M70.0966667,29.6933333 C70.0966667,29.5719048 70.0966667,29.5395238 70.2585714,29.5638095 C70.4926693,29.6322152 70.7351641,29.6676358 70.9790476,29.6690476 C71.3595238,29.6690476 71.5133333,29.5961905 71.5133333,29.3857143 C71.5133333,29.1752381 71.432381,29.1428571 71.197619,29.0295238 L70.5985714,28.7461905 C70.2828571,28.592381 70.1371429,28.4466667 70.1371429,28.1066667 C70.1371429,27.7666667 70.4285714,27.5238095 71.0114286,27.5238095 C71.2198018,27.5226347 71.4271777,27.5526497 71.6266667,27.6128571 C71.74,27.6128571 71.772381,27.6857143 71.772381,27.7990476 L71.772381,27.847619 C71.772381,27.9690476 71.772381,27.9933333 71.6185714,27.9609524 C71.4195696,27.8985775 71.2118539,27.8685134 71.0033333,27.8719048 C70.6390476,27.8719048 70.5014286,27.9447619 70.5014286,28.1471429 C70.5014286,28.3495238 70.5904762,28.39 70.7604762,28.4709524 L71.3919048,28.7542857 C71.7238095,28.9161905 71.8857143,29.0619048 71.8857143,29.4180952 C71.8857143,29.7742857 71.5861905,30.0495238 70.9547619,30.0495238 C70.7196851,30.0523867 70.4853597,30.0224149 70.2585714,29.9604762 C70.1290476,29.92 70.0966667,29.8795238 70.0966667,29.7742857 L70.0966667,29.6933333 Z" id="Path" fill="#009EDB" fill-rule="nonzero"></path>
                <path d="M70.9547619,30.0171528 C70.7166156,30.0178078 70.4795502,29.9851091 70.2504762,29.92 C70.1290476,29.92 70.0966667,29.8471429 70.0966667,29.7338095 L70.0966667,29.7338095 C70.0966667,29.6690476 70.0966667,29.6285714 70.0966667,29.612381 C70.0966667,29.5961905 70.1614286,29.612381 70.2261905,29.612381 C70.4609008,29.6769514 70.7032365,29.7096259 70.9466667,29.7095238 C71.3352381,29.7095238 71.4809524,29.6366667 71.4809524,29.4342857 C71.4809524,29.2319048 71.4080952,29.1995238 71.1652381,29.0861905 L70.5580952,28.7947619 C70.2585714,28.6490476 70.0966667,28.5033333 70.0966667,28.1552381 C70.0966667,27.8071429 70.38,27.5238095 70.9790476,27.5238095 C71.1882411,27.519799 71.3965049,27.5526828 71.5942857,27.6209524 C71.7157143,27.6209524 71.7480952,27.6938095 71.7480952,27.8071429 L71.7480952,27.8557143 C71.763044,27.8948103 71.763044,27.9380469 71.7480952,27.9771429 C71.7066122,27.9942347 71.6600545,27.9942347 71.6185714,27.9771429 C71.4232346,27.910281 71.2178755,27.8774236 71.0114286,27.88 C70.6552381,27.88 70.517619,27.9609524 70.517619,28.1552381 C70.5255753,28.3031515 70.6262672,28.4298284 70.7685714,28.4709524 L71.4,28.762381 C71.7238095,28.9080952 71.8938095,29.0619048 71.8938095,29.4261905 C71.8938095,29.7904762 71.5861905,30.0171528 70.9547619,30.0171528 Z M70.1452381,29.5638095 L70.0966667,29.5638095 C70.0966667,29.5638095 70.0966667,29.6204762 70.0966667,29.6771429 L70.0966667,29.6771429 C70.0966667,29.782381 70.0966667,29.8228571 70.2504762,29.8552381 C70.4770037,29.9184744 70.7115156,29.9484701 70.9466667,29.9442857 C71.5861905,29.9442857 71.8695238,29.7580952 71.8695238,29.3209524 C71.8695238,28.8838095 71.6995238,28.8109524 71.3838095,28.6652381 L70.752381,28.3738095 C70.6024328,28.3353866 70.4944657,28.2045174 70.4852381,28.05 C70.4852381,27.847619 70.6309524,27.7666667 70.9952381,27.7666667 C71.2042838,27.7647291 71.4121973,27.7975576 71.6104762,27.8638095 C71.6671429,27.8638095 71.6995238,27.8638095 71.7238095,27.8638095 C71.7391028,27.8275795 71.7391028,27.7867062 71.7238095,27.7504762 L71.7238095,27.7019048 C71.7238095,27.5885714 71.7238095,27.5642857 71.5780952,27.5238095 C71.3794901,27.4597082 71.1714868,27.4296025 70.9628571,27.4347619 C70.3719048,27.4347619 70.0966667,27.6290476 70.0966667,28.05 C70.0966667,28.4709524 70.2504762,28.5357143 70.55,28.6814286 L71.1490476,28.9728571 C71.3919048,29.0861905 71.4728571,29.1752381 71.4728571,29.3290476 C71.4728571,29.4828571 71.3271429,29.612381 70.9304762,29.612381 C70.6844188,29.6119568 70.4394774,29.5792979 70.2019048,29.5152381 L70.1452381,29.5638095 Z" id="Shape" fill="#009EDB" fill-rule="nonzero"></path>
                <path d="M72.3552381,28.9728571 L72.3552381,28.5195238 C72.3552381,27.8314286 72.7195238,27.4833333 73.44,27.4833333 C74.1604762,27.4833333 74.5166667,27.8395238 74.5166667,28.5195238 L74.5166667,28.9728571 C74.5166667,29.6690476 74.1604762,30.0090476 73.44,30.0090476 C72.7195238,30.0090476 72.3552381,29.6528571 72.3552381,28.9728571 Z M74.1442857,28.5195238 C74.1442857,28.0419048 73.982381,27.8314286 73.44,27.8314286 C72.897619,27.8314286 72.727619,28.0419048 72.727619,28.5195238 L72.727619,28.9728571 C72.727619,29.4504762 72.9057143,29.6609524 73.44,29.6609524 C73.9742857,29.6609524 74.1442857,29.4504762 74.1442857,28.9728571 L74.1442857,28.5195238 Z M73.0919048,26.8357143 C73.2133333,26.657619 73.2780952,26.5928571 73.44,26.5928571 C73.6019048,26.5928571 73.6747619,26.6414286 73.7880952,26.8357143 L73.982381,27.1271429 C74.0390476,27.2161905 73.982381,27.2404762 73.917619,27.2404762 L73.917619,27.2404762 C73.8319927,27.2544657 73.748053,27.2074594 73.7152381,27.1271429 L73.6019048,26.9328571 C73.5209524,26.7952381 73.44,26.7952381 73.3671429,26.9328571 L73.2538095,27.1271429 C73.2052381,27.2242857 73.1566667,27.2404762 73.0514286,27.2404762 L73.0514286,27.2404762 C72.9461905,27.2404762 72.93,27.2404762 72.9866667,27.1271429 L73.0919048,26.8357143 Z M74.3466667,26.5442857 C74.3052123,26.6204816 74.2226224,26.6649531 74.1361905,26.657619 L74.087619,26.657619 C73.9742857,26.657619 73.9580952,26.657619 74.0147619,26.5361905 L74.2171429,26.1395238 C74.2546652,26.0367536 74.3602405,25.9754518 74.4680952,25.9938095 L74.5166667,25.9938095 C74.6461905,25.9938095 74.6704762,25.9938095 74.597619,26.1314286 L74.3466667,26.5442857 Z" id="Shape" fill="#009EDB" fill-rule="nonzero"></path>
                <path d="M73.44,30.0171429 C72.7033333,30.0171429 72.3552381,29.6852381 72.3552381,28.9728571 L72.3552381,28.5195238 C72.3271357,28.2241949 72.4240231,27.930597 72.622381,27.71 C72.8507631,27.5262538 73.1392765,27.4339295 73.4319048,27.4509524 C74.1685714,27.4509524 74.5166667,27.7828571 74.5166667,28.4952381 L74.5166667,28.9485714 C74.5247619,29.6690476 74.1604762,30.0171429 73.44,30.0171429 Z M73.44,27.4914286 C73.1479519,27.4680859 72.8581103,27.5579368 72.6304762,27.742381 C72.4284814,27.9608518 72.3310429,28.2561198 72.3633333,28.5519048 L72.3633333,29.0052381 C72.3633333,29.7095238 72.7033333,30.0333333 73.44,30.0333333 C73.7323291,30.059262 74.0231207,29.9691166 74.2495238,29.782381 C74.4515186,29.5639101 74.5489571,29.2686421 74.5166667,28.9728571 L74.5166667,28.5195238 C74.4761905,27.8152381 74.1685714,27.5238095 73.44,27.5238095 L73.44,27.4914286 Z M73.44,29.6690476 C72.9219048,29.6690476 72.7195238,29.4747619 72.7195238,28.9728571 L72.7195238,28.5195238 C72.7195238,28.017619 72.9138095,27.8233333 73.44,27.8233333 C73.9661905,27.8233333 74.152381,28.017619 74.152381,28.5195238 L74.152381,28.9728571 C74.152381,29.4828571 73.9580952,29.6690476 73.44,29.6690476 Z M73.44,27.8395238 C72.9219048,27.8395238 72.7357143,28.017619 72.7357143,28.5195238 L72.7357143,28.9728571 C72.7357143,29.4666667 72.93,29.6528571 73.44,29.6528571 C73.95,29.6528571 74.1442857,29.4747619 74.1442857,28.9728571 L74.1442857,28.5195238 C74.1442857,28.017619 73.95,27.8395238 73.44,27.8395238 Z M73.917619,27.2485714 L73.917619,27.2485714 C73.8276817,27.2623756 73.7402111,27.2119118 73.7071429,27.1271429 L73.5938095,26.9409524 C73.5209524,26.8033333 73.4480952,26.8033333 73.3671429,26.9409524 L73.2619048,27.1271429 C73.2288365,27.2119118 73.1413659,27.2623756 73.0514286,27.2485714 L73.0514286,27.2485714 C72.9947619,27.2485714 72.962381,27.2485714 72.9542857,27.2485714 C72.9461905,27.2485714 72.9542857,27.2 72.9542857,27.1595238 L73.1404762,26.8680952 C73.2538095,26.69 73.3266667,26.6252381 73.4885714,26.6252381 C73.6504762,26.6252381 73.7233333,26.6738095 73.8447619,26.8680952 L74.0309524,27.1595238 C74.0309524,27.2 74.0309524,27.232381 74.0309524,27.2485714 C74.0309524,27.2647619 73.9742857,27.2485714 73.917619,27.2485714 L73.917619,27.2485714 Z M73.44,26.827619 C73.44,26.827619 73.5209524,26.827619 73.5614286,26.9328571 L73.6747619,27.1271429 C73.7097968,27.2054637 73.7920581,27.2515301 73.8771429,27.2404762 L73.8771429,27.2404762 C73.9257143,27.2404762 73.9580952,27.2404762 73.9661905,27.2404762 C73.9742857,27.2404762 73.9661905,27.2404762 73.9661905,27.1595238 L73.78,26.8680952 C73.6585714,26.6738095 73.5938095,26.6252381 73.4319048,26.6252381 C73.27,26.6252381 73.2052381,26.6819048 73.0919048,26.8680952 L72.9057143,27.1595238 C72.9057143,27.1595238 72.9057143,27.2242857 72.9057143,27.2404762 C72.9057143,27.2566667 72.9057143,27.2404762 72.9947619,27.2404762 L72.9947619,27.2404762 C73.0793269,27.2489396 73.1601708,27.203667 73.1971429,27.1271429 L73.302381,26.9328571 C73.3590476,26.86 73.3995238,26.827619 73.44,26.827619 Z M74.1361905,26.6657143 L74.087619,26.6657143 C74.0228571,26.6657143 73.9904762,26.6657143 73.982381,26.6657143 C73.9692711,26.6318598 73.9692711,26.5943307 73.982381,26.5604762 L74.1928571,26.1638095 C74.2042048,26.101169 74.2413711,26.0461877 74.2952681,26.0123096 C74.349165,25.9784315 74.4148241,25.9687797 74.4761905,25.9857143 L74.5247619,25.9857143 C74.597619,25.9857143 74.6380952,25.9857143 74.6461905,25.9857143 C74.6542857,25.9857143 74.6461905,26.042381 74.6461905,26.1071429 L74.4033333,26.5119048 C74.359978,26.6182686 74.2499442,26.6816214 74.1361905,26.6657143 L74.1361905,26.6657143 Z M74.4680952,25.9938095 C74.3630265,25.9796042 74.2621481,26.0401313 74.2252381,26.1395238 L74.0147619,26.5361905 C74.0147619,26.5928571 74.0147619,26.6171429 74.0147619,26.6333333 C74.0147619,26.6495238 74.0147619,26.6333333 74.1119048,26.6333333 L74.1604762,26.6333333 C74.2477549,26.6351387 74.3288275,26.588366 74.3709524,26.5119048 L74.6138095,26.1071429 C74.6138095,26.0504762 74.662381,26.0180952 74.6138095,26.0019048 C74.5652381,25.9857143 74.5652381,26.0019048 74.5004762,26.0019048 L74.4680952,25.9938095 Z" id="Shape" fill="#009EDB" fill-rule="nonzero"></path>
                <path d="M75.4071429,29.8066667 C75.4071429,29.9361905 75.4071429,29.9604762 75.2533333,29.9604762 L75.1966667,29.9604762 C75.0752381,29.9604762 75.0347619,29.9604762 75.0347619,29.8066667 L75.0347619,28.4061905 C75.0347619,27.7909524 75.3828571,27.4833333 76.0709524,27.4833333 C76.7590476,27.4833333 77.0909524,27.8071429 77.0909524,28.4061905 L77.0909524,29.8066667 C77.0909524,29.9361905 77.0909524,29.9604762 76.9371429,29.9604762 L76.9047619,29.9604762 C76.7671429,29.9604762 76.7428571,29.9604762 76.7428571,29.8066667 L76.7428571,28.4061905 C76.7428571,28.0095238 76.5890476,27.8314286 76.0952381,27.8314286 C75.6014286,27.8314286 75.4314286,28.017619 75.4314286,28.4061905 L75.4071429,29.8066667 Z" id="Path" fill="#009EDB" fill-rule="nonzero"></path>
                <path d="M76.9047619,29.952381 L76.9047619,29.952381 C76.7671429,29.952381 76.7347619,29.952381 76.7347619,29.7904762 L76.7347619,28.4061905 C76.7347619,27.9933333 76.5647619,27.8395238 76.0952381,27.8395238 C75.6257143,27.8395238 75.4395238,27.9933333 75.4395238,28.4061905 L75.4395238,29.8066667 C75.4395238,29.9361905 75.4395238,29.9685714 75.277619,29.9685714 L75.2209524,29.9685714 C75.0995238,29.9685714 75.0590476,29.9685714 75.0590476,29.8066667 L75.0590476,28.4061905 C75.0590476,27.7909524 75.4071429,27.4752381 76.0952381,27.4752381 C76.3866429,27.4452673 76.6779767,27.5326675 76.9047619,27.7180952 C77.0793916,27.9027883 77.1676311,28.1528003 77.147619,28.4061905 L77.147619,29.8066667 C77.0990476,29.952381 77.0747619,29.952381 76.9047619,29.952381 Z M76.0952381,27.8233333 C76.5728571,27.8233333 76.7509524,27.9852381 76.7509524,28.4061905 L76.7509524,29.8066667 C76.7509524,29.9361905 76.7509524,29.952381 76.9047619,29.952381 L76.9047619,29.952381 C77.0342857,29.952381 77.0585714,29.952381 77.0585714,29.8066667 L77.0585714,28.4061905 C77.079373,28.1551203 76.9908586,27.90728 76.8157143,27.7261905 C76.6074804,27.5747515 76.3518702,27.5029509 76.0952381,27.5238095 C75.806177,27.4910817 75.5157506,27.5724011 75.2857143,27.7504762 C75.1033675,27.9312291 75.0087934,28.1824415 75.0266667,28.4385714 L75.0266667,29.8390476 C75.0266667,29.9685714 75.0266667,29.9847619 75.1804762,29.9847619 L75.2857143,29.9847619 C75.4152381,29.9847619 75.4395238,29.9847619 75.4395238,29.8390476 L75.4395238,28.4061905 C75.4071429,27.9852381 75.5933333,27.8233333 76.0952381,27.8233333 Z" id="Shape" fill="#009EDB" fill-rule="nonzero"></path>
                <path d="M79.6490476,28.3980952 C79.6490476,28.9647619 79.3171429,29.2561905 78.6290476,29.2561905 C78.4568637,29.2373374 78.2831363,29.2373374 78.1109524,29.2561905 C78.0368969,29.2685234 77.984333,29.3351043 77.9895238,29.41 C77.9895238,29.4747619 77.9895238,29.5233333 78.1190476,29.547619 C78.2887923,29.5607961 78.459303,29.5607961 78.6290476,29.547619 C78.9076381,29.5282145 79.1865112,29.5812004 79.4385714,29.7014286 C79.6098739,29.8190339 79.7030714,30.020962 79.6814286,30.227619 C79.7039794,30.4504326 79.6126612,30.6695963 79.4385714,30.8104762 C79.189892,30.9416053 78.9094679,31.0004944 78.6290476,30.9804762 C78.3488044,30.9979719 78.0690558,30.9392247 77.8195238,30.8104762 C77.6578377,30.6892734 77.5692903,30.4938584 77.5847619,30.292381 C77.5734267,30.077812 77.6827202,29.8748385 77.8680952,29.7661905 C77.7373992,29.7137456 77.6555845,29.582842 77.6657143,29.442381 C77.6657143,29.2238095 77.7952381,29.0942857 78.062381,29.0538095 C77.782199,28.9339677 77.6142144,28.6441119 77.6495238,28.3414286 L77.6495238,28.3333333 C77.6495238,27.7990476 78.03,27.5238095 78.6695238,27.5238095 C78.8444573,27.5200415 79.0182247,27.5531401 79.1795238,27.6209524 L79.4628571,27.37 C79.5438095,27.2971429 79.5842857,27.2971429 79.6652381,27.37 L79.6652381,27.37 C79.7461905,27.4428571 79.7461905,27.4833333 79.6652381,27.5642857 L79.4466667,27.7909524 C79.5903644,27.9371647 79.6666357,28.1366434 79.6571429,28.3414286 L79.6490476,28.3980952 Z M78.1514286,29.9038095 C78.0000149,29.9804313 77.907989,30.1390967 77.9166667,30.3085714 C77.9166667,30.632381 78.1028571,30.7133333 78.6290476,30.7133333 C79.1552381,30.7133333 79.3414286,30.632381 79.3414286,30.3004762 C79.3414286,29.9685714 79.1633333,29.9361905 78.6290476,29.9361905 C78.4692604,29.9371962 78.3096179,29.9263729 78.1514286,29.9038095 L78.1514286,29.9038095 Z M79.2766667,28.3333333 C79.2766667,27.9852381 79.0580952,27.8152381 78.6290476,27.8152381 C78.2,27.8152381 77.9733333,27.9852381 77.9733333,28.3333333 L77.9733333,28.3980952 C77.9733333,28.7461905 78.1352381,28.9242857 78.6290476,28.9242857 C79.1228571,28.9242857 79.2766667,28.7461905 79.2766667,28.3980952 L79.2766667,28.3333333 Z" id="Shape" fill="#009EDB" fill-rule="nonzero"></path>
                <path d="M78.6290476,31.0371429 C78.3494687,31.0583696 78.0694325,31.0023624 77.8195238,30.8752381 C77.6588985,30.7495892 77.570972,30.5525125 77.5847619,30.3490476 C77.5718788,30.1382006 77.6740849,29.9368857 77.8519048,29.8228571 C77.726068,29.7658689 77.6486855,29.636898 77.657619,29.4990476 C77.657619,29.2831746 77.7871429,29.1536508 78.0461905,29.1104762 C77.7710279,28.9859535 77.6075402,28.698215 77.6414286,28.3980952 L77.6414286,28.3333333 C77.6345873,28.0923756 77.7354852,27.8609038 77.9166667,27.7019048 C78.1341008,27.5420505 78.3999765,27.4620019 78.6695238,27.4752381 C78.8444573,27.4714701 79.0182247,27.5045687 79.1795238,27.572381 L79.4628571,27.3295238 C79.5438095,27.2485714 79.5842857,27.2485714 79.6652381,27.3295238 L79.6652381,27.3295238 C79.7138095,27.37 79.73,27.3942857 79.73,27.4266667 C79.73,27.4590476 79.73,27.4833333 79.6652381,27.5319048 L79.4466667,27.7504762 C79.5959647,27.8935491 79.6757279,28.0944343 79.6652381,28.3009524 L79.6652381,28.3657143 C79.6652381,28.932381 79.3171429,29.2238095 78.6371429,29.2238095 C78.465008,29.2040786 78.2911825,29.2040786 78.1190476,29.2238095 C78.0513973,29.2392058 78.0039844,29.3001652 78.0057143,29.3695238 C78.0057143,29.4342857 78.0461905,29.4747619 78.1271429,29.4990476 C78.2968269,29.513706 78.4674588,29.513706 78.6371429,29.4990476 C78.929177,29.4723938 79.2229672,29.5255558 79.4871429,29.6528571 C79.6582722,29.7700249 79.7490226,29.9734311 79.7219048,30.1790476 C79.7505153,30.4050341 79.6582958,30.6294349 79.4790476,30.77 C79.2262749,30.9367912 78.9317893,31.0293438 78.6290476,31.0371429 Z M78.6290476,27.4914286 C77.997619,27.4914286 77.6171429,27.8071429 77.6171429,28.3009524 L77.6171429,28.3657143 C77.5832545,28.6658341 77.7467422,28.9535725 78.0219048,29.0780952 L78.0219048,29.0780952 C77.7547619,29.1185714 77.6252381,29.24 77.6252381,29.4585714 C77.6221945,29.5971795 77.7016938,29.7243784 77.827619,29.782381 L77.827619,29.782381 C77.6466589,29.8904516 77.5406331,30.0900295 77.552381,30.3004762 C77.5393879,30.4997243 77.6238964,30.6928864 77.7790476,30.8185714 C78.030365,30.9415851 78.3092732,30.9973668 78.5885714,30.9804762 C78.8681248,31.0012866 79.1480499,30.9453015 79.3980952,30.8185714 C79.572185,30.6776915 79.6635032,30.4585278 79.6409524,30.2357143 C79.6648969,30.0328332 79.5745181,29.8333768 79.4061905,29.717619 C79.1541302,29.5973909 78.8752571,29.544405 78.5966667,29.5638095 C78.4244623,29.5822834 78.2507758,29.5822834 78.0785714,29.5638095 C78.0106616,29.5523923 77.9600155,29.4949934 77.9571429,29.4261905 C77.9519521,29.3512948 78.004516,29.2847139 78.0785714,29.272381 C78.2506769,29.2521425 78.4245612,29.2521425 78.5966667,29.272381 C78.882975,29.3010242 79.1700914,29.2263739 79.4061905,29.0619048 C79.5806336,28.896556 79.6725804,28.6622399 79.6571429,28.422381 L79.6571429,28.3333333 C79.668553,28.1290344 79.5884479,27.9302552 79.4385714,27.7909524 L79.4385714,27.7909524 L79.6571429,27.5642857 C79.7057143,27.5642857 79.7219048,27.4914286 79.7219048,27.4671429 C79.7165152,27.4307612 79.695913,27.3983862 79.6652381,27.3780952 L79.6247619,27.3780952 C79.5519048,27.3052381 79.5114286,27.3052381 79.4304762,27.3780952 L79.1471429,27.6290476 L79.1471429,27.6290476 C78.983954,27.5573323 78.8072837,27.5214462 78.6290476,27.5238095 L78.6290476,27.4914286 Z M78.6290476,30.7295238 C78.0785714,30.7295238 77.9166667,30.632381 77.9166667,30.3166667 C77.898538,30.1450424 77.9934561,29.9813904 78.1514286,29.9119048 L78.1514286,29.9119048 C78.3104765,29.9219502 78.4699997,29.9219502 78.6290476,29.9119048 C79.1633333,29.9119048 79.3495238,29.9685714 79.3495238,30.2842857 C79.3495238,30.6 79.1714286,30.7619048 78.6290476,30.7619048 L78.6290476,30.7295238 Z M78.1514286,29.92 C78.0013417,29.9928698 77.9113441,30.1503656 77.9247619,30.3166667 C77.9247619,30.6242857 78.0866667,30.7214286 78.6290476,30.7214286 C79.1714286,30.7214286 79.3333333,30.6242857 79.3333333,30.3085714 C79.3333333,29.9928571 79.1633333,29.9442857 78.6290476,29.9442857 C78.4701701,29.9570283 78.3106467,29.9597321 78.1514286,29.952381 L78.1514286,29.92 Z M78.6290476,28.9404762 C78.1595238,28.9404762 77.9733333,28.7866667 77.9733333,28.4061905 L77.9733333,28.3333333 C77.9733333,27.9771429 78.1838095,27.8071429 78.6290476,27.8071429 C79.0742857,27.8071429 79.2847619,27.9852381 79.2847619,28.3333333 L79.2847619,28.3980952 C79.2847619,28.7785714 79.0985714,28.932381 78.6290476,28.932381 L78.6290476,28.9404762 Z M78.6290476,27.8233333 C78.1919048,27.8233333 77.9814286,27.9933333 77.9814286,28.3414286 L77.9814286,28.4061905 C77.9814286,28.7785714 78.167619,28.932381 78.6290476,28.932381 C79.0904762,28.932381 79.2766667,28.7785714 79.2766667,28.4061905 L79.2766667,28.3333333 C79.2766667,27.9933333 79.0580952,27.8152381 78.6290476,27.8152381 L78.6290476,27.8233333 Z" id="Shape" fill="#009EDB" fill-rule="nonzero"></path>
                <path d="M84.0042857,27.1190476 C84.0042857,27.2242857 84.0042857,27.2566667 83.8666667,27.2566667 L83.5752381,27.2566667 L83.5752381,28.9809524 C83.5752381,29.6690476 83.2109524,30.0090476 82.4904762,30.0090476 C81.77,30.0090476 81.4138095,29.6690476 81.4138095,28.9809524 L81.4138095,28.5195238 C81.38411,28.2430153 81.4829507,27.9681715 81.6819511,27.7739092 C81.8809515,27.5796469 82.1580969,27.4874567 82.4338095,27.5238095 C82.7503946,27.4716188 83.0679259,27.6113326 83.2433333,27.88 L83.2433333,27.2971429 L82.5714286,27.2971429 C82.4580952,27.2971429 82.4338095,27.2971429 82.4338095,27.1595238 L82.4338095,27.1595238 C82.4338095,27.0542857 82.4338095,27.0219048 82.5714286,27.0219048 L83.2433333,27.0219048 L83.2433333,26.7142857 C83.2433333,26.5766667 83.2433333,26.552381 83.3971429,26.552381 L83.3809524,26.552381 C83.502381,26.552381 83.5428571,26.552381 83.5428571,26.7142857 L83.5428571,26.9814286 L83.8342857,26.9814286 C83.9395238,26.9814286 83.9719048,26.9814286 83.9719048,27.1190476 L84.0042857,27.1190476 Z M81.7619048,28.9728571 C81.7619048,29.4504762 81.9238095,29.6609524 82.4661905,29.6609524 C83.0085714,29.6609524 83.1785714,29.4504762 83.1785714,28.9728571 L83.1785714,28.5195238 C83.1785714,28.0419048 83.0085714,27.8314286 82.4661905,27.8314286 C81.9238095,27.8314286 81.7619048,28.0419048 81.7619048,28.5195238 L81.7619048,28.9728571 Z" id="Shape" fill="#009EDB" fill-rule="nonzero"></path>
                <path d="M82.4904762,30.0171429 C82.1973483,30.0382281 81.9073829,29.9454392 81.6809524,29.7580952 C81.4789576,29.5396244 81.3815191,29.2443564 81.4138095,28.9485714 L81.4138095,28.4871429 C81.3835147,28.1929864 81.4774174,27.8995404 81.6728571,27.677619 C81.8907674,27.4746749 82.1864815,27.3770893 82.482381,27.4104762 C82.7809839,27.3762486 83.0739704,27.5102743 83.2433333,27.7585714 L83.2433333,27.2 L82.5714286,27.2 C82.4580952,27.2 82.4257143,27.2 82.4257143,27.0542857 L82.4257143,27.0542857 C82.4257143,26.9409524 82.4257143,26.9085714 82.5714286,26.9085714 L83.2352381,26.9085714 L83.2352381,26.7142857 C83.2352381,26.5766667 83.2352381,26.5442857 83.3971429,26.5442857 L83.3809524,26.5442857 C83.502381,26.5442857 83.5428571,26.5442857 83.5428571,26.7142857 L83.5428571,26.9733333 L83.8342857,26.9733333 C83.9395238,26.9733333 83.98,26.9733333 83.98,27.1190476 L83.98,27.1190476 C83.98,27.2242857 83.98,27.2647619 83.8342857,27.2647619 L83.5428571,27.2647619 L83.5428571,28.9809524 C83.5752381,29.6690476 83.2109524,30.0171429 82.4904762,30.0171429 Z M82.4338095,27.5238095 C82.1566582,27.5011065 81.8821308,27.5916422 81.6728571,27.7747619 C81.4828918,27.9994082 81.392319,28.2915786 81.4219048,28.5842857 L81.4219048,29.0457143 C81.3841144,29.3406025 81.4789848,29.6370724 81.6809524,29.8552381 C81.9073555,30.0419737 82.1981471,30.1321191 82.4904762,30.1061905 C82.7825242,30.1295332 83.0723659,30.0396822 83.3,29.8552381 C83.5029441,29.6373278 83.6005298,29.3416138 83.5671429,29.0457143 L83.5671429,27.2485714 L83.8666667,27.2485714 C83.9638095,27.2485714 84.0042857,27.2485714 84.0042857,27.1190476 L84.0042857,27.1190476 C84.0042857,27.0219048 84.0042857,26.9895238 83.8666667,26.9895238 L83.5671429,26.9895238 L83.5671429,26.7142857 C83.5671429,26.5766667 83.5671429,26.5604762 83.4133333,26.5604762 L83.3809524,26.5604762 C83.2514286,26.5604762 83.2352381,26.5604762 83.2352381,26.7142857 L83.2352381,26.9895238 L82.5714286,26.9895238 C82.4580952,26.9895238 82.4419048,26.9895238 82.4419048,27.1190476 L82.4419048,27.1190476 C82.4419048,27.2161905 82.4419048,27.2485714 82.5714286,27.2485714 L83.2514286,27.2485714 L83.2514286,27.8638095 L83.2514286,27.8638095 C83.0705202,27.5982518 82.7496738,27.4648306 82.4338095,27.5238095 L82.4338095,27.5238095 Z M82.4904762,29.7014286 C81.972381,29.7014286 81.7780952,29.5152381 81.7780952,29.0052381 L81.7780952,28.5519048 C81.7780952,28.05 81.9804762,27.8557143 82.4904762,27.8557143 C83.0004762,27.8557143 83.2109524,28.05 83.2109524,28.5519048 L83.2109524,29.0052381 C83.2109524,29.4747619 83.0085714,29.6690476 82.4904762,29.6690476 L82.4904762,29.7014286 Z M82.4904762,27.8719048 C81.9885714,27.8719048 81.7861905,28.0580952 81.7861905,28.5519048 L81.7861905,29.0052381 C81.7861905,29.5071429 81.9804762,29.6852381 82.4904762,29.6852381 C83.0004762,29.6852381 83.1947619,29.5071429 83.1947619,29.0052381 L83.1947619,28.5519048 C83.1947619,28.017619 83.0085714,27.8395238 82.4904762,27.8395238 L82.4904762,27.8719048 Z" id="Shape" fill="#009EDB" fill-rule="nonzero"></path>
                <path d="M84.0690476,28.9728571 L84.0690476,28.5195238 C84.0690476,27.8314286 84.4252381,27.4833333 85.1538095,27.4833333 C85.6961905,27.4833333 86.0119048,27.6695238 86.1495238,28.017619 C86.222381,28.017619 86.2952381,27.8880952 86.2952381,27.6290476 C86.2952381,27.5561905 86.2952381,27.5319048 86.4085714,27.5319048 L86.4895238,27.5319048 C86.5785714,27.5319048 86.5947619,27.5319048 86.5947619,27.6290476 C86.5947619,28.0257143 86.4409524,28.22 86.2061905,28.2847619 C86.2148126,28.3627784 86.2148126,28.4415073 86.2061905,28.5195238 L86.2061905,28.9728571 C86.2061905,29.6690476 85.85,30.0090476 85.137619,30.0090476 C84.4252381,30.0090476 84.0690476,29.6528571 84.0690476,28.9728571 Z M85.8580952,28.5195238 C85.8580952,28.0419048 85.6880952,27.8314286 85.1538095,27.8314286 C84.6195238,27.8314286 84.4333333,28.0419048 84.4333333,28.5195238 L84.4333333,28.9728571 C84.4333333,29.4504762 84.6195238,29.6609524 85.1538095,29.6609524 C85.6880952,29.6609524 85.8580952,29.4504762 85.8580952,28.9728571 L85.8580952,28.5195238 Z" id="Shape" fill="#009EDB" fill-rule="nonzero"></path>
                <path d="M85.1538095,30.0171429 C84.4090476,30.0171429 84.0609524,29.6852381 84.0609524,28.9728571 L84.0609524,28.5195238 C84.0350298,28.2230142 84.1349065,27.9292594 84.3361905,27.71 C84.5630258,27.5233975 84.8526873,27.4307058 85.1457143,27.4509524 C85.68,27.4509524 85.9552381,27.6209524 86.1414286,27.9852381 C86.2385714,27.9447619 86.2790476,27.8152381 86.2790476,27.6047619 C86.2790476,27.5238095 86.2790476,27.4995238 86.4004762,27.4995238 L86.4814286,27.4995238 C86.5704762,27.4995238 86.5947619,27.4995238 86.5947619,27.6047619 C86.5947619,27.9609524 86.4652381,28.187619 86.2061905,28.2685714 C86.2104939,28.3440657 86.2104939,28.4197438 86.2061905,28.4952381 L86.2061905,28.9485714 C86.24941,29.2401697 86.1531931,29.5351396 85.9463467,29.7451682 C85.7395002,29.9551969 85.4460336,30.0559057 85.1538095,30.0171429 Z M85.1538095,27.4914286 C84.8615744,27.4663762 84.571107,27.5564211 84.3442857,27.742381 C84.1422909,27.9608518 84.0448524,28.2561198 84.0771429,28.5519048 L84.0771429,29.0052381 C84.0771429,29.7095238 84.4171429,30.0333333 85.1538095,30.0333333 C85.445951,30.0575238 85.7361017,29.9675771 85.9633333,29.782381 C86.1653282,29.5639101 86.2627666,29.2686421 86.2304762,28.9728571 L86.2304762,28.5195238 C86.2350554,28.4413368 86.2350554,28.3629489 86.2304762,28.2847619 L86.2304762,28.2847619 C86.4895238,28.2038095 86.6190476,27.9852381 86.6190476,27.6290476 C86.6190476,27.5561905 86.6190476,27.54 86.5138095,27.54 L86.4328571,27.54 C86.3519048,27.54 86.327619,27.54 86.327619,27.6290476 C86.327619,27.847619 86.2790476,27.9771429 86.1738095,28.0257143 L86.1738095,28.0257143 C85.9957143,27.6614286 85.6880952,27.5238095 85.1538095,27.5238095 L85.1538095,27.4914286 Z M85.1538095,29.6690476 C84.6357143,29.6690476 84.4333333,29.4747619 84.4333333,28.9728571 L84.4333333,28.5195238 C84.4333333,28.017619 84.627619,27.8233333 85.1538095,27.8233333 C85.68,27.8233333 85.8580952,28.017619 85.8580952,28.5195238 L85.8580952,28.9728571 C85.8580952,29.4828571 85.6719048,29.6690476 85.1538095,29.6690476 Z M85.1538095,27.8395238 C84.6357143,27.8395238 84.4414286,28.017619 84.4414286,28.5195238 L84.4414286,28.9728571 C84.4414286,29.4666667 84.6438095,29.6528571 85.1538095,29.6528571 C85.6638095,29.6528571 85.85,29.4747619 85.85,28.9728571 L85.85,28.5195238 C85.85,28.017619 85.6638095,27.8395238 85.1538095,27.8395238 Z" id="Shape" fill="#009EDB" fill-rule="nonzero"></path>
                <path d="M87.1209524,29.8066667 C87.1209524,29.9361905 87.1209524,29.9604762 86.9590476,29.9604762 L86.902381,29.9604762 C86.7809524,29.9604762 86.7485714,29.9604762 86.7485714,29.8066667 L86.7485714,28.4061905 C86.7485714,27.7909524 87.0966667,27.4833333 87.7766667,27.4833333 C88.4566667,27.4833333 88.8047619,27.8071429 88.8047619,28.4061905 L88.8047619,29.8066667 C88.8047619,29.9361905 88.8047619,29.9604762 88.6428571,29.9604762 L88.5861905,29.9604762 C88.4485714,29.9604762 88.4242857,29.9604762 88.4242857,29.8066667 L88.4242857,28.4061905 C88.4242857,28.0095238 88.2785714,27.8314286 87.7766667,27.8314286 C87.2747619,27.8314286 87.1209524,28.017619 87.1209524,28.4061905 L87.1209524,29.8066667 Z" id="Path" fill="#009EDB" fill-rule="nonzero"></path>
                <path d="M88.6428571,29.952381 L88.5861905,29.952381 C88.4485714,29.952381 88.4242857,29.952381 88.4242857,29.7904762 L88.4242857,28.4061905 C88.4242857,27.9933333 88.2461905,27.8395238 87.7766667,27.8395238 C87.3071429,27.8395238 87.1209524,27.9933333 87.1209524,28.4061905 L87.1209524,29.8066667 C87.1209524,29.9361905 87.1209524,29.9685714 86.9590476,29.9685714 L86.902381,29.9685714 C86.7809524,29.9685714 86.7404762,29.9685714 86.7404762,29.8066667 L86.7404762,28.4061905 C86.7404762,27.7909524 87.0885714,27.4752381 87.7766667,27.4752381 C88.0680715,27.4452673 88.3594052,27.5326675 88.5861905,27.7180952 C88.7635647,27.9011002 88.8522558,28.1523917 88.8290476,28.4061905 L88.8290476,29.8066667 C88.8047619,29.952381 88.7804762,29.952381 88.6428571,29.952381 Z M87.7766667,27.8071429 C88.2542857,27.8071429 88.432381,27.9690476 88.432381,28.39 L88.432381,29.7904762 C88.432381,29.92 88.432381,29.9361905 88.5861905,29.9361905 L88.6428571,29.9361905 C88.772381,29.9361905 88.7966667,29.9361905 88.7966667,29.7904762 L88.7966667,28.4061905 C88.8165188,28.1567222 88.7314363,27.9102763 88.5619048,27.7261905 C88.3338879,27.5436514 88.0426801,27.4592011 87.752381,27.4914286 C87.4633199,27.4587008 87.1728934,27.5400202 86.9428571,27.7180952 C86.7605103,27.8988482 86.6659363,28.1500606 86.6838095,28.4061905 L86.6838095,29.8066667 C86.6838095,29.9361905 86.6838095,29.952381 86.837619,29.952381 L86.8942857,29.952381 C87.0238095,29.952381 87.0480952,29.952381 87.0480952,29.8066667 L87.0480952,28.4061905 C87.1128571,27.9852381 87.2990476,27.8233333 87.7766667,27.8233333 L87.7766667,27.8071429 Z" id="Shape" fill="#009EDB" fill-rule="nonzero"></path>
                <path d="M92.6742857,28.3980952 C92.6742857,28.9647619 92.342381,29.2561905 91.662381,29.2561905 C91.4875018,29.2371331 91.3110696,29.2371331 91.1361905,29.2561905 C91.062135,29.2685234 91.0095711,29.3351043 91.0147619,29.41 C91.0147619,29.4747619 91.0147619,29.5233333 91.1442857,29.547619 C91.3167254,29.5609877 91.4899413,29.5609877 91.662381,29.547619 C91.9409714,29.5282145 92.2198445,29.5812004 92.4719048,29.7014286 C92.638772,29.8221041 92.7283271,30.0228311 92.7066667,30.227619 C92.7292175,30.4504326 92.6378993,30.6695963 92.4638095,30.8104762 C92.2154301,30.9424349 91.9347652,31.0013745 91.6542857,30.9804762 C91.3579262,31.0062223 91.060349,30.9472684 90.7961905,30.8104762 C90.6399095,30.6856552 90.5551295,30.4918723 90.5695238,30.292381 C90.5565389,30.0795031 90.6624964,29.8769374 90.8447619,29.7661905 C90.7140659,29.7137456 90.6322511,29.582842 90.642381,29.442381 C90.642381,29.2238095 90.7719048,29.0942857 91.0390476,29.0538095 C90.7588657,28.9339677 90.5908811,28.6441119 90.6261905,28.3414286 L90.6261905,28.3333333 C90.6261905,27.7990476 91.0066667,27.5238095 91.6542857,27.5238095 C91.8265431,27.5206962 91.9975345,27.5537913 92.1561905,27.6209524 L92.4395238,27.37 C92.5204762,27.2971429 92.5609524,27.2971429 92.6419048,27.37 L92.6419048,27.37 C92.7228571,27.4428571 92.7228571,27.4833333 92.6419048,27.5642857 L92.4233333,27.7909524 C92.5670311,27.9371647 92.6433024,28.1366434 92.6338095,28.3414286 L92.6742857,28.3980952 Z M91.1766667,29.9038095 C91.025253,29.9804313 90.9332271,30.1390967 90.9419048,30.3085714 C90.9419048,30.632381 91.1280952,30.7133333 91.662381,30.7133333 C92.1966667,30.7133333 92.3666667,30.632381 92.3666667,30.3004762 C92.3666667,29.9685714 92.1885714,29.9361905 91.662381,29.9361905 C91.4998931,29.9375992 91.3375296,29.9267749 91.1766667,29.9038095 L91.1766667,29.9038095 Z M92.2857143,28.3333333 C92.2857143,27.9852381 92.0752381,27.8152381 91.6461905,27.8152381 C91.2171429,27.8152381 90.9904762,27.9852381 90.9904762,28.3333333 L90.9904762,28.3980952 C90.9904762,28.7461905 91.1442857,28.9242857 91.6461905,28.9242857 C92.1480952,28.9242857 92.2857143,28.7461905 92.2857143,28.3980952 L92.2857143,28.3333333 Z" id="Shape" fill="#009EDB" fill-rule="nonzero"></path>
                <path d="M91.662381,31.0371429 C91.3667747,31.0658298 91.0691153,31.0096676 90.8042857,30.8752381 C90.6436604,30.7495892 90.5557339,30.5525125 90.5695238,30.3490476 C90.5565389,30.1361698 90.6624964,29.933604 90.8447619,29.8228571 C90.7140659,29.7704123 90.6322511,29.6395086 90.642381,29.4990476 C90.642381,29.2831746 90.7719048,29.1536508 91.0309524,29.1104762 C90.7557898,28.9859535 90.5923021,28.698215 90.6261905,28.3980952 L90.6261905,28.3333333 C90.6193492,28.0923756 90.7202471,27.8609038 90.9014286,27.7019048 C91.1213521,27.5408604 91.3901812,27.4607836 91.662381,27.4752381 C91.8346384,27.4721248 92.0056298,27.5052199 92.1642857,27.572381 L92.447619,27.3295238 C92.5285714,27.2485714 92.5690476,27.2485714 92.65,27.3295238 L92.65,27.3295238 C92.6985714,27.37 92.7147619,27.3942857 92.7147619,27.4266667 C92.7147619,27.4590476 92.7147619,27.4833333 92.65,27.5319048 L92.4395238,27.7504762 C92.5832216,27.8966885 92.6594928,28.0961672 92.65,28.3009524 L92.65,28.3657143 C92.65,28.932381 92.3019048,29.2238095 91.63,29.2238095 C91.4551771,29.2037427 91.2786324,29.2037427 91.1038095,29.2238095 C91.0361592,29.2392058 90.9887463,29.3001652 90.9904762,29.3695238 C90.9904762,29.4342857 90.9904762,29.4747619 91.1119048,29.4990476 C91.2842825,29.513931 91.4576223,29.513931 91.63,29.4990476 C91.9085905,29.4796431 92.1874636,29.532629 92.4395238,29.6528571 C92.6122504,29.7692558 92.705866,29.9720897 92.682381,30.1790476 C92.7074838,30.4063125 92.6123904,30.630242 92.4314286,30.77 C92.2020177,30.9230977 91.9372996,31.0150524 91.662381,31.0371429 Z M91.662381,27.4914286 C91.0228571,27.4914286 90.642381,27.8071429 90.642381,28.3009524 L90.642381,28.3657143 C90.6084926,28.6658341 90.7719803,28.9535725 91.0471429,29.0780952 L91.0471429,29.0780952 C90.78,29.1185714 90.6585714,29.24 90.6585714,29.4585714 C90.6519301,29.5958562 90.7285982,29.7236364 90.8528571,29.782381 L90.8528571,29.782381 C90.671897,29.8904516 90.5658712,30.0900295 90.577619,30.3004762 C90.5636659,30.5016832 90.6518993,30.6964052 90.812381,30.8185714 C91.3528299,31.0347766 91.9557416,31.0347766 92.4961905,30.8185714 C92.6685007,30.676872 92.7569452,30.4572858 92.7309524,30.2357143 C92.7548969,30.0328332 92.6645181,29.8333768 92.4961905,29.717619 C92.2451014,29.5944519 91.9654315,29.5413147 91.6866667,29.5638095 C91.5145046,29.5830578 91.3407335,29.5830578 91.1685714,29.5638095 C91.0795238,29.5638095 91.0390476,29.4909524 91.0390476,29.4261905 C91.0338569,29.3512948 91.0864207,29.2847139 91.1604762,29.272381 C91.3352739,29.2518796 91.5118689,29.2518796 91.6866667,29.272381 C91.9568126,29.2902137 92.2250345,29.2160246 92.447619,29.0619048 C92.6220621,28.896556 92.7140089,28.6622399 92.6985714,28.422381 L92.6985714,28.3333333 C92.7099815,28.1290344 92.6298765,27.9302552 92.48,27.7909524 L92.48,27.7909524 L92.7066667,27.5642857 C92.7371409,27.5402189 92.7573843,27.505516 92.7633333,27.4671429 C92.7579438,27.4307612 92.7373415,27.3983862 92.7066667,27.3780952 L92.7066667,27.3780952 C92.6257143,27.2971429 92.5933333,27.3052381 92.5042857,27.3780952 L92.2209524,27.6290476 L92.2209524,27.6290476 C92.0455268,27.5508558 91.854233,27.5148149 91.662381,27.5238095 L91.662381,27.4914286 Z M91.662381,30.7295238 C91.1038095,30.7295238 90.9419048,30.632381 90.9419048,30.3166667 C90.9237761,30.1450424 91.0186942,29.9813904 91.1766667,29.9119048 L91.1766667,29.9119048 C91.3384096,29.9221405 91.500638,29.9221405 91.662381,29.9119048 C92.1885714,29.9119048 92.3747619,29.9685714 92.3747619,30.2842857 C92.3747619,30.6 92.1319048,30.7619048 91.662381,30.7619048 L91.662381,30.7295238 Z M91.1766667,29.92 C91.0265798,29.9928698 90.9365822,30.1503656 90.95,30.3166667 C90.95,30.6242857 91.1119048,30.7214286 91.662381,30.7214286 C92.2128571,30.7214286 92.3585714,30.6242857 92.3585714,30.3085714 C92.3585714,29.9928571 92.1885714,29.9442857 91.662381,29.9442857 C91.5008086,29.9572186 91.3385802,29.9599224 91.1766667,29.952381 L91.1766667,29.92 Z M91.662381,28.9404762 C91.1928571,28.9404762 90.9985714,28.7866667 90.9985714,28.4061905 L90.9985714,28.3333333 C90.9985714,27.9771429 91.2171429,27.8071429 91.662381,27.8071429 C92.107619,27.8071429 92.31,27.9852381 92.31,28.3333333 L92.31,28.3980952 C92.2857143,28.7785714 92.1238095,28.932381 91.662381,28.932381 L91.662381,28.9404762 Z M91.662381,27.8233333 C91.2171429,27.8233333 91.0066667,27.9933333 91.0066667,28.3414286 L91.0066667,28.4061905 C91.0066667,28.7785714 91.1928571,28.932381 91.662381,28.932381 C92.1319048,28.932381 92.3019048,28.7785714 92.3019048,28.4061905 L92.3019048,28.3333333 C92.2857143,27.9933333 92.0833333,27.8152381 91.662381,27.8152381 L91.662381,27.8233333 Z" id="Shape" fill="#009EDB" fill-rule="nonzero"></path>
                <path d="M93.7943723,26.7709524 C93.7971675,26.8346056 93.7669265,26.8964192 93.7105871,26.9422124 C93.6542477,26.9880055 93.5766457,27.0138474 93.4955844,27.0138095 C93.4118382,27.0160041 93.3305466,26.9913896 93.2703329,26.945605 C93.2101192,26.8998204 93.1761439,26.8367895 93.1761905,26.7709524 C93.1817534,26.6355265 93.3231345,26.5280247 93.4955844,26.5280952 C93.662254,26.5324628 93.794465,26.6399249 93.7943723,26.7709524 Z M93.2586147,27.6857143 C93.2586147,27.5642857 93.2586147,27.5319048 93.4543723,27.5319048 L93.5264935,27.5319048 C93.681039,27.5319048 93.7222511,27.5319048 93.7222511,27.6857143 L93.7222511,29.8066667 C93.7222511,29.9361905 93.7222511,29.9604762 93.5264935,29.9604762 L93.4543723,29.9604762 C93.2792208,29.9604762 93.2586147,29.9604762 93.2586147,29.8066667 L93.2586147,27.6857143 Z" id="Shape" fill="#009EDB" fill-rule="nonzero"></path>
                <path d="M93.5331169,29.952381 L93.4609957,29.952381 C93.2858442,29.952381 93.2549351,29.952381 93.2549351,29.7904762 L93.2549351,27.6857143 C93.2549351,27.5642857 93.2549351,27.5238095 93.4609957,27.5238095 L93.5331169,27.5238095 C93.6876623,27.5238095 93.7391775,27.5238095 93.7391775,27.6857143 L93.7391775,29.8066667 C93.7391775,29.952381 93.6876623,29.952381 93.5331169,29.952381 Z M93.4609957,27.5238095 C93.2961472,27.5238095 93.2652381,27.5238095 93.2652381,27.6695238 L93.2652381,29.7904762 C93.2652381,29.92 93.2652381,29.9361905 93.4609957,29.9361905 L93.5331169,29.9361905 C93.6773593,29.9361905 93.7185714,29.9361905 93.7185714,29.7904762 L93.7185714,27.6857143 C93.7185714,27.572381 93.7185714,27.54 93.5331169,27.54 L93.4609957,27.5238095 Z M93.4609957,26.997619 C93.2902895,26.997619 93.1519048,26.8888882 93.1519048,26.7547619 C93.1519048,26.6206356 93.2902895,26.5119048 93.4609957,26.5119048 C93.6317019,26.5119048 93.7700866,26.6206356 93.7700866,26.7547619 C93.7700866,26.8888882 93.6317019,26.997619 93.4609957,26.997619 Z M93.4609957,26.52 C93.354249,26.52 93.2556111,26.5647454 93.2022377,26.6373809 C93.1488644,26.7100165 93.1488644,26.7995073 93.2022377,26.8721429 C93.2556111,26.9447785 93.354249,26.9895238 93.4609957,26.9895238 C93.6260116,26.9895238 93.7597835,26.8844173 93.7597835,26.7547619 C93.7597835,26.6251065 93.6260116,26.52 93.4609957,26.52 L93.4609957,26.52 Z" id="Shape" fill="#009EDB" fill-rule="nonzero"></path>
                <path d="M96.0904762,29.2319048 C96.0904762,29.782381 95.7747619,30.0414286 95.062381,30.0414286 C94.4957143,30.0414286 94.1395238,29.8147619 94.1395238,29.3047619 C94.1395238,28.7947619 94.4714286,28.5842857 95.1433333,28.5842857 L95.7261905,28.5842857 L95.7261905,28.252381 C95.7261905,27.9204762 95.4914286,27.8071429 95.0785714,27.8071429 C94.8962433,27.806013 94.7143477,27.8250171 94.5361905,27.8638095 C94.4147619,27.8638095 94.3742857,27.8638095 94.3742857,27.742381 L94.3742857,27.7019048 C94.3742857,27.5885714 94.3742857,27.5561905 94.5280952,27.5319048 C94.7041621,27.4981996 94.8831224,27.4819304 95.062381,27.4833333 C95.7504762,27.4833333 96.0904762,27.742381 96.0904762,28.252381 L96.0904762,29.2319048 Z M95.7261905,28.8433333 L95.1433333,28.8433333 C94.7061905,28.8433333 94.5038095,28.9647619 94.5038095,29.272381 C94.5038095,29.58 94.69,29.6933333 95.062381,29.6933333 C95.4347619,29.6933333 95.7261905,29.5880952 95.7261905,29.2157143 L95.7261905,28.8433333 Z M95.1433333,27.2242857 C95.0542857,27.2242857 95.0461905,27.2242857 95.03,27.1271429 C95.0138095,27.03 95.1028571,26.9328571 95.2485714,26.7790476 C95.2831277,26.7503226 95.3061296,26.7100693 95.3133333,26.6657143 C95.3133333,26.5766667 95.3133333,26.5361905 95.2242857,26.5361905 C95.152443,26.5189962 95.077557,26.5189962 95.0057143,26.5361905 C94.9490476,26.5361905 94.9085714,26.5361905 94.8761905,26.487619 L94.8761905,26.4471429 C94.8761905,26.3742857 94.8761905,26.3419048 94.9490476,26.317619 C95.0409097,26.2777488 95.1403672,26.2584098 95.2404762,26.2609524 C95.3379878,26.2528026 95.4339551,26.2891847 95.5015566,26.3599305 C95.5691582,26.4306763 95.6011429,26.5281974 95.5885714,26.6252381 C95.5885714,26.8357143 95.2971429,26.9247619 95.2890476,27.0866667 C95.2822192,27.1372199 95.2424579,27.1769811 95.1919048,27.1838095 L95.1433333,27.2242857 Z" id="Shape" fill="#009EDB" fill-rule="nonzero"></path>
                <path d="M95.062381,30.0171429 C94.4552381,30.0171429 94.1314286,29.7580952 94.1314286,29.272381 C94.1314286,28.7866667 94.4390476,28.5438095 95.1433333,28.5438095 L95.7180952,28.5438095 L95.7180952,28.252381 C95.7180952,27.9447619 95.5238095,27.8152381 95.0785714,27.8152381 C94.8965866,27.8126825 94.7148256,27.8289596 94.5361905,27.8638095 C94.4714286,27.8638095 94.4309524,27.8638095 94.4066667,27.8638095 C94.382381,27.8638095 94.4066667,27.8071429 94.4066667,27.7504762 L94.4066667,27.71 C94.4066667,27.5966667 94.4066667,27.5642857 94.5604762,27.5319048 C94.736435,27.4974383 94.9154724,27.4811621 95.0947619,27.4833333 C95.7828571,27.4833333 96.1309524,27.7504762 96.1309524,28.2928571 L96.1309524,29.272381 C96.0985714,29.7742857 95.7747619,30.0171429 95.062381,30.0171429 Z M95.1433333,28.56 C94.4471429,28.56 94.1395238,28.7785714 94.1395238,29.272381 C94.1395238,29.7661905 94.4552381,30.0009524 95.062381,30.0009524 C95.34438,30.0306671 95.6284139,29.9681796 95.8719048,29.8228571 C96.0503451,29.6811663 96.1448181,29.4586975 96.1228571,29.2319048 L96.1228571,28.252381 C96.1359014,28.0299211 96.0391198,27.8151867 95.8638095,27.677619 C95.6323442,27.53883 95.3640771,27.4738811 95.0947619,27.4914286 C94.9154724,27.4892574 94.736435,27.5055335 94.5604762,27.54 C94.4390476,27.54 94.4147619,27.5885714 94.4147619,27.7019048 L94.4147619,27.742381 C94.4147619,27.7990476 94.4147619,27.8314286 94.4147619,27.847619 C94.4147619,27.8638095 94.4714286,27.847619 94.5361905,27.847619 C94.7144191,27.8092731 94.8962657,27.7902742 95.0785714,27.7909524 C95.5319048,27.7909524 95.7261905,27.9285714 95.7261905,28.2442857 L95.7261905,28.5519048 L95.1433333,28.56 Z M95.062381,29.6933333 C94.6819048,29.6933333 94.5038095,29.5557143 94.5038095,29.272381 C94.5038095,28.9890476 94.6980952,28.8352381 95.1433333,28.8352381 L95.7261905,28.8352381 L95.7261905,29.2157143 C95.7261905,29.612381 95.4752381,29.6933333 95.062381,29.6933333 Z M95.1433333,28.8838095 C94.6980952,28.8838095 94.5119048,29.0052381 94.5119048,29.3047619 C94.5119048,29.6042857 94.69,29.717619 95.062381,29.717619 C95.4347619,29.717619 95.7180952,29.5880952 95.7180952,29.2480952 L95.7180952,28.8838095 L95.1433333,28.8838095 Z M95.1433333,27.2647619 C95.0461905,27.2647619 95.0380952,27.2647619 95.0219048,27.167619 C95.0057143,27.0704762 95.0704762,26.9895238 95.1757143,26.8761905 L95.2485714,26.8033333 C95.2808753,26.7773278 95.301309,26.7393795 95.3052381,26.6980952 C95.3052381,26.6090476 95.3052381,26.5766667 95.2242857,26.5685714 L95.2242857,26.5685714 C95.1593453,26.5704563 95.0956808,26.5870644 95.0380952,26.6171429 C94.9733333,26.6171429 94.9328571,26.6171429 94.892381,26.5604762 L94.892381,26.52 C94.892381,26.4390476 94.892381,26.4147619 94.9652381,26.3904762 C95.0571001,26.350606 95.1565577,26.331267 95.2566667,26.3338095 C95.3509624,26.3310627 95.4430372,26.3627135 95.5157143,26.4228571 C95.5821144,26.4983796 95.6143416,26.597991 95.6047619,26.6980952 C95.589895,26.8078434 95.5315577,26.9070168 95.4428571,26.9733333 C95.3756053,27.0163154 95.3265969,27.0826208 95.3052381,27.1595238 C95.3013732,27.2114894 95.2600608,27.2528018 95.2080952,27.2566667 L95.1433333,27.2647619 Z M95.2,26.5604762 L95.2,26.5604762 C95.2485714,26.5604762 95.2971429,26.5604762 95.2971429,26.6980952 C95.2899391,26.7424502 95.2669372,26.7827035 95.232381,26.8114286 L95.1595238,26.8842857 C95.0542857,26.9895238 94.997619,27.0461905 95.0057143,27.1595238 C95.0138095,27.2728571 95.0057143,27.2485714 95.1190476,27.2485714 L95.1190476,27.2485714 C95.1651743,27.2418832 95.201407,27.2056505 95.2080952,27.1595238 C95.2290528,27.0802921 95.2779244,27.0112969 95.3457143,26.9652381 C95.4377681,26.9103972 95.5024301,26.8192826 95.5238095,26.7142857 C95.5320803,26.616787 95.4998778,26.5201794 95.4347619,26.4471429 C95.366219,26.3853737 95.2759561,26.3533449 95.1838095,26.3580952 C95.0837005,26.3555527 94.984243,26.3748917 94.892381,26.4147619 C94.8357143,26.4147619 94.8033333,26.4633333 94.827619,26.5361905 L94.827619,26.5361905 C94.827619,26.6090476 94.9004762,26.6090476 94.9571429,26.5928571 C95.0332271,26.5586878 95.117621,26.5474353 95.2,26.5604762 L95.2,26.5604762 Z" id="Shape" fill="#009EDB" fill-rule="nonzero"></path>
                <path d="M96.9890476,29.8066667 C96.9890476,29.9361905 96.9890476,29.9604762 96.8271429,29.9604762 L96.7704762,29.9604762 C96.6490476,29.9604762 96.6166667,29.9604762 96.6166667,29.8066667 L96.6166667,28.4061905 C96.6166667,27.7909524 96.9647619,27.4833333 97.6447619,27.4833333 C98.3247619,27.4833333 98.6728571,27.8071429 98.6728571,28.4061905 L98.6728571,29.8066667 C98.6728571,29.9361905 98.6728571,29.9604762 98.5109524,29.9604762 L98.4542857,29.9604762 C98.3166667,29.9604762 98.292381,29.9604762 98.292381,29.8066667 L98.292381,28.4061905 C98.292381,28.0095238 98.1466667,27.8314286 97.6447619,27.8314286 C97.1428571,27.8314286 96.9890476,28.017619 96.9890476,28.4061905 L96.9890476,29.8066667 Z" id="Path" fill="#009EDB" fill-rule="nonzero"></path>
                <path d="M98.5109524,29.952381 L98.4542857,29.952381 C98.3166667,29.952381 98.292381,29.952381 98.292381,29.7904762 L98.292381,28.4061905 C98.292381,27.9933333 98.1142857,27.8395238 97.6447619,27.8395238 C97.1752381,27.8395238 96.9890476,27.9933333 96.9890476,28.4061905 L96.9890476,29.8066667 C96.9890476,29.9361905 96.9890476,29.9685714 96.8271429,29.9685714 L96.7704762,29.9685714 C96.6490476,29.9685714 96.6085714,29.9685714 96.6085714,29.8066667 L96.6085714,28.4061905 C96.6085714,27.7909524 96.9566667,27.4752381 97.6447619,27.4752381 C97.9361667,27.4452673 98.2275005,27.5326675 98.4542857,27.7180952 C98.6316599,27.9011002 98.7203511,28.1523917 98.6971429,28.4061905 L98.6971429,29.8066667 C98.6728571,29.952381 98.6485714,29.952381 98.5109524,29.952381 Z M97.6447619,27.8071429 C98.122381,27.8071429 98.3004762,27.9690476 98.3004762,28.39 L98.3004762,29.7904762 C98.3004762,29.92 98.3004762,29.9361905 98.4542857,29.9361905 L98.5109524,29.9361905 C98.6404762,29.9361905 98.6647619,29.9361905 98.6647619,29.7904762 L98.6647619,28.4061905 C98.684614,28.1567222 98.5995315,27.9102763 98.43,27.7261905 C98.2019832,27.5436514 97.9107753,27.4592011 97.6204762,27.4914286 C97.3314151,27.4587008 97.0409887,27.5400202 96.8109524,27.7180952 C96.6286056,27.8988482 96.5340315,28.1500606 96.5519048,28.4061905 L96.5519048,29.8066667 C96.5519048,29.9361905 96.592381,29.952381 96.7057143,29.952381 L96.762381,29.952381 C96.8919048,29.952381 96.9161905,29.952381 96.9161905,29.8066667 L96.9161905,28.4061905 C96.9809524,27.9852381 97.1428571,27.8233333 97.6447619,27.8233333 L97.6447619,27.8071429 Z" id="Shape" fill="#009EDB" fill-rule="nonzero"></path>
                <path d="M100.607619,26.7142857 C100.607619,26.5766667 100.607619,26.552381 100.769524,26.552381 L100.82619,26.552381 C100.955714,26.552381 100.98,26.552381 100.98,26.7142857 L100.98,27.8557143 C101.170032,27.6069141 101.47953,27.4800198 101.789524,27.5238095 C102.388571,27.5238095 102.69619,27.8071429 102.69619,28.39 L102.69619,29.8471429 C102.69619,29.9766667 102.69619,30.0009524 102.542381,30.0009524 L102.477619,30.0009524 C102.348095,30.0009524 102.32381,30.0009524 102.32381,29.8471429 L102.32381,28.39 C102.32381,28.0014286 102.145714,27.8314286 101.692381,27.8314286 C101.239048,27.8314286 101.012381,28.017619 101.012381,28.4709524 L101.012381,29.8066667 C101.012381,29.9361905 101.012381,29.9604762 100.858571,29.9604762 L100.801905,29.9604762 C100.672381,29.9604762 100.64,29.9604762 100.64,29.8066667 L100.607619,26.7142857 Z" id="Path" fill="#009EDB" fill-rule="nonzero"></path>
                <path d="M102.51,29.952381 L102.445238,29.952381 C102.315714,29.952381 102.283333,29.952381 102.283333,29.7904762 L102.283333,28.39 C102.283333,27.9933333 102.105238,27.8395238 101.66,27.8395238 C101.214762,27.8395238 100.988095,28.0257143 100.988095,28.4709524 L100.988095,29.8066667 C100.988095,29.9361905 100.988095,29.9685714 100.82619,29.9685714 L100.769524,29.9685714 C100.648095,29.9685714 100.607619,29.9685714 100.607619,29.8066667 L100.607619,26.7142857 C100.607619,26.5685714 100.607619,26.5442857 100.769524,26.5442857 L100.82619,26.5442857 C100.955714,26.5442857 100.988095,26.5442857 100.988095,26.7142857 L100.988095,27.8395238 C101.181026,27.5951387 101.489369,27.4718013 101.797619,27.5157143 C102.404762,27.5157143 102.712381,27.8071429 102.712381,28.39 L102.712381,29.8471429 C102.671905,29.952381 102.639524,29.952381 102.51,29.952381 Z M101.700476,27.8071429 C102.15381,27.8071429 102.34,27.9771429 102.34,28.3738095 L102.34,29.7904762 C102.34,29.92 102.34,29.9361905 102.485714,29.9361905 L102.550476,29.9361905 C102.68,29.9361905 102.69619,29.9361905 102.69619,29.7904762 L102.69619,28.3333333 C102.69619,27.7585714 102.396667,27.4752381 101.797619,27.4752381 C101.487625,27.4314483 101.178127,27.5583426 100.988095,27.8071429 L100.988095,27.8071429 L100.988095,26.7142857 C100.988095,26.5847619 100.988095,26.5604762 100.842381,26.5604762 L100.785714,26.5604762 C100.664286,26.5604762 100.631905,26.5604762 100.631905,26.7142857 L100.631905,29.8471429 C100.631905,29.9766667 100.631905,29.9928571 100.785714,29.9928571 L100.842381,29.9928571 C100.96381,29.9928571 100.988095,29.9928571 100.988095,29.8471429 L100.988095,28.4709524 C100.971905,28.017619 101.190476,27.8233333 101.66,27.8233333 L101.700476,27.8071429 Z" id="Shape" fill="#009EDB" fill-rule="nonzero"></path>
                <path d="M103.19,28.9728571 L103.19,28.5195238 C103.19,27.8314286 103.54619,27.4833333 104.274762,27.4833333 C104.688193,27.4222491 105.092795,27.6393527 105.270476,28.017619 C105.343333,28.017619 105.41619,27.8880952 105.41619,27.6290476 C105.41619,27.5561905 105.41619,27.5319048 105.529524,27.5319048 L105.610476,27.5319048 C105.699524,27.5319048 105.715714,27.5319048 105.715714,27.6290476 C105.715714,28.0257143 105.55381,28.22 105.327143,28.2847619 C105.335765,28.3627784 105.335765,28.4415073 105.327143,28.5195238 L105.327143,28.9728571 C105.327143,29.6690476 104.970952,30.0090476 104.258571,30.0090476 C103.54619,30.0090476 103.19,29.6528571 103.19,28.9728571 Z M104.979048,28.5195238 C104.979048,28.0419048 104.809048,27.8314286 104.274762,27.8314286 C103.740476,27.8314286 103.554286,28.0419048 103.554286,28.5195238 L103.554286,28.9728571 C103.554286,29.4504762 103.732381,29.6609524 104.274762,29.6609524 C104.817143,29.6609524 104.979048,29.4504762 104.979048,28.9728571 L104.979048,28.5195238 Z" id="Shape" fill="#009EDB" fill-rule="nonzero"></path>
                <path d="M104.274762,30.0171429 C103.53,30.0171429 103.181905,29.6852381 103.181905,28.9728571 L103.181905,28.5195238 C103.155982,28.2230142 103.255859,27.9292594 103.457143,27.71 C103.683978,27.5233975 103.97364,27.4307058 104.266667,27.4509524 C104.800952,27.4509524 105.116667,27.6209524 105.262381,27.9852381 C105.359524,27.9447619 105.4,27.8152381 105.4,27.6047619 C105.4,27.5238095 105.4,27.4995238 105.521429,27.4995238 L105.602381,27.4995238 C105.691429,27.4995238 105.715714,27.4995238 105.715714,27.6047619 C105.715714,27.9609524 105.58619,28.187619 105.327143,28.2685714 C105.331446,28.3440657 105.331446,28.4197438 105.327143,28.4952381 L105.327143,28.9485714 C105.370362,29.2401697 105.274145,29.5351396 105.067299,29.7451682 C104.860453,29.9551969 104.566986,30.0559057 104.274762,30.0171429 Z M104.274762,27.4914286 C103.982527,27.4663762 103.692059,27.5564211 103.465238,27.742381 C103.263243,27.9608518 103.165805,28.2561198 103.198095,28.5519048 L103.198095,29.0052381 C103.198095,29.7095238 103.538095,30.0333333 104.274762,30.0333333 C104.566903,30.0575238 104.857054,29.9675771 105.084286,29.782381 C105.286281,29.5639101 105.383719,29.2686421 105.351429,28.9728571 L105.351429,28.5195238 C105.35573,28.4413289 105.35573,28.3629568 105.351429,28.2847619 L105.351429,28.2847619 C105.610476,28.2038095 105.731905,27.9852381 105.731905,27.6290476 C105.731905,27.5561905 105.731905,27.54 105.634762,27.54 L105.55381,27.54 C105.472857,27.54 105.448571,27.54 105.448571,27.6290476 C105.448571,27.847619 105.4,27.9771429 105.294762,28.0257143 L105.294762,28.0257143 C105.116667,27.6614286 104.809048,27.5238095 104.274762,27.5238095 L104.274762,27.4914286 Z M104.274762,29.6690476 C103.756667,29.6690476 103.554286,29.4747619 103.554286,28.9728571 L103.554286,28.5195238 C103.554286,28.017619 103.748571,27.8233333 104.274762,27.8233333 C104.800952,27.8233333 104.979048,28.017619 104.979048,28.5195238 L104.979048,28.9728571 C104.979048,29.4828571 104.792857,29.6690476 104.274762,29.6690476 Z M104.274762,27.8395238 C103.756667,27.8395238 103.562381,28.017619 103.562381,28.5195238 L103.562381,28.9728571 C103.562381,29.4666667 103.764762,29.6528571 104.274762,29.6528571 C104.784762,29.6528571 104.970952,29.4747619 104.970952,28.9728571 L104.970952,28.5195238 C104.970952,28.017619 104.784762,27.8395238 104.274762,27.8395238 Z" id="Shape" fill="#009EDB" fill-rule="nonzero"></path>
                <path d="M106.241905,29.8066667 C106.241905,29.9361905 106.241905,29.9604762 106.08,29.9604762 L106.047619,29.9604762 C105.92619,29.9604762 105.89381,29.9604762 105.89381,29.8066667 L105.89381,28.4061905 C105.89381,27.7909524 106.23381,27.4833333 106.921905,27.4833333 C107.61,27.4833333 107.95,27.8071429 107.95,28.4061905 L107.95,29.8066667 C107.95,29.9361905 107.95,29.9604762 107.788095,29.9604762 L107.731429,29.9604762 C107.59381,29.9604762 107.569524,29.9604762 107.569524,29.8066667 L107.569524,28.4061905 C107.569524,28.0095238 107.42381,27.8314286 106.921905,27.8314286 C106.42,27.8314286 106.26619,28.017619 106.26619,28.4061905 L106.241905,29.8066667 Z" id="Path" fill="#009EDB" fill-rule="nonzero"></path>
                <path d="M107.76381,29.952381 L107.707143,29.952381 C107.569524,29.952381 107.545238,29.952381 107.545238,29.7904762 L107.545238,28.4061905 C107.545238,27.9933333 107.367143,27.8395238 106.897619,27.8395238 C106.428095,27.8395238 106.241905,27.9933333 106.241905,28.4061905 L106.241905,29.8066667 C106.241905,29.9361905 106.241905,29.9685714 106.08,29.9685714 L106.047619,29.9685714 C105.92619,29.9685714 105.885714,29.9685714 105.885714,29.8066667 L105.885714,28.4061905 C105.885714,27.7909524 106.23381,27.4752381 106.921905,27.4752381 C107.21331,27.4452673 107.504643,27.5326675 107.731429,27.7180952 C107.908803,27.9011002 107.997494,28.1523917 107.974286,28.4061905 L107.974286,29.8066667 C107.925714,29.952381 107.901429,29.952381 107.76381,29.952381 Z M106.897619,27.8071429 C107.375238,27.8071429 107.553333,27.9690476 107.553333,28.39 L107.553333,29.7904762 C107.553333,29.92 107.553333,29.9361905 107.707143,29.9361905 L107.76381,29.9361905 C107.893333,29.9361905 107.917619,29.9361905 107.917619,29.7904762 L107.917619,28.4061905 C107.937471,28.1567222 107.852389,27.9102763 107.682857,27.7261905 C107.45484,27.5436514 107.163632,27.4592011 106.873333,27.4914286 C106.584272,27.4587008 106.293846,27.5400202 106.06381,27.7180952 C105.881463,27.8988482 105.786889,28.1500606 105.804762,28.4061905 L105.804762,29.8066667 C105.804762,29.9361905 105.845238,29.952381 105.958571,29.952381 L106.047619,29.952381 C106.177143,29.952381 106.201429,29.952381 106.201429,29.8066667 L106.201429,28.4061905 C106.23381,27.9852381 106.42,27.8233333 106.897619,27.8233333 L106.897619,27.8071429 Z" id="Shape" fill="#009EDB" fill-rule="nonzero"></path>
            </g>
        </g>
    </g>
</svg>