<?xml version="1.0" encoding="UTF-8"?>
<svg width="72px" height="50px" viewBox="0 0 72 50" version="1.1" xmlns="http://www.w3.org/2000/svg" xmlns:xlink="http://www.w3.org/1999/xlink">
    <!-- Generator: Sketch 61.2 (89653) - https://sketch.com -->
    <title>Group 48</title>
    <desc>Created with Sketch.</desc>
    <defs>
        <polygon id="path-1" points="0 0.00459645669 17.4612894 0.00459645669 17.4612894 18.0722146 0 18.0722146"></polygon>
    </defs>
    <g id="Page-1" stroke="none" stroke-width="1" fill="none" fill-rule="evenodd">
        <g id="WPHelper_Header&amp;Footer" transform="translate(-1225.000000, -75.000000)">
            <g id="Group-48" transform="translate(1225.000000, 75.000000)">
                <path d="M46.5403543,2.95275591e-05 C43.1905512,2.95275591e-05 39.9399606,0.656427165 36.8791339,1.9511122 C33.9235236,3.20130906 31.2693898,4.99058071 28.9905512,7.26941929 C26.7117126,9.54825787 24.9223425,12.2023917 23.6722441,15.158002 C22.3775591,18.2189272 21.7211614,21.4694193 21.7211614,24.8193209 C21.7211614,28.169124 22.3775591,31.4196161 23.6722441,34.4805413 C24.9223425,37.43625 26.7117126,40.0902854 28.9905512,42.369124 C31.2693898,44.6479626 33.9235236,46.4372343 36.8791339,47.6873327 C39.9399606,48.9821161 43.1905512,49.6385138 46.5403543,49.6385138 C49.8902559,49.6385138 53.1408465,48.9821161 56.2016732,47.6873327 C59.1573819,46.4372343 61.8114173,44.6479626 64.0902559,42.369124 C66.3690945,40.0902854 68.1584646,37.43625 69.408563,34.4805413 C70.7031496,31.4196161 71.3596457,28.169124 71.3596457,24.8193209 C71.3596457,21.4694193 70.7031496,18.2189272 69.408563,15.158002 C68.1584646,12.2023917 66.3690945,9.54825787 64.0902559,7.26941929 C61.8114173,4.99058071 59.1573819,3.20130906 56.2016732,1.9511122 C53.1408465,0.656427165 49.8902559,2.95275591e-05 46.5403543,2.95275591e-05 M46.5403543,1.67325787 C59.323622,1.67325787 69.6864173,12.0361516 69.6864173,24.8193209 C69.6864173,37.6024902 59.323622,47.9652854 46.5403543,47.9652854 C33.757185,47.9652854 23.3943898,37.6024902 23.3943898,24.8193209 C23.3943898,12.0361516 33.757185,1.67325787 46.5403543,1.67325787" id="Fill-1" fill="#000000"></path>
                <path d="M46.5403543,2.33723425 C58.7961614,2.33723425 68.7312992,12.2724705 68.7312992,24.5280807 C68.7312992,36.7838878 58.7961614,46.7190256 46.5403543,46.7190256 C34.2846457,46.7190256 24.3495079,36.7838878 24.3495079,24.5280807 C24.3495079,12.2724705 34.2846457,2.33723425 46.5403543,2.33723425" id="Fill-3" fill="#00769D"></path>
                <path d="M57.5779134,42.618563 C58.8302756,38.6917913 62.2322441,28.0169882 63.8531102,22.8899213 C64.7236811,20.3275197 65.2618701,17.6640354 65.4547835,14.9648228 C70.4777165,24.8234843 67.0405118,36.8874606 57.5759449,42.618563 L57.5779134,42.618563 Z M40.751437,44.9341142 L46.4941535,28.5322441 L52.3293898,44.9341142 C48.5529134,46.0286024 44.5432677,46.0286024 40.7668898,44.9341142 L40.751437,44.9341142 Z M25.3142323,24.5281102 C25.3162008,21.8272244 25.8370669,19.1518307 26.8482874,16.6475 L36.2206299,43.0527165 C29.4959252,39.3114764 25.3228937,32.2235827 25.3142323,24.5281102 L25.3142323,24.5281102 Z M46.540315,3.30192913 C50.9813583,3.30242126 55.3087205,4.70507874 58.9055709,7.30980315 C57.5972047,7.66295276 56.1886417,8.78027559 56.1886417,11.9853937 C56.5070472,13.792874 57.2395276,15.5022244 58.3287008,16.9793898 C59.8607874,19.5825394 61.7672835,22.8223031 61.0534055,25.2169882 C61.0265354,25.3065551 61.0128543,25.3994685 61.0127559,25.4929724 C59.9284055,28.9084252 58.5660039,33.1883465 57.4391339,36.7254528 L50.5214173,15.1134449 C50.9135433,15.0492717 51.3005512,14.9564567 51.6790945,14.8355906 C52.1779134,14.6479921 52.4301772,14.0915945 52.2425787,13.592874 C52.0650197,13.1206299 51.5537008,12.8650197 51.0693504,13.0062598 C49.4039961,13.3773228 47.6965157,13.5233858 45.9923819,13.4404134 L45.1703346,13.4404134 C43.4662992,13.5232874 41.7588189,13.3773228 40.0934646,13.0062598 C39.5819488,12.8571457 39.0463189,13.150748 38.8971063,13.6622638 C38.7558661,14.1466142 39.0114764,14.6579331 39.483622,14.8355906 C40.2376575,15.0598031 41.0143307,15.1995669 41.7991732,15.2523228 L45.4829331,25.6319488 L41.8031102,36.106063 L35.0820472,15.1076378 C35.4742717,15.0441535 35.8611811,14.9518307 36.2398228,14.8316535 C36.7385433,14.6440551 36.9909055,14.0876575 36.8033071,13.588937 C36.625748,13.1167913 36.1143307,12.8610827 35.6300787,13.0023228 C33.9641339,13.3776181 32.2547835,13.5236811 30.5492717,13.4365748 L30.138248,13.4365748 C29.610689,13.4401181 29.0840157,13.3929724 28.5655118,13.2957283 C32.4335236,7.08824803 39.2265354,3.31147638 46.540315,3.30192913 L46.540315,3.30192913 Z M63.9284055,9.28391732 C63.7574409,9.06994094 63.5730906,8.86688976 63.3765354,8.67614173 C54.5862795,-0.668248031 39.8852953,-1.1173622 30.5410039,7.67279528 C21.1966142,16.4630512 20.7475,31.1640354 29.5376575,40.5085236 C38.3280118,49.852815 53.0289961,50.3019291 62.3733858,41.5116732 C71.485,32.940315 72.1725,18.6927756 63.9284055,9.28391732 L63.9284055,9.28391732 Z" id="Fill-5" fill="#FFFFFF"></path>
                <path d="M26.0444154,31.2860236 L26.0444154,31.4681102 L26.0224154,31.4681102 C26.0364154,31.4100394 26.0444154,31.3490157 26.0444154,31.2860236" id="Fill-7" fill="#000000"></path>
                <path d="M11.775502,32.2043406 C11.775502,32.2043406 5.52530512,31.3896752 4.22254921,41.0732382 C3.63839567,45.412313 3.01762795,47.503061 1.62018701,48.9199902 C6.92107283,48.9199902 12.3181201,49.1476476 12.3181201,49.1476476 C12.3181201,49.1476476 16.7053248,40.9375098 16.7286322,40.8789469 C16.7514862,40.8203839 11.775502,32.2043406 11.775502,32.2043406" id="Fill-9" fill="#89191B"></path>
                <g id="Group-13" transform="translate(0.000000, 31.413189)">
                    <mask id="mask-2" fill="white">
                        <use xlink:href="#path-1"></use>
                    </mask>
                    <g id="Clip-12"></g>
                    <path d="M11.8793996,16.5037106 C11.2580413,16.5069587 10.3740846,16.5113878 9.3242815,16.5157185 C7.62014764,16.5226083 5.47949803,16.5297933 3.31689961,16.5321555 C3.32162402,16.5236909 3.3270374,16.5160138 3.33176181,16.5074508 C3.61089567,16.0033169 3.83363189,15.4430807 4.02300197,14.8067618 C4.4008563,13.5321555 4.65371063,11.9479035 4.94810039,9.76778543 C5.25075787,7.51847441 5.82408465,5.8992815 6.49495079,4.73136811 C7.16729331,3.56315945 7.93530512,2.83884843 8.67378937,2.37014764 C9.1661122,2.05833661 9.64731299,1.86237205 10.0782185,1.7395374 C10.6107972,1.58747047 11.0638484,1.5492815 11.3534154,1.54455709 C11.4423917,1.69849409 11.5560728,1.89544291 11.6915059,2.13038386 C12.0243799,2.70794291 12.480876,3.49987205 12.9742815,4.35764764 C13.9606988,6.07270669 15.0967224,8.05351378 15.6871752,9.10302165 C15.7680807,9.24691929 15.8391437,9.37398622 15.8974114,9.47910433 C15.8179823,9.64022638 15.7163091,9.84623031 15.5950492,10.0911122 C15.3047933,10.677628 14.9121752,11.4705413 14.4969193,12.3081398 C13.6938681,13.9293012 12.8083366,15.7148327 12.4186713,16.5008563 C12.2713287,16.5016437 12.091998,16.502628 11.8793996,16.5037106 L11.8793996,16.5037106 Z M-2.95275591e-05,18.0722146 L1.81434055,18.0722146 C7.11808071,18.0722146 12.8677854,18.0374705 12.8684744,18.0374705 L13.3104035,18.0346161 L13.5143406,17.6232972 C13.5143406,17.6232972 15.4947539,13.6306791 16.6204429,11.3569587 C16.9957382,10.5983957 17.2750689,10.0339272 17.3575492,9.86483268 C17.3685728,9.84209646 17.3753642,9.82792323 17.3830413,9.81237205 L17.3916043,9.79327756 C17.3944587,9.78697835 17.3972146,9.78156496 17.4054823,9.76020669 L17.4612894,9.61876969 L17.4612894,9.4657185 C17.4610925,9.41276575 17.4568602,9.37674213 17.4527264,9.34780512 C17.4483957,9.31906496 17.4441634,9.29790354 17.4399311,9.28018701 C17.4316634,9.24554134 17.424872,9.22437992 17.4191634,9.20725394 C17.4078445,9.1738878 17.4007579,9.15695866 17.3944587,9.14189961 C17.3822539,9.1133563 17.3740846,9.09711614 17.3659154,9.07999016 C17.3494783,9.04691929 17.3330413,9.0153248 17.3126673,8.97684055 C17.272313,8.9008563 17.2177854,8.80144685 17.1486909,8.6770374 C17.0110925,8.42910433 16.8170965,8.08481299 16.584124,7.67477362 C16.1184744,6.85479331 15.4989862,5.77280512 14.8796949,4.69396654 C13.6408169,2.53658465 12.4022343,0.392194882 12.4020374,0.391899606 L12.2181791,0.0733956693 L11.8662106,0.0274311024 C11.8402264,0.0239862205 11.6809744,0.00459645669 11.4199508,0.00459645669 C10.984813,0.00459645669 10.2645374,0.0579429134 9.41621063,0.339832677 C8.56896654,0.621033465 7.59258858,1.13520669 6.67674213,2.04386811 C6.06621063,2.64839567 5.48422244,3.42625 4.98254921,4.41168307 C4.31325787,5.72605315 3.78520669,7.40705709 3.49682087,9.55252953 C3.27900591,11.171624 3.08373031,12.4362894 2.85902559,13.4346161 C2.63471457,14.4346161 2.38245079,15.1602067 2.06443898,15.7343209 C1.85174213,16.1179823 1.60951772,16.4400295 1.30528543,16.7490846 L-2.95275591e-05,18.0722146 Z" id="Fill-11" fill="#000000" mask="url(#mask-2)"></path>
                </g>
                <path d="M29.2373228,49.067628 C29.2373228,49.067628 29.9494291,48.7032579 28.8222638,40.7317028 C27.3533661,30.3449902 24.4969685,32.5295374 24.4969685,32.5295374 L14.6813189,32.7360335 C14.6813189,32.7360335 8.25622047,27.6813091 8.25622047,48.74125 C25.941063,49.3899705 29.2373228,49.067628 29.2373228,49.067628" id="Fill-14" fill="#D52128"></path>
                <path d="M21.7632579,35.0007087 C21.7632579,35.0007087 22.4621752,33.9633071 22.2692618,33.027185 C22.4470177,32.9123228 22.7288091,32.7539567 23.0797933,32.5593701 L24.4970177,32.5294488 L22.9861909,33.5172441 C22.9861909,33.5172441 22.3897343,35.9116339 21.7632579,35.0007087" id="Fill-16" fill="#FFFFFF"></path>
                <path d="M24.4970079,32.5294094 C24.4970079,32.5294094 27.3533071,30.3451575 28.8223031,40.7316732 C29.9494685,48.7031299 29.2375591,49.0675 29.2375591,49.0675 C29.2375591,49.0675 28.8451378,49.1057874 27.6072441,49.1295079 C27.6880512,48.8697638 27.7387402,48.7158268 27.7387402,48.7158268 C27.7387402,48.7158268 28.7730906,33.853622 24.4970079,32.5294094" id="Fill-18" fill="#FFFFFF"></path>
                <path d="M19.0183071,33.6300591 C19.0183071,33.6300591 16.2999016,33.5563386 14.4385827,33.0271063" id="Stroke-20" stroke="#000000" stroke-width="6.524"></path>
                <path d="M10.9182677,48.835315 C10.068563,48.8065748 9.18332677,48.7751772 8.25625984,48.7413189 C8.25625984,28.6581496 14.6814567,32.7359055 14.6814567,32.7359055 L19.3669882,34.275374 C21.2726969,35.0785236 21.7140354,35.2075591 21.7140354,35.2075591 L21.8133465,35.5192717 L21.8133465,36.2659252 C21.8133465,36.2659252 11.8331299,32.2424016 11.2550787,35.4685827 C10.6767323,38.6949606 9.90586614,44.4639567 10.8695472,48.6136614 C10.8869685,48.6886614 10.9023228,48.7615945 10.9182677,48.835315" id="Fill-22" fill="#9E1E29"></path>
                <path d="M28.9507874,20.2534154 C28.9507874,20.2534154 33.2147638,22.3865846 30.5981299,25.5624705 C29.861122,24.8920965 28.3781496,21.6871752 28.9507874,20.2534154" id="Fill-24" fill="#F7D2B4"></path>
                <path d="M28.4276181,48.338376 C27.856752,48.358061 26.9068504,48.3778445 25.4077362,48.3778445 C22.4713189,48.3778445 17.4270276,48.3013681 8.99179134,47.9979232 C9.01915354,44.3106201 9.25330709,41.4834547 9.6096063,39.3377854 C9.98844488,37.0497933 10.5101969,35.5398524 11.0399213,34.5893602 C11.3931693,33.9544193 11.7448425,33.5695768 12.0584252,33.3366043 C12.2385433,33.2032382 12.4071457,33.1177067 12.5677756,33.061998 C12.7509449,32.9985138 12.9247638,32.9738036 13.0920866,32.9738036 C13.3926772,32.9730217 13.6759449,33.0583563 13.8893307,33.154124 C14.098878,33.2470374 14.2360827,33.3471358 14.2456299,33.354813 L14.4438583,33.5107185 L24.7422835,33.2938878 L24.9122638,33.164065 C24.9179724,33.1606201 24.9300787,33.154124 24.948878,33.1459547 C24.9913976,33.1275492 25.0578346,33.107372 25.138248,33.107372 C25.1925787,33.1077657 25.2548819,33.1155413 25.3342126,33.1440846 C25.413248,33.1728248 25.510689,33.2230217 25.6298819,33.3191831 C25.8674803,33.5099311 26.1931693,33.8964469 26.5385433,34.6247933 C26.7689567,35.109439 27.0075394,35.7424114 27.2387402,36.5557972 C27.5472047,37.6403445 27.8429724,39.044872 28.0973031,40.8446752 C28.5925787,44.3434941 28.7270276,46.3529429 28.7263412,47.467313 C28.7263412,47.8458563 28.7111811,48.1200689 28.6912992,48.3102264 C28.6906102,48.3169193 28.6897244,48.321939 28.688937,48.3283366 C28.6124606,48.3315846 28.5261417,48.3350295 28.4276181,48.338376 M8.01885827,40.0441831 C7.70773622,42.3093406 7.52338583,45.1559941 7.52338583,48.7412303 L7.52338583,49.4843406 L8.23047244,49.5103248 C17.1073425,49.8358169 22.3651181,49.9171161 25.4077362,49.9171161 C28.4316535,49.9169193 29.2654134,49.8374902 29.3051772,49.8339469 L29.4385433,49.8209547 L29.5585236,49.759439 C29.6293898,49.7231201 29.6949409,49.6742028 29.7499606,49.6197736 C29.8048819,49.5651476 29.8500591,49.5053051 29.8880512,49.4437894 C29.9635433,49.3194783 30.013248,49.1881791 30.0554724,49.0269587 C30.1372638,48.7050098 30.1909055,48.2518602 30.1920866,47.467313 C30.1916929,46.2281398 30.048189,44.1632776 29.5472047,40.6184941 C29.2023228,38.1826673 28.7811614,36.4072736 28.3222047,35.0983169 C27.8622638,33.790935 27.3661024,32.9421161 26.8326378,32.3841437 C26.4781102,32.0136713 26.0996654,31.7778445 25.7329331,31.6620965 C25.5240748,31.5956594 25.3220079,31.5681988 25.138248,31.5682972 C24.8277165,31.5682972 24.5736811,31.6439862 24.3936614,31.7213484 C24.3605906,31.7356201 24.3325394,31.7497933 24.3041929,31.7637697 L14.8885433,31.9618996 C14.7939567,31.9037303 14.6739764,31.8360138 14.5284055,31.7676083 C14.1788976,31.6040256 13.6854921,31.4355217 13.0920866,31.4346175 C12.5725,31.4327657 11.976437,31.5736122 11.4027165,31.947628 C10.8277165,32.3202657 10.2831299,32.9112106 9.80104331,33.7653445 C9.47899606,34.3356201 9.18175197,35.025187 8.91393701,35.860128 C8.55724409,36.9732185 8.25251969,38.3453642 8.01885827,40.0441831" id="Fill-26" fill="#000000"></path>
                <path d="M30.8224114,23.7895079 C30.5437697,23.2366535 30.2754626,22.5628346 30.1107972,21.926122 C30.00125,21.506437 29.9386516,21.1026969 29.938061,20.7712008 C29.9908169,20.807815 30.0453445,20.8464961 30.1022343,20.8884252 C30.509813,21.1892126 30.9905217,21.631437 31.287372,22.1419685 C31.4864862,22.4834055 31.6063681,22.8444291 31.6066634,23.2357677 C31.6063681,23.4769094 31.5617815,23.7341929 31.4487894,24.0198228 C31.3909154,24.1661811 31.3141437,24.3201181 31.2159154,24.4811417 C31.0910138,24.2900984 30.9556791,24.0541732 30.8224114,23.7895079 M29.3185728,22.6434449 C29.5184744,23.2753346 29.7821555,23.8901969 30.0550886,24.4101772 C30.2374705,24.757126 30.4226083,25.0605709 30.6040059,25.3040748 C30.7085335,25.4435433 30.8104035,25.5635236 30.9224114,25.665689 L31.2838287,25.994626 L31.5968209,25.6147047 C31.9317618,25.2082087 32.1736909,24.8047638 32.3319587,24.4053543 C32.4902264,24.0062402 32.563061,23.6111614 32.5627666,23.2357677 C32.563061,22.6223819 32.3707382,22.0739567 32.101939,21.6158858 C31.8322539,21.156437 31.4862894,20.7782874 31.1481004,20.4722835 C30.4707382,19.8621457 29.8163091,19.5362598 29.7935728,19.5239567 L29.3414075,19.2975787 L29.1471161,19.782815 C29.0250689,20.0899016 28.9817618,20.4204134 28.9811713,20.760374 C28.9824508,21.3644094 29.1199508,22.0105709 29.3185728,22.6434449" id="Fill-28" fill="#000000"></path>
                <path d="M21.8133268,35.5192618 C21.8133268,35.5192618 18.6650984,34.4015453 16.6732677,33.5434744 C14.4245472,33.0227067 11.1473819,32.4155217 9.60555118,30.8974114 C8.64167323,31.4035138 6.10358268,31.7743799 5.10771654,29.109124 C4.11185039,26.444065 5.23616142,25.7117815 5.84649606,24.9982972 C6.16795276,23.2728051 6.10358268,16.7278248 8.25624016,14.9398327 C10.4085039,13.1517421 21.1708071,12.713061 22.134685,12.3420965 C23.098563,11.9710335 24.447874,9.74426181 24.447874,9.74426181 C24.447874,9.74426181 25.507815,12.2070571 25.732815,12.2070571 C25.9576181,12.2070571 28.3672638,11.2622736 28.5598819,11.3298917 C28.7526969,11.397313 27.5320276,16.1542028 27.5639173,16.3229035 C27.5960039,16.4916043 29.0416732,20.5062697 29.0416732,20.5062697 C29.0416732,20.5062697 32.5435433,27.6586319 29.0416732,29.8514469 C25.5401969,32.0443602 23.0021063,33.3287106 23.0021063,33.3287106 C23.0021063,33.3287106 22.9700197,34.8108957 21.8133268,35.5192618" id="Fill-30" fill="#F7D2B4"></path>
                <path d="M5.83980315,25.3757972 C5.84206693,25.3732382 5.84433071,25.0007972 5.84669291,24.998435 C6.16785433,23.2727461 6.10377953,16.7276673 8.25604331,14.9396752 C10.4087008,13.1515846 21.1709055,12.7131004 22.1347835,12.3420374 C23.0983661,11.9709744 24.4477756,9.74420276 24.4477756,9.74420276 C24.4477756,9.74420276 25.507815,12.206998 25.732815,12.206998 C25.957815,12.206998 28.3670669,11.2624114 28.5600787,11.3298327 C28.7318307,11.3900689 27.7803543,15.1762894 27.5945276,16.1175295 C26.7387205,16.0675295 25.443248,16.0339665 24.4154921,16.188002 C22.7290748,16.4410531 13.2838976,17.0483366 10.7297638,18.8700886 C8.1759252,20.6918406 8.71844488,25.3881988 8.95909449,25.9323917 C8.61647638,26.0114272 7.4896063,24.5407579 5.83980315,25.3757972" id="Fill-32" fill="#00293B"></path>
                <path d="M21.8058858,33.4225394 C23.0590354,32.6127953 29.4680906,29.6524606 29.1067717,26.8692913 C28.7453543,24.0860236 26.0949606,16.849311 26.2393504,16.1155512 C26.383937,15.3817913 27.155,12.8008858 27.155,12.8008858 C27.155,12.8008858 25.3719291,13.8637795 24.9862992,13.5094488 C24.6008661,13.1551181 23.8542126,11.1562992 23.8542126,11.1562992 L24.3660236,10.9933071 C24.6934843,11.7047244 25.1336417,12.6024606 25.2696654,12.6024606 C25.4943701,12.6024606 27.9039173,11.657874 28.0967323,11.7252953 C28.2894488,11.7929134 27.0685827,16.5498031 27.1005709,16.7185039 C27.1329528,16.8870079 28.5785236,20.9018701 28.5785236,20.9018701 C28.5785236,20.9018701 32.0802953,28.0540354 28.5785236,30.2469488 C25.0766535,32.4398622 22.5387598,33.7241142 22.5387598,33.7241142 C22.5387598,33.7241142 22.537185,33.7947835 22.5229134,33.9127953 C22.5229134,33.9127953 21.9264567,36.3070866 21.3000787,35.3961614 C21.3000787,35.3961614 21.9987008,34.3588583 21.8058858,33.4225394" id="Fill-34" fill="#FFFFFF"></path>
                <path d="M5.10767717,29.1092323 C4.1117126,26.4441732 5.2363189,25.7118898 5.84655512,24.9984055 C6.16781496,23.2727165 6.10374016,16.7279331 8.25610236,14.9397441 C8.63238189,14.6272441 9.27194882,14.3559843 10.0758858,14.1191732 C9.89409449,15.3194685 9.8019685,17.4901378 10.3875,21.0337402 C11.3996063,27.1569685 11.9113189,31.4992913 17.6549213,32.1872835 C20.892815,32.7741929 21.5677165,34.7477165 21.5677165,34.7477165 L21.8134843,35.5193701 C21.8134843,35.5193701 18.6649606,34.4016535 16.6731299,33.5435827 C14.4244094,33.022815 11.1474409,32.4154331 9.60561024,30.8973228 C8.64153543,31.4034252 6.10374016,31.7743898 5.10767717,29.1092323" id="Fill-36" fill="#E9BCA6"></path>
                <path d="M10.1500394,19.3864272 C8.2653937,21.4521752 8.7384252,25.4339665 8.95909449,25.9322933 C8.61647638,26.0114272 7.4896063,24.5407579 5.83990157,25.3757972 C5.8419685,25.3733366 5.84433071,25.0009941 5.84669291,24.998435 C6.16785433,23.2727461 6.10377953,16.7277657 8.25604331,14.9396752 C8.63242126,14.6272736 9.27208661,14.3560138 10.0757283,14.1191043 C9.92435039,15.120876 9.83517717,16.7987303 10.1500394,19.3864272" id="Fill-38" fill="#0A1C23"></path>
                <path d="M5.78982283,28.8281791 C5.52948819,28.1315256 5.44444882,27.6210925 5.44493882,27.2546555 C5.44641732,26.9088878 5.51246063,26.6861516 5.60793307,26.4875295 C5.70409449,26.2899902 5.84248031,26.1143012 6.01541339,25.9248327 C6.13007874,25.7979626 6.25872047,25.6674508 6.39159449,25.5128248 L6.52702756,25.3546555 L6.56590551,25.1459941 C6.59799213,24.9736516 6.6232874,24.7843799 6.64720472,24.5719783 C6.67112205,24.359872 6.69287402,24.1256201 6.71501969,23.8720768 C6.75891732,23.3650886 6.80320866,22.7798524 6.85990157,22.154065 C6.97230315,20.9037697 7.13588583,19.4886122 7.42742126,18.2679429 C7.61994094,17.4545571 7.87348425,16.7300492 8.17387795,16.2146949 C8.34484252,15.9192224 8.52801181,15.6946161 8.7107874,15.5432382 C8.80488189,15.4643996 8.96521654,15.3629232 9.17663386,15.2622343 C9.38824803,15.1611516 9.65005906,15.0588878 9.94956693,14.960561 C10.5489764,14.7636122 11.2973031,14.5831988 12.1203346,14.4235531 C13.7682677,14.1030807 15.7148228,13.8629232 17.4577362,13.6749311 C18.6202362,13.5491437 19.6925787,13.4463878 20.535689,13.3558366 C21.0181693,13.3039665 21.4245669,13.2562303 21.7402165,13.2085925 C21.9096063,13.1828051 22.0515354,13.1579035 22.1804724,13.126998 C22.2478937,13.1104626 22.3112795,13.0932382 22.3868701,13.0645965 C22.5923819,12.9847736 22.7688583,12.8748327 22.9354921,12.7511122 C23.101437,12.6268996 23.2571457,12.4871358 23.4068504,12.3379232 C23.7056693,12.0399902 23.9823425,11.7035728 24.2256496,11.3836909 C24.2581299,11.3410728 24.2897244,11.2986516 24.3207283,11.2568209 C24.3826378,11.3873327 24.4460236,11.5196161 24.5097047,11.6477657 C24.6306693,11.8917618 24.7497638,12.1208957 24.8651181,12.315187 C24.9325394,12.4273917 24.9943504,12.5259154 25.0787992,12.6305413 C25.126437,12.6870374 25.175748,12.7467815 25.2779134,12.8234547 C25.3320472,12.8620374 25.4027165,12.9084941 25.5189567,12.944813 C25.577815,12.962628 25.6493701,12.9766043 25.7328346,12.9766043 C25.8131496,12.9758169 25.8523228,12.9679429 25.8904134,12.9618406 C25.9270276,12.9551476 25.9575394,12.9481594 25.9880512,12.9405807 C26.048189,12.9256201 26.1078346,12.9081004 26.1746654,12.8877264 C26.3070472,12.8471752 26.4650197,12.7942224 26.6412008,12.7337894 C26.9595079,12.6245374 27.3348031,12.4914665 27.6805709,12.373061 C27.6308661,12.6130217 27.5739764,12.8756201 27.5127559,13.1503248 C27.3207283,14.0123327 27.0948425,14.9629232 26.9605906,15.5675492 C26.9223031,15.7411713 26.8912008,15.8856594 26.8690551,16.0014075 C26.8571457,16.0642028 26.8478937,16.1160728 26.8397244,16.1774902 C26.8360827,16.2113484 26.8312598,16.2426476 26.8306693,16.3138091 C26.8306693,16.3482579 26.8319488,16.3940256 26.8420866,16.4547539 L26.8436614,16.4645965 L26.8452362,16.47375 C26.8518307,16.5076083 26.8564567,16.5236516 26.8602953,16.5389075 C26.8640354,16.5535728 26.8674803,16.5648917 26.8706299,16.5762106 C26.8772244,16.5984547 26.883622,16.6193209 26.8912008,16.6424508 C26.9058661,16.6885138 26.9239764,16.7431398 26.9463189,16.8086909 C26.9904134,16.9393996 27.0500591,17.1117421 27.1205315,17.3131201 C27.2614764,17.7160728 27.4455315,18.2346752 27.6287008,18.7477657 C27.9945472,19.7739469 28.3561614,20.7781791 28.3563583,20.7784744 L28.371122,20.8196161 L28.3900197,20.8583957 L28.3911024,20.8604626 L28.3971063,20.8729626 C28.4026181,20.8846752 28.4114764,20.902687 28.4225984,20.926998 C28.4454331,20.9755217 28.4792913,21.04875 28.5215157,21.1437303 C28.6058661,21.3335925 28.7242717,21.6099705 28.8556693,21.94875 C29.118563,22.6255217 29.4337205,23.552687 29.639626,24.5239469 C29.7772244,25.1710925 29.8657087,25.8373327 29.8654141,26.4539665 C29.8654141,26.916565 29.8159055,27.3499311 29.71,27.7285728 C29.6040945,28.1082972 29.4458268,28.4318209 29.2220079,28.7045571 C29.0725984,28.8868406 28.8925787,29.0485531 28.6663976,29.1904823 C25.2989764,31.299439 22.8281102,32.561939 22.6900197,32.6322146 L22.6840157,32.6352657 L22.2797835,32.8397933 L22.2696457,33.3063287 L22.2690551,33.3168602 C22.2681693,33.3299508 22.2662992,33.3532776 22.263248,33.3849705 C22.2564567,33.4483563 22.2430709,33.5452067 22.2173819,33.6588878 C22.1669882,33.8874311 22.0663976,34.1796555 21.8949409,34.4246358 C21.8359843,34.5093799 21.769252,34.5889075 21.692185,34.6624311 C21.6419882,34.6445177 21.5886417,34.6252264 21.5294882,34.6037697 C21.2048819,34.4861516 20.7509449,34.320502 20.2357874,34.1280807 C19.2055709,33.7437303 17.9263386,33.2514075 16.9512402,32.8314272 L16.8925787,32.8062303 L16.8308661,32.7918602 C15.9774213,32.5945177 14.9987795,32.3886122 14.0355906,32.1317224 C13.073189,31.8758169 12.1267323,31.5663681 11.3581299,31.1827067 C10.8454331,30.9280807 10.4148228,30.6400886 10.1065551,30.3357579 L9.7342126,29.9692224 L9.27781496,30.2089862 C9.15911417,30.2715846 8.9721063,30.3452067 8.75389764,30.3984547 C8.53519685,30.4522933 8.28440945,30.4870374 8.02801181,30.4870374 C7.70498031,30.4870374 7.37564961,30.4322146 7.07387795,30.3037697 C6.7713189,30.1742421 6.49336614,29.9771949 6.24248031,29.6591831 C6.07535433,29.4465846 5.92072835,29.1772933 5.78982283,28.8281791 M4.13214567,26.2139075 C4.03470472,26.5220768 3.97889764,26.8713878 3.97919175,27.2546555 C3.97948819,27.8689272 4.11757874,28.5652854 4.42545276,29.3902854 C4.69661417,30.1185335 5.0865748,30.6913681 5.5463189,31.1055413 C6.00527559,31.5207972 6.52584646,31.7727657 7.03411417,31.9032776 C7.37377953,31.9907776 7.70911417,32.0261122 8.02801181,32.0261122 C8.4088189,32.0260138 8.76669291,31.9758169 9.0873622,31.8971752 C9.22200787,31.8641043 9.34838583,31.825128 9.46944882,31.783002 C9.8494685,32.0893012 10.2760433,32.3465846 10.7298819,32.5733563 C11.3362795,32.8750295 11.9931693,33.120502 12.663937,33.3317224 C13.9812598,33.7454035 15.3547835,34.0271949 16.4566535,34.2815256 C17.4640354,34.7131201 18.723189,35.1968799 19.7448425,35.5782776 C20.7861811,35.9669587 21.5761417,36.2475689 21.5787008,36.2483563 L21.8947441,36.3604626 L22.1827362,36.1840846 C22.5673819,35.9489469 22.8626575,35.6440256 23.0793898,35.3315256 C23.2963189,35.0183366 23.4380512,34.698061 23.5333268,34.4117421 C23.6045866,34.1963878 23.6501575,33.9998327 23.6797835,33.8352657 C24.5023228,33.4031791 26.6633465,32.236939 29.417185,30.5123327 C29.7747638,30.2889075 30.0811614,30.0162697 30.3325394,29.7091831 C30.5845079,29.4020965 30.7814567,29.0618406 30.9294882,28.7056398 C31.2252559,27.9917618 31.3305709,27.2208957 31.3311614,26.4539665 C31.3306693,25.6861516 31.2243701,24.9167618 31.0704331,24.1890059 C30.9159055,23.4617421 30.7123622,22.7762106 30.5098031,22.1822146 C30.1537008,21.1380217 29.8001575,20.3780807 29.7138386,20.1963878 C29.6963189,20.1476673 29.6624606,20.0539665 29.6158071,19.9239469 C29.5459252,19.7300492 29.4484843,19.4584941 29.3373622,19.1481594 C29.1152165,18.5278839 28.8380512,17.7521949 28.6200394,17.1337894 C28.4874606,16.7586909 28.3766339,16.4402854 28.3154134,16.2577067 C28.3229921,16.2187303 28.3324409,16.1735531 28.3433661,16.1222736 C28.3822441,15.9398917 28.4390354,15.6884154 28.505374,15.3998327 C28.638248,14.8219783 28.8089173,14.0926476 28.9584252,13.4180413 C29.0582283,12.9674508 29.1484843,12.5423524 29.213248,12.1937303 C29.2501575,11.9936319 29.2789961,11.820502 29.2967126,11.6672539 C29.3059646,11.5838878 29.3130512,11.5087894 29.3133465,11.4164665 C29.313248,11.3768996 29.3121654,11.3340846 29.3056693,11.2775886 C29.2977953,11.2203051 29.2894291,11.1503248 29.2437598,11.03625 C29.2117717,10.9616437 29.1604921,10.8583957 29.044252,10.7509154 C28.9837205,10.6952067 28.9027165,10.6431398 28.8117717,10.6081988 L28.8120669,10.607313 C28.8085236,10.6057382 28.8059646,10.6056398 28.8025197,10.6043602 C28.7980906,10.602687 28.7937598,10.6005217 28.7892323,10.5988484 L28.7887402,10.600128 C28.7233858,10.5777854 28.6714173,10.5677461 28.6327362,10.562628 C28.588937,10.5574114 28.5575394,10.5568209 28.5321457,10.5568209 C28.4566535,10.557313 28.4079331,10.5643012 28.3602953,10.5715846 C28.3138386,10.5791634 28.2713189,10.5880217 28.227815,10.5981594 C28.1412008,10.6182382 28.0515354,10.6431398 27.9529134,10.6724705 C27.7564567,10.7308366 27.5274213,10.8068209 27.285,10.8893012 C26.8420866,11.0405807 26.356063,11.2142028 26.0123622,11.3294587 C25.9225984,11.1647933 25.8182677,10.9575098 25.7149213,10.7432382 C25.4462205,10.1861516 25.1830315,9.58300197 25.1267323,9.45308071 C25.1191535,9.43565945 25.1156102,9.42719488 25.1156102,9.42719488 L24.5572441,8.13014764 L23.8295866,9.33083661 L23.8287992,9.33211614 L23.8249606,9.33851378 L23.8076378,9.36666339 C23.7918898,9.39195866 23.7682677,9.42965551 23.7376575,9.47749016 C23.676437,9.57355315 23.5871654,9.71075787 23.4780118,9.87030512 C23.2601969,10.1891043 22.960689,10.599439 22.6562598,10.9452067 C22.454685,11.1754232 22.248189,11.3764075 22.0862795,11.4964862 C21.9962205,11.5642028 21.9215157,11.6045571 21.8851969,11.6181398 L21.8791929,11.6200098 C21.8688583,11.6228642 21.8512402,11.6272933 21.8284055,11.6324114 C21.7821457,11.6428445 21.7150197,11.6556398 21.6334252,11.6692224 C21.4690551,11.6960925 21.2453346,11.7263091 20.9789961,11.758002 C20.4448425,11.8217815 19.7365748,11.8928445 18.9288976,11.9749311 C17.3119685,12.1393996 15.2952362,12.3481594 13.4088189,12.6407776 C12.1503543,12.8364469 10.9511417,13.0678445 9.94927165,13.3570177 C9.37584646,13.5232579 8.86698819,13.7064272 8.43352362,13.9288681 C8.20242126,14.0482579 7.99159449,14.1787697 7.80143701,14.3361516 C7.33509843,14.725128 6.98903543,15.2399902 6.7107874,15.8130217 C6.4334252,16.3877264 6.22279528,17.0281791 6.05291339,17.7010138 C5.71452756,19.045502 5.53903543,20.525128 5.41767717,21.8245374 C5.33706693,22.689498 5.28155512,23.475128 5.22505906,24.0672539 C5.20399606,24.2890059 5.18224409,24.4838878 5.16059055,24.640187 C5.04110236,24.7685335 4.89336614,24.923061 4.73755906,25.1143012 C4.51393701,25.3895965 4.27791339,25.7503248 4.13214567,26.2139075" id="Fill-40" fill="#000000"></path>
                <polygon id="Fill-42" fill="#E72429" points="26.4210039 27.576624 24.4988583 23.5480807 22.5730709 27.576624"></polygon>
                <path d="M30.2004232,49.1365453 C29.7927461,49.1365453 29.4622343,48.8061319 29.4622343,48.3983563 L29.4622343,38.2239469 L29.3347736,38.1601673 C27.4706988,37.2281791 26.312628,35.3549508 26.312628,33.2716831 L26.312628,32.255935 C26.312628,31.1859547 26.7623327,30.1515059 27.5464862,29.4176476 C28.2742421,28.7403839 29.2162697,28.3681398 30.2004232,28.3681398 C30.6081988,28.3681398 30.9386122,28.6986516 30.9386122,29.1063287 L30.9386122,30.6811319 C30.9386122,31.1424508 31.3139075,31.5177461 31.7752264,31.5177461 L33.3500295,31.5177461 C33.8114469,31.5177461 34.1866437,31.1424508 34.1866437,30.6811319 L34.1866437,29.1063287 C34.1866437,28.6986516 34.5171555,28.3681398 34.9248327,28.3681398 C35.9547539,28.3681398 36.9302461,28.7707972 37.6715846,29.501998 L37.6787697,29.5091831 C38.4099705,30.2505217 38.812628,31.2260138 38.812628,32.255935 L38.812628,33.2716831 C38.812628,33.4340846 38.804065,33.5802461 38.7957972,33.7215846 C38.7954035,33.7285728 38.7947146,33.7381201 38.7942224,33.7450098 C38.6282776,35.6522933 37.5054429,37.3028839 35.7903839,38.1601673 L35.6630217,38.2239469 L35.6630217,48.3983563 C35.6630217,48.8061319 35.3326083,49.1365453 34.9248327,49.1365453 L30.2004232,49.1365453 Z" id="Fill-44" fill="#CCD1D9"></path>
                <path d="M34.9249311,27.6299705 C34.1095768,27.6299705 33.4485531,28.2908957 33.4485531,29.1063484 L33.4485531,30.2717028 L33.4485531,30.6811516 C33.4485531,30.7317421 33.4007185,30.7795768 33.350128,30.7795768 L31.7753248,30.7795768 C31.7246358,30.7795768 31.6768996,30.7317421 31.6768996,30.6811516 L31.6768996,29.1063484 C31.6768996,28.2908957 31.015876,27.6299705 30.2005217,27.6299705 C29.0291634,27.6299705 27.9085925,28.0723917 27.0451083,28.8758366 C26.1093799,29.751624 25.5745374,30.982628 25.5745374,32.2559547 L25.5745374,33.2716043 C25.5745374,34.4236713 25.8943209,35.5506398 26.4993406,36.530561 C27.0497343,37.4218996 27.8146949,38.1567421 28.7241437,38.6711122 L28.7241437,48.398376 C28.7241437,49.2137303 29.3851673,49.8747539 30.2005217,49.8747539 L34.9249311,49.8747539 C35.7402854,49.8747539 36.4013091,49.2137303 36.4013091,48.398376 L36.4013091,38.6710138 C37.2317224,38.200935 37.9472736,37.5428642 38.4831004,36.7531988 C39.0762106,35.8792815 39.4381201,34.8611713 39.5295571,33.8090059 C39.5307382,33.7953248 39.5318209,33.7816437 39.5325098,33.7678642 C39.5410728,33.6220965 39.5509154,33.456939 39.5509154,33.2716043 L39.5509154,32.2559547 C39.5509154,31.0307579 39.0727657,29.8712106 38.2043602,28.9907972 L38.1899902,28.9764272 C37.3096752,28.1081201 36.1500295,27.6299705 34.9249311,27.6299705 M34.9249311,29.1063484 C35.7910728,29.1063484 36.5784744,29.4606791 37.1532776,30.0275098 C37.7201083,30.602313 38.0745374,31.3897146 38.0745374,32.2559547 L38.0745374,33.2716043 C38.0745374,33.413435 38.0666634,33.5471949 38.0587894,33.6810531 C37.9169587,35.3109744 36.9405807,36.7598917 35.4602657,37.4999508 L34.9249311,37.7677657 L34.9249311,48.398376 L30.2005217,48.398376 L30.2005217,37.7677657 L29.6650886,37.4999508 C28.0586909,36.6968012 27.0509154,35.0590059 27.0509154,33.2716043 L27.0509154,32.2559547 C27.0509154,31.3504429 27.4366437,30.5314469 28.0508169,29.9567421 C28.6178445,29.4290846 29.37375,29.1063484 30.2005217,29.1063484 L30.2005217,30.6811516 C30.2005217,31.5472933 30.9090846,32.2559547 31.7753248,32.2559547 L33.350128,32.2559547 C34.2162697,32.2559547 34.9249311,31.5472933 34.9249311,30.6811516 L34.9249311,30.2717028 L34.9249311,29.1063484" id="Fill-46" fill="#000000"></path>
            </g>
        </g>
    </g>
</svg>