<?xml version="1.0" encoding="UTF-8"?>
<svg width="116px" height="32px" viewBox="0 0 116 32" version="1.1" xmlns="http://www.w3.org/2000/svg" xmlns:xlink="http://www.w3.org/1999/xlink">
    <!-- Generator: Sketch 61.2 (89653) - https://sketch.com -->
    <title>zalopay</title>
    <desc>Created with Sketch.</desc>
    <g id="Page-1" stroke="none" stroke-width="1" fill="none" fill-rule="evenodd">
        <g id="WPHelper_Woocommerce_Vidientu" transform="translate(-680.000000, -829.000000)" fill-rule="nonzero">
            <g id="zalopay" transform="translate(680.000000, 829.000000)">
                <g id="_Group_2" fill="#118ACB">
                    <path d="M34.9632585,10.1168685 C34.4960423,9.62774179 33.8485165,9.36151237 33.1791128,9.38331913 C32.1146226,9.38331913 31.3499886,9.90291659 30.8552256,10.9421115 C29.820721,9.70424697 28.396403,9.07767354 26.5972643,9.07767354 C24.4382981,9.07767354 22.6241669,9.93348115 21.1398776,11.6298141 C19.6555883,13.326147 18.9359329,15.4045369 18.9359329,17.8497015 C18.9359329,20.2948661 19.6705811,22.373256 21.1398776,24.0695889 C22.6091741,25.765922 24.4382981,26.6217296 26.5972643,26.6217296 C28.396403,26.6217296 29.820721,25.9951561 30.8552256,24.7572914 C31.3349958,25.7964864 32.1146226,26.3160839 33.1791128,26.3160839 C33.8485165,26.3378908 34.4960423,26.0716612 34.9632585,25.5825346 C35.4249569,25.1076846 35.679043,24.4629613 35.6679212,23.7945079 L35.6679212,11.9201774 C35.6750543,11.2479645 35.4218542,10.5999979 34.9632585,10.1168685 Z M29.7907352,20.783899 C29.1910224,21.5785775 28.3514245,21.9759167 27.301927,21.9759167 C26.2524296,21.9759167 25.4128315,21.5785775 24.8131187,20.783899 C24.2134058,19.9892205 23.9135494,19.0111547 23.9135494,17.8344192 C23.9135494,16.6576838 24.2134058,15.6796179 24.8131187,14.8849395 C25.4128315,14.090261 26.2524296,13.6929217 27.301927,13.6929217 C28.3514245,13.6929217 29.1910224,14.090261 29.7907352,14.8849395 C30.390448,15.6796179 30.6903044,16.6576838 30.6903044,17.8344192 C30.6903044,19.0111547 30.405441,19.9892205 29.7907352,20.783899 Z" id="_Compound_Path_"></path>
                    <path d="M41.2752361,25.5672522 C40.2793591,26.5454006 38.7028217,26.5454006 37.7069448,25.5672522 C37.2452464,25.0924023 36.9911603,24.4476789 37.0022823,23.7792257 L37.0022823,2.52157598 C36.9911603,1.85312274 37.2452464,1.20839929 37.7069448,0.733549377 C38.7028217,-0.244598956 40.2793591,-0.244598956 41.2752361,0.733549377 C41.7369345,1.20839929 41.9910206,1.85312274 41.9798988,2.52157598 L41.9798988,23.7792257 C41.9910206,24.4476789 41.7369345,25.0924023 41.2752361,25.5672522 L41.2752361,25.5672522 Z" id="_Path_"></path>
                    <path d="M57.7073678,11.6298141 C56.1181289,9.93348115 54.0940981,9.07767354 51.6352755,9.07767354 C49.1764529,9.07767354 47.1674147,9.91819888 45.6081613,11.5992495 C44.0489079,13.2803002 43.2692814,15.3586901 43.2692814,17.8497015 C43.2692814,20.3407129 44.0489079,22.4191028 45.6081613,24.1001535 C47.1674147,25.7812041 49.1764529,26.6217296 51.6352755,26.6217296 C54.0940981,26.6217296 56.1181289,25.765922 57.7073678,24.0695889 C59.2366357,22.4038206 60.0012695,20.3407129 60.0012695,17.8497015 C60.0012695,15.3586901 59.2216429,13.2803002 57.7073678,11.6298141 Z M54.1240837,20.783899 C53.5243709,21.5785775 52.684773,21.9759167 51.6352755,21.9759167 C50.5857781,21.9759167 49.74618,21.5785775 49.1464671,20.783899 C48.5467543,19.9892205 48.2468979,19.0111547 48.2468979,17.8344192 C48.2468979,16.6576838 48.5467543,15.6796179 49.1464671,14.8849395 C49.74618,14.090261 50.5857781,13.6929217 51.6352755,13.6929217 C52.684773,13.6929217 53.5243709,14.090261 54.1240837,14.8849395 C54.7237965,15.6796179 55.0236529,16.6576838 55.0236529,17.8344192 C55.0236529,19.0111547 54.7237965,19.9892205 54.1240837,20.783899 Z" id="_Compound_Path_2"></path>
                    <path d="M16.1922467,9.65840013 C17.9464067,7.35077606 18.8159903,5.80726589 18.8159903,4.99730514 C18.8159903,3.1481494 17.6765359,2.23121268 15.3976271,2.23121268 L3.35839189,2.23121268 C2.41384417,2.23121268 1.67919595,2.46044687 1.16944004,2.91891524 C0.657212837,3.35716156 0.369974062,4.01029583 0.389813345,4.69165955 C0.366806417,5.37366 0.654638934,6.02814433 1.16944004,6.46440389 C1.69418877,6.92287226 2.41384417,7.15210642 3.35839189,7.15210642 L11.6194362,7.15210642 L1.04949747,21.0895447 C0.359827704,22.0064814 0.014992821,22.816442 0.014992821,23.5194269 C0.014992821,25.5519699 1.33436107,26.5606004 3.95810473,26.5606004 L16.3721605,26.5606004 C18.3512129,26.5606004 19.3407391,25.7047928 19.3407391,24.0084599 C19.3407391,22.3121268 18.3512129,21.4563192 16.3721605,21.4563192 L7.24153254,21.4563192 L16.1922467,9.65840013 Z" id="_Path_2"></path>
                </g>
                <g id="_Group_3" transform="translate(65.939394, 0.000000)">
                    <path d="M10.1839462,9.30288249 L7.12132881,9.30288249 L7.12132881,15.7560976 L10.1839462,15.7560976 C11.1057048,15.7560976 11.8490586,15.4545455 12.4288745,14.8363636 C13.0067276,14.2078259 13.3166098,13.3733839 13.2911648,12.5144124 C13.2911648,11.5796009 13.0086904,10.810643 12.4288745,10.1924612 C11.8490586,9.60443459 11.1057048,9.30288249 10.1839462,9.30288249 Z" id="_Path_3" fill="#33B44A"></path>
                    <path d="M25.4821661,15.3791574 C24.5158062,15.3791574 23.7427184,15.74102 23.1926366,16.464745 C22.6425549,17.1884701 22.3600804,18.0931264 22.3600804,19.1485588 C22.3600804,20.2039911 22.6425549,21.1086474 23.1926366,21.8323726 C23.7427184,22.5560976 24.5158062,22.91796 25.4821661,22.91796 C26.4485259,22.91796 27.2216139,22.5560976 27.7716955,21.8323726 C28.3217774,21.1086474 28.6042519,20.2039911 28.6042519,19.1485588 C28.6042519,18.0931264 28.3217774,17.1884701 27.7716955,16.464745 C27.2216139,15.74102 26.4485259,15.3791574 25.4821661,15.3791574 Z" id="_Path_4" fill="#33B44A"></path>
                    <path d="M47.1286269,0.0753050095 L2.69094054,0.0753050095 C1.20477511,0.0753050095 0,1.29722379 0,2.80443459 L0,29.2053214 C0,30.7125324 1.20477511,31.9343681 2.69094054,31.9343681 L37.7623698,31.9343681 C37.4097369,31.617118 37.2092374,31.16098 37.2122882,30.6829268 C37.2203379,30.2633674 37.306073,29.8490801 37.4650283,29.4616408 L39.1152735,25.7374723 L34.5510816,14.1277162 C34.4122814,13.783166 34.3415631,13.414322 34.3429427,13.0421286 C34.3387634,12.5351317 34.5770179,12.0574941 34.9822268,11.7605321 C35.3485318,11.4325665 35.8169345,11.2457547 36.3053965,11.232816 C37.3163576,11.232816 38.0151102,11.7303769 38.3719198,12.7254989 L41.2263982,20.6261641 L44.2741487,12.7254989 C44.6606926,11.7303769 45.3445779,11.232816 46.340672,11.232816 C46.829134,11.2457547 47.2975367,11.4325665 47.6638417,11.7605321 C48.0612272,12.0642 48.2973433,12.5375503 48.3031258,13.0421286 C48.3045054,13.414322 48.2337871,13.783166 48.0949867,14.1277162 L41.3304679,30.8186254 C41.1800491,31.2260898 40.9528118,31.5999394 40.6614493,31.9192905 L47.1286269,31.9192905 C48.6147924,31.9192905 49.8195675,30.6974547 49.8195675,29.190244 L49.8195675,2.78935699 C49.8195675,2.06694768 49.5355958,1.37434421 49.0305147,0.864940659 C48.5254335,0.355537104 47.8409382,0.0713746414 47.1286269,0.0753050095 Z M15.7442321,17.8368071 C14.3467271,19.1334811 12.5775452,19.7818182 10.4515535,19.7818182 L7.12132881,19.7818182 L7.12132881,24.7725055 C7.12132881,25.5263859 6.91318975,26.1144124 6.49691167,26.5215077 C6.08063356,26.9286031 5.53055179,27.1396896 4.87640052,27.1396896 C4.2767015,27.1601475 3.69362943,26.9377209 3.25588936,26.5215077 C2.83961128,26.0993349 2.63147224,25.5263859 2.63147224,24.7725055 L2.63147224,7.6594235 C2.63147224,6.07627495 3.4194272,5.27716186 4.98047004,5.27716186 L10.3028828,5.27716186 C12.532944,5.27716186 14.3615942,5.9556541 15.8185675,7.29756097 C17.2755408,8.63946786 18.0040275,10.4035477 18.0040275,12.5596452 C17.9742934,14.7308204 17.2309396,16.4949002 15.7442321,17.8368071 Z M33.1535766,24.5764967 C33.1715649,25.1855696 32.9401515,25.7750246 32.5142925,26.2048781 C32.0875022,26.6525759 31.4924151,26.8939815 30.8789143,26.8682927 C29.9125543,26.8682927 29.1989348,26.4008869 28.7529226,25.4509978 C27.8014298,26.5818182 26.4931272,27.1547672 24.842882,27.1547672 C22.865561,27.1547672 21.1855815,26.3858092 19.8326777,24.8328159 C18.4797739,23.2798227 17.8107555,21.3800444 17.8107555,19.1485588 C17.8107555,16.9170732 18.4797739,15.0172949 19.8326777,13.4643015 C21.1855815,11.9113082 22.8506938,11.1423503 24.842882,11.1423503 C26.4931272,11.1423503 27.8014298,11.7152993 28.7529226,12.8461197 C29.1989348,11.8962306 29.9125543,11.4288248 30.8789143,11.4288248 C31.4848452,11.41089 32.071456,11.6460768 32.5014995,12.0793595 C32.931543,12.5126422 33.1672874,13.1060049 33.1535766,13.7206209 L33.1535766,24.5764967 Z" id="_Compound_Path_3" fill="#39B54A"></path>
                </g>
            </g>
        </g>
    </g>
</svg>